<?xml version="1.0" encoding="UTF-8"?>
<svg xmlns="http://www.w3.org/2000/svg" xmlns:xlink="http://www.w3.org/1999/xlink" width="25px" height="25px" viewBox="0 0 25 25" version="1.1">
<g id="surface12">
<path style=" stroke:none;fill-rule:nonzero;fill-opacity:1;" d="M 17.488281 7.660156 C 17.953125 7.199219 17.953125 6.449219 17.488281 5.984375 L 15.78125 4.28125 L 15.785156 4.28125 C 15.332031 3.832031 14.554688 3.054688 13.457031 1.957031 C 12.9375 1.453125 12.101562 1.457031 11.589844 1.96875 L 1.976562 11.578125 C 1.726562 11.824219 1.585938 12.160156 1.585938 12.507812 C 1.585938 12.859375 1.726562 13.195312 1.976562 13.441406 L 11.585938 23.046875 C 12.101562 23.5625 12.9375 23.5625 13.453125 23.046875 L 17.484375 19.019531 C 17.949219 18.558594 17.949219 17.804688 17.484375 17.34375 C 17.023438 16.882812 16.273438 16.882812 15.808594 17.34375 L 12.757812 20.398438 C 12.628906 20.527344 12.429688 20.527344 12.304688 20.398438 L 4.625 12.730469 C 4.5 12.601562 4.5 12.40625 4.625 12.277344 L 12.300781 4.605469 C 12.3125 4.597656 12.324219 4.589844 12.335938 4.578125 C 12.460938 4.480469 12.636719 4.488281 12.753906 4.605469 L 15.8125 7.660156 C 16.273438 8.125 17.027344 8.125 17.488281 7.660156 Z M 9.976562 12.558594 C 9.976562 13.992188 11.136719 15.152344 12.570312 15.152344 C 14.003906 15.152344 15.167969 13.992188 15.167969 12.558594 C 15.167969 11.125 14.003906 9.964844 12.570312 9.964844 C 11.136719 9.964844 9.976562 11.125 9.976562 12.558594 Z M 23.066406 11.617188 L 20.066406 8.628906 C 19.601562 8.167969 18.851562 8.167969 18.390625 8.632812 C 18.164062 8.855469 18.039062 9.15625 18.039062 9.46875 C 18.039062 9.785156 18.164062 10.085938 18.390625 10.308594 L 20.414062 12.332031 C 20.542969 12.457031 20.542969 12.65625 20.414062 12.78125 L 18.417969 14.777344 C 18.195312 15 18.070312 15.300781 18.070312 15.617188 C 18.070312 15.929688 18.195312 16.230469 18.417969 16.453125 C 18.882812 16.914062 19.632812 16.914062 20.09375 16.453125 L 23.070312 13.480469 C 23.316406 13.234375 23.457031 12.898438 23.453125 12.546875 C 23.453125 12.199219 23.316406 11.863281 23.066406 11.617188 Z M 23.066406 11.617188 "/>
</g>
</svg>
