<?xml version="1.0" encoding="UTF-8"?>
<svg xmlns="http://www.w3.org/2000/svg" xmlns:xlink="http://www.w3.org/1999/xlink" width="25px" height="25px" viewBox="0 0 25 25" version="1.1">
<g id="surface1">
<path style=" stroke:none;fill-rule:nonzero;fill-opacity:1;" d="M 7.046875 12.011719 C 7.046875 12.320312 7.078125 12.570312 7.136719 12.753906 C 7.203125 12.9375 7.289062 13.136719 7.402344 13.351562 C 7.460938 13.628906 7.410156 13.710938 7.304688 13.796875 L 6.78125 14.144531 C 6.480469 14.21875 6.398438 14.179688 6.3125 14.105469 C 6.203125 13.984375 6.101562 13.851562 6.015625 13.710938 C 5.921875 13.550781 5.835938 13.386719 5.757812 13.21875 C 5.109375 13.988281 4.292969 14.371094 3.3125 14.371094 C 2.613281 14.371094 2.054688 14.171875 1.648438 13.769531 C 1.242188 13.371094 1.035156 12.835938 1.035156 12.167969 C 1.035156 11.460938 1.285156 10.882812 1.789062 10.449219 C 2.296875 10.015625 2.972656 9.800781 3.828125 9.800781 C 4.109375 9.800781 4.402344 9.824219 4.710938 9.867188 C 5.015625 9.90625 5.335938 9.976562 5.664062 10.050781 L 5.664062 9.441406 C 5.664062 8.804688 5.53125 8.363281 5.273438 8.105469 C 5.007812 7.847656 4.558594 7.722656 3.917969 7.722656 C 3.628906 7.722656 3.328125 7.757812 3.023438 7.832031 C 2.714844 7.902344 2.414062 8 2.125 8.113281 C 2.027344 8.15625 1.933594 8.191406 1.832031 8.222656 C 1.582031 8.25 1.523438 8.164062 1.523438 7.988281 L 1.523438 7.578125 C 1.523438 7.445312 1.539062 7.34375 1.582031 7.289062 C 2.105469 6.960938 2.457031 6.835938 2.863281 6.738281 C 3.269531 6.628906 3.703125 6.578125 4.160156 6.578125 C 5.148438 6.578125 5.875 6.804688 6.339844 7.253906 C 6.796875 7.703125 7.03125 8.390625 7.03125 9.308594 L 7.03125 12.011719 Z M 3.671875 13.277344 C 3.945312 13.277344 4.226562 13.226562 4.527344 13.128906 C 4.828125 13.027344 5.09375 12.84375 5.316406 12.59375 C 5.449219 12.441406 5.546875 12.257812 5.597656 12.0625 C 5.648438 11.859375 5.683594 11.617188 5.683594 11.335938 L 5.683594 10.984375 C 5.429688 10.921875 5.175781 10.875 4.917969 10.84375 C 4.65625 10.808594 4.398438 10.792969 4.136719 10.792969 C 3.578125 10.792969 3.171875 10.902344 2.898438 11.125 C 2.621094 11.351562 2.492188 11.667969 2.492188 12.085938 C 2.492188 12.476562 2.589844 12.769531 2.796875 12.96875 C 2.996094 13.179688 3.289062 13.277344 3.671875 13.277344 Z M 10.347656 14.179688 C 10.195312 14.179688 10.097656 14.15625 10.03125 14.09375 C 9.964844 14.046875 9.90625 13.929688 9.855469 13.769531 L 7.902344 7.320312 C 7.863281 7.214844 7.839844 7.101562 7.828125 6.988281 C 7.828125 6.855469 7.894531 6.78125 8.027344 6.78125 L 8.84375 6.78125 C 9 6.78125 9.109375 6.804688 9.164062 6.863281 C 9.234375 6.914062 9.28125 7.03125 9.332031 7.1875 L 10.730469 12.710938 L 12.027344 7.1875 C 12.066406 7.023438 12.117188 6.914062 12.183594 6.863281 L 13.183594 6.78125 C 13.339844 6.78125 13.449219 6.804688 13.515625 6.863281 C 13.582031 6.914062 13.640625 7.03125 13.671875 7.1875 L 14.984375 12.777344 L 16.421875 7.1875 L 17.6875 6.78125 C 17.820312 6.78125 17.898438 6.847656 17.898438 6.988281 C 17.898438 7.03125 17.886719 7.070312 17.882812 7.121094 L 15.816406 13.777344 C 15.769531 13.945312 15.710938 14.054688 15.644531 14.105469 L 14.613281 14.1875 C 14.453125 14.1875 14.347656 14.164062 14.28125 14.105469 C 14.210938 14.046875 14.15625 13.9375 14.121094 13.769531 L 12.832031 8.390625 L 11.550781 13.765625 C 11.511719 13.929688 11.460938 14.039062 11.394531 14.097656 C 11.328125 14.15625 11.210938 14.179688 11.0625 14.179688 Z M 21.03125 14.40625 C 20.601562 14.40625 20.167969 14.355469 19.75 14.253906 C 19.335938 14.15625 19.011719 14.046875 18.792969 13.921875 C 18.660156 13.84375 18.570312 13.761719 18.535156 13.6875 L 18.488281 13.027344 C 18.488281 12.851562 18.554688 12.769531 18.679688 12.769531 C 18.878906 12.8125 18.953125 12.84375 19.035156 12.878906 C 19.316406 13.003906 19.625 13.101562 19.949219 13.171875 C 20.28125 13.234375 20.605469 13.269531 20.9375 13.269531 C 21.464844 13.269531 21.871094 13.179688 22.152344 12.996094 C 22.429688 12.828125 22.59375 12.523438 22.585938 12.203125 C 22.589844 11.984375 22.511719 11.773438 22.359375 11.617188 C 22.210938 11.460938 21.929688 11.316406 21.523438 11.183594 L 20.316406 10.808594 C 19.710938 10.617188 19.257812 10.332031 18.984375 9.957031 C 18.71875 9.609375 18.570312 9.1875 18.570312 8.75 C 18.570312 8.398438 18.644531 8.089844 18.792969 7.820312 C 18.945312 7.554688 19.144531 7.320312 19.394531 7.136719 C 19.644531 6.945312 19.925781 6.804688 20.257812 6.703125 C 20.589844 6.605469 20.9375 6.5625 21.304688 6.5625 C 21.488281 6.5625 21.679688 6.570312 21.863281 6.59375 C 22.054688 6.621094 22.226562 6.65625 22.402344 6.6875 C 22.570312 6.730469 22.726562 6.769531 22.875 6.820312 C 23.027344 6.871094 23.140625 6.921875 23.226562 6.972656 L 23.550781 7.847656 C 23.550781 8.023438 23.484375 8.113281 23.359375 8.113281 C 22.542969 7.792969 21.996094 7.679688 21.445312 7.6875 C 20.972656 7.6875 20.597656 7.765625 20.339844 7.921875 C 20.082031 8.078125 19.949219 8.324219 19.949219 8.664062 C 19.949219 8.898438 20.03125 9.097656 20.199219 9.257812 C 20.367188 9.414062 20.671875 9.574219 21.113281 9.714844 L 22.296875 10.089844 C 22.894531 10.28125 23.328125 10.550781 23.585938 10.890625 C 23.84375 11.234375 23.964844 11.625 23.964844 12.0625 C 23.964844 12.421875 23.890625 12.742188 23.75 13.027344 C 23.601562 13.3125 23.394531 13.5625 23.144531 13.761719 C 22.886719 13.96875 22.578125 14.121094 22.21875 14.230469 C 21.84375 14.347656 21.453125 14.40625 21.03125 14.40625 Z M 21.03125 14.40625 "/>
<path style=" stroke:none;fill-rule:evenodd;fill-opacity:1;" d="M 22.601562 18.457031 C 19.867188 20.484375 15.890625 21.5625 12.476562 21.5625 C 7.6875 21.5625 3.371094 19.785156 0.109375 16.832031 C -0.148438 16.597656 0.0859375 16.28125 0.390625 16.464844 C 3.917969 18.515625 8.265625 19.757812 12.765625 19.757812 C 15.800781 19.757812 19.132812 19.125 22.203125 17.824219 C 22.660156 17.617188 23.050781 18.125 22.601562 18.457031 Z M 22.601562 18.457031 "/>
<path style=" stroke:none;fill-rule:evenodd;fill-opacity:1;" d="M 23.742188 17.15625 C 23.390625 16.707031 21.429688 16.941406 20.539062 17.046875 C 20.273438 17.082031 20.234375 16.847656 20.472656 16.671875 C 22.035156 15.570312 24.605469 15.890625 24.90625 16.257812 C 25.203125 16.632812 24.820312 19.210938 23.359375 20.445312 C 23.132812 20.636719 22.917969 20.539062 23.019531 20.289062 C 23.351562 19.460938 24.089844 17.601562 23.742188 17.15625 Z M 23.742188 17.15625 "/>
</g>
</svg>
