<?xml version="1.0" encoding="utf-8"?>
<svg xmlns="http://www.w3.org/2000/svg" width="25px" height="25px" viewBox="0 0 25 25">
  <g id="surface1" transform="matrix(1, 0, 0, 1, -70.936182, 0.21175)">
    <path style=" stroke:none;fill-rule:nonzero;fill-opacity:1;" d="M 82.875 3.261719 L 76.710938 8.308594 L 80.734375 8.308594 L 80.734375 24.714844 L 82.875 22.984375 Z M 82.875 3.261719 "/>
    <path style=" stroke:none;fill-rule:nonzero;fill-opacity:1;" d="M 84.648438 21.519531 L 90.921875 16.34375 L 86.785156 16.34375 L 86.785156 0.3125 L 84.648438 1.804688 Z M 84.648438 21.519531 "/>
    <path style=" stroke:none;fill-rule:nonzero;fill-opacity:1;" d="M 162.289062 6.207031 C 163 6.578125 163.511719 6.894531 163.824219 7.152344 L 166.039062 2.90625 C 164.929688 2.222656 163.59375 1.609375 162.03125 1.066406 C 160.496094 0.523438 158.832031 0.25 157.042969 0.25 C 155.335938 0.25 153.761719 0.535156 152.308594 1.109375 C 150.890625 1.679688 149.75 2.523438 148.898438 3.636719 C 148.074219 4.75 147.664062 6.136719 147.664062 7.792969 C 147.664062 9.652344 148.246094 11.078125 149.410156 12.078125 C 150.605469 13.050781 152.425781 13.851562 154.867188 14.480469 C 156.828125 14.992188 158.40625 15.464844 159.601562 15.894531 C 160.824219 16.292969 161.433594 16.964844 161.433594 17.90625 C 161.433594 19.308594 160.128906 20.007812 157.511719 20.007812 C 156.203125 20.007812 154.96875 19.851562 153.800781 19.535156 C 152.636719 19.222656 151.613281 18.835938 150.734375 18.378906 C 149.878906 17.921875 149.269531 17.507812 148.898438 17.136719 L 146.597656 21.636719 C 148.074219 22.578125 149.765625 23.324219 151.671875 23.863281 C 153.574219 24.40625 155.492188 24.679688 157.425781 24.679688 C 159.105469 24.679688 160.667969 24.449219 162.117188 23.992188 C 163.566406 23.507812 164.730469 22.738281 165.613281 21.679688 C 166.523438 20.59375 166.976562 19.164062 166.976562 17.394531 C 166.976562 15.9375 166.636719 14.765625 165.953125 13.878906 C 165.300781 12.964844 164.347656 12.238281 163.097656 11.695312 C 161.875 11.152344 160.425781 10.664062 158.75 10.238281 C 156.84375 9.78125 155.394531 9.363281 154.398438 8.992188 C 153.433594 8.621094 152.949219 7.992188 152.949219 7.109375 C 152.949219 5.59375 154.285156 4.835938 156.957031 4.835938 C 157.953125 4.835938 158.917969 4.980469 159.855469 5.265625 C 160.796875 5.523438 161.605469 5.835938 162.289062 6.207031 Z M 162.289062 6.207031 "/>
    <path style=" stroke:none;fill-rule:evenodd;fill-opacity:1;" d="M 117.417969 24.550781 C 115.539062 24.550781 113.835938 24.222656 112.300781 23.566406 C 110.765625 22.878906 109.441406 21.964844 108.335938 20.824219 C 107.226562 19.652344 106.371094 18.335938 105.777344 16.878906 C 105.179688 15.421875 104.878906 13.921875 104.878906 12.378906 C 104.878906 10.808594 105.191406 9.292969 105.820312 7.835938 C 106.445312 6.378906 107.324219 5.09375 108.464844 3.980469 C 109.601562 2.835938 110.933594 1.9375 112.46875 1.28125 C 114.003906 0.621094 115.683594 0.292969 117.5 0.292969 C 119.378906 0.292969 121.082031 0.652344 122.617188 1.363281 C 124.152344 2.050781 125.460938 2.980469 126.542969 4.152344 C 127.648438 5.292969 128.503906 6.59375 129.097656 8.050781 C 129.695312 9.507812 129.996094 10.992188 129.996094 12.507812 C 129.996094 14.078125 129.683594 15.59375 129.058594 17.050781 C 128.433594 18.480469 127.550781 19.765625 126.414062 20.90625 C 125.304688 22.023438 123.984375 22.90625 122.449219 23.566406 C 120.914062 24.222656 119.234375 24.550781 117.417969 24.550781 Z M 110.082031 12.421875 C 110.082031 13.707031 110.382812 14.9375 110.980469 16.109375 C 111.574219 17.25 112.414062 18.179688 113.492188 18.894531 C 114.601562 19.609375 115.921875 19.964844 117.457031 19.964844 C 119.023438 19.964844 120.34375 19.59375 121.425781 18.851562 C 122.503906 18.078125 123.328125 17.121094 123.898438 15.980469 C 124.464844 14.808594 124.75 13.609375 124.75 12.378906 C 124.75 11.09375 124.453125 9.878906 123.855469 8.738281 C 123.257812 7.59375 122.40625 6.679688 121.296875 5.992188 C 120.214844 5.28125 118.921875 4.921875 117.417969 4.921875 C 115.855469 4.921875 114.515625 5.292969 113.40625 6.035156 C 112.328125 6.78125 111.503906 7.722656 110.933594 8.863281 C 110.367188 10.007812 110.082031 11.195312 110.082031 12.421875 Z M 110.082031 12.421875 "/>
    <path style=" stroke:none;fill-rule:evenodd;fill-opacity:1;" d="M 0 24.378906 L 10.402344 0.421875 L 14.625 0.421875 L 24.984375 24.378906 L 19.527344 24.378906 L 17.140625 18.765625 L 7.886719 18.765625 L 5.5 24.378906 Z M 12.535156 6.722656 L 9.039062 14.265625 L 15.902344 14.265625 Z M 12.535156 6.722656 "/>
    <path style=" stroke:none;fill-rule:nonzero;fill-opacity:1;" d="M 45.144531 0.421875 L 51.710938 8.90625 L 58.277344 0.421875 L 63.863281 0.421875 L 54.4375 12.550781 L 63.5625 24.378906 L 57.976562 24.378906 L 51.710938 16.238281 L 45.484375 24.378906 L 39.816406 24.378906 L 48.980469 12.550781 L 39.515625 0.421875 Z M 45.144531 0.421875 "/>
  </g>
</svg>