<?xml version="1.0" encoding="UTF-8"?>
<svg xmlns="http://www.w3.org/2000/svg" xmlns:xlink="http://www.w3.org/1999/xlink" width="25px" height="25px" viewBox="0 0 25 25" version="1.1">
<g id="surface1">
<path style=" stroke:none;fill-rule:nonzero;fill-opacity:1;" d="M 3.925781 5.851562 C 3.886719 4.628906 4.8125 3.5 6.070312 3.5 L 18.933594 3.5 C 20.1875 3.5 21.117188 4.628906 21.074219 5.851562 C 21.035156 7.027344 21.085938 8.550781 21.460938 9.792969 C 21.835938 11.039062 22.464844 11.824219 23.5 11.925781 L 23.5 13.074219 C 22.464844 13.175781 21.835938 13.960938 21.460938 15.207031 C 21.085938 16.449219 21.035156 17.972656 21.074219 19.148438 C 21.117188 20.371094 20.1875 21.5 18.933594 21.5 L 6.070312 21.5 C 4.8125 21.5 3.886719 20.371094 3.925781 19.148438 C 3.96875 17.972656 3.914062 16.449219 3.542969 15.207031 C 3.167969 13.960938 2.535156 13.175781 1.5 13.074219 L 1.5 11.925781 C 2.535156 11.824219 3.167969 11.039062 3.542969 9.792969 C 3.914062 8.550781 3.96875 7.027344 3.925781 5.851562 Z M 3.925781 5.851562 "/>
<path style=" stroke:none;fill-rule:nonzero;fill:rgb(100%,100%,100%);fill-opacity:1;" d="M 13.894531 12.226562 L 13.894531 12.210938 C 14.851562 12.046875 15.597656 11.152344 15.597656 10.164062 C 15.597656 9.464844 15.328125 8.875 14.820312 8.457031 C 14.316406 8.039062 13.605469 7.816406 12.769531 7.816406 L 8.933594 7.816406 L 8.933594 17.183594 L 12.789062 17.183594 C 13.789062 17.183594 14.621094 16.9375 15.191406 16.476562 C 15.765625 16.011719 16.066406 15.335938 16.066406 14.523438 C 16.066406 13.296875 15.195312 12.375 13.894531 12.226562 Z M 12.097656 11.785156 L 10.460938 11.785156 L 10.460938 9.042969 L 12.410156 9.042969 C 13.480469 9.042969 14.070312 9.511719 14.070312 10.363281 C 14.070312 11.28125 13.371094 11.785156 12.097656 11.785156 Z M 10.460938 12.933594 L 12.398438 12.933594 C 13.796875 12.933594 14.507812 13.4375 14.507812 14.433594 C 14.507812 15.433594 13.808594 15.957031 12.484375 15.957031 L 10.460938 15.957031 Z M 10.460938 12.933594 "/>
</g>
</svg>
