<?xml version="1.0" encoding="utf-8"?>
<svg xmlns="http://www.w3.org/2000/svg" width="45" height="25" viewBox="0 0 45 25" version="1.1">
  <path d="M 36.351 13.033 C 36.351 11.104 37.573 9.748 39.311 9.748 C 41.05 9.748 42.291 11.103 42.291 13.033 C 42.291 14.962 41.05 16.24 39.311 16.24 C 37.573 16.24 36.351 14.903 36.351 13.033 Z M 34.536 13.033 C 34.536 15.878 36.522 17.883 39.311 17.883 C 42.1 17.883 44.105 15.878 44.105 13.033 C 44.105 10.188 42.119 8.106 39.311 8.106 C 36.503 8.106 34.536 10.15 34.536 13.033 Z M 25.272 8.22 L 29.016 17.768 L 30.773 17.768 L 34.518 8.22 L 32.626 8.22 L 29.914 15.591 L 29.876 15.591 L 27.163 8.22 L 25.272 8.22 Z M 17.995 12.689 C 18.11 10.932 19.275 9.748 20.86 9.748 C 22.235 9.748 23.267 10.627 23.42 11.944 L 20.249 11.944 C 19.122 11.944 18.51 12.078 18.053 12.689 L 17.995 12.689 Z M 16.181 12.975 C 16.181 15.821 18.186 17.882 20.956 17.882 C 22.827 17.882 24.47 16.927 25.176 15.419 L 23.648 14.655 C 23.114 15.647 22.083 16.24 20.956 16.24 C 19.599 16.24 18.377 15.208 18.377 14.215 C 18.377 13.7 18.721 13.47 19.217 13.47 L 25.271 13.47 L 25.271 12.955 C 25.271 10.091 23.437 8.105 20.803 8.105 C 18.167 8.105 16.181 10.148 16.181 12.975 M 10.985 17.767 L 12.705 17.767 L 12.705 11.906 C 12.705 10.646 13.487 9.747 14.576 9.747 C 15.035 9.747 15.512 9.901 15.741 10.11 C 15.914 9.651 16.182 9.194 16.582 8.735 C 16.123 8.354 15.34 8.106 14.576 8.106 C 12.476 8.106 10.985 9.671 10.985 11.905 L 10.985 17.767 Z M 2.677 11.448 L 2.677 6.788 L 5.504 6.788 C 6.459 6.788 7.089 7.342 7.089 8.183 C 7.089 9.136 6.268 9.862 4.588 10.415 C 3.442 10.779 2.926 11.084 2.735 11.448 L 2.677 11.448 Z M 2.677 16.126 L 2.677 14.178 C 2.677 13.319 3.403 12.48 4.416 12.155 C 5.313 11.849 6.057 11.543 6.688 11.219 C 7.529 11.716 8.044 12.575 8.044 13.471 C 8.044 14.999 6.593 16.126 4.625 16.126 L 2.677 16.126 Z M 0.958 17.768 L 4.778 17.768 C 7.681 17.768 9.858 15.953 9.858 13.548 C 9.858 12.23 9.19 11.048 8.006 10.283 C 8.616 9.672 8.903 8.965 8.903 8.106 C 8.903 6.33 7.624 5.146 5.695 5.146 L 0.958 5.146 L 0.958 17.768 Z" style=""/>
</svg>