<?xml version="1.0" encoding="UTF-8"?>
<svg xmlns="http://www.w3.org/2000/svg" xmlns:xlink="http://www.w3.org/1999/xlink" width="25px" height="25px" viewBox="0 0 25 25" version="1.1">
<g id="surface1">
<path style=" stroke:none;fill-rule:nonzero;fill-opacity:1;" d="M 21.351562 20.078125 C 21.03125 20.078125 20.734375 19.878906 20.628906 19.558594 C 20.5 19.160156 20.71875 18.734375 21.113281 18.601562 C 22.554688 18.132812 23.484375 16.871094 23.484375 15.386719 C 23.484375 13.507812 21.957031 11.980469 20.082031 11.980469 C 19.949219 11.980469 19.808594 11.992188 19.640625 12.015625 L 18.898438 12.109375 L 18.792969 11.371094 C 18.335938 8.203125 15.578125 5.8125 12.371094 5.8125 C 9.71875 5.8125 7.359375 7.398438 6.359375 9.855469 L 6.167969 10.316406 L 5.671875 10.324219 C 3.378906 10.367188 1.515625 12.265625 1.515625 14.554688 C 1.515625 16.230469 2.484375 17.753906 3.988281 18.441406 C 4.367188 18.617188 4.535156 19.066406 4.359375 19.445312 C 4.1875 19.824219 3.738281 19.992188 3.359375 19.816406 C 1.316406 18.882812 0 16.820312 0 14.554688 C 0 11.613281 2.269531 9.144531 5.152344 8.839844 C 6.480469 6.066406 9.261719 4.296875 12.371094 4.296875 C 16.089844 4.296875 19.324219 6.90625 20.160156 10.46875 C 22.835938 10.511719 25 12.703125 25 15.386719 C 25 17.503906 23.628906 19.375 21.585938 20.042969 C 21.507812 20.066406 21.429688 20.078125 21.351562 20.078125 Z M 21.351562 20.078125 "/>
<path style=" stroke:none;fill-rule:nonzero;fill-opacity:1;" d="M 9.765625 20.40625 C 9.765625 20.40625 9.765625 20.40625 9.761719 20.40625 L 9.761719 20.402344 C 9.761719 20.402344 9.757812 20.402344 9.757812 20.402344 C 9.746094 20.398438 9.734375 20.394531 9.71875 20.394531 L 9.714844 20.394531 C 9.386719 20.394531 9.121094 20.128906 9.117188 19.800781 L 9.117188 13.148438 L 9.628906 13.148438 C 9.703125 13.152344 9.757812 13.09375 9.757812 13.019531 C 9.757812 12.96875 9.726562 12.921875 9.679688 12.902344 L 7.230469 11.214844 C 7.1875 11.183594 7.128906 11.183594 7.085938 11.214844 L 4.621094 12.914062 C 4.574219 12.945312 4.554688 13.003906 4.570312 13.058594 C 4.585938 13.113281 4.636719 13.148438 4.691406 13.148438 L 5.203125 13.148438 L 5.203125 19.804688 C 5.207031 20.265625 5.574219 20.640625 6.046875 20.652344 C 6.050781 20.652344 6.054688 20.652344 6.0625 20.652344 L 9.714844 20.652344 C 9.75 20.652344 9.78125 20.636719 9.804688 20.617188 C 9.804688 20.617188 9.804688 20.617188 9.804688 20.613281 C 9.804688 20.613281 9.804688 20.613281 9.808594 20.613281 C 9.828125 20.589844 9.84375 20.558594 9.84375 20.523438 C 9.84375 20.472656 9.8125 20.425781 9.765625 20.40625 Z M 9.765625 20.40625 "/>
<path style=" stroke:none;fill-rule:nonzero;fill-opacity:1;" d="M 15.050781 20.40625 C 15.050781 20.40625 15.050781 20.40625 15.046875 20.40625 L 15.046875 20.402344 C 15.046875 20.402344 15.042969 20.402344 15.042969 20.402344 C 15.039062 20.402344 15.042969 20.402344 15.042969 20.402344 C 15.042969 20.402344 15.039062 20.402344 15.039062 20.402344 C 15.027344 20.398438 15.015625 20.394531 15.003906 20.394531 L 14.996094 20.394531 C 14.671875 20.394531 14.402344 20.128906 14.402344 19.800781 L 14.402344 14.636719 L 14.910156 14.636719 C 14.910156 14.636719 14.914062 14.636719 14.914062 14.636719 C 14.984375 14.636719 15.042969 14.582031 15.042969 14.511719 C 15.042969 14.457031 15.011719 14.410156 14.964844 14.390625 L 12.515625 12.703125 C 12.472656 12.671875 12.414062 12.671875 12.371094 12.703125 L 9.90625 14.40625 C 9.859375 14.4375 9.839844 14.496094 9.859375 14.546875 C 9.875 14.601562 9.921875 14.636719 9.980469 14.636719 L 10.488281 14.636719 L 10.488281 19.804688 C 10.488281 20.265625 10.859375 20.640625 11.332031 20.652344 C 11.335938 20.652344 11.339844 20.652344 11.347656 20.652344 L 15 20.652344 C 15.035156 20.652344 15.066406 20.636719 15.085938 20.617188 C 15.085938 20.617188 15.089844 20.617188 15.089844 20.617188 C 15.089844 20.613281 15.089844 20.613281 15.089844 20.613281 C 15.113281 20.589844 15.125 20.558594 15.128906 20.523438 C 15.125 20.472656 15.09375 20.425781 15.050781 20.40625 Z M 15.050781 20.40625 "/>
<path style=" stroke:none;fill-rule:nonzero;fill-opacity:1;" d="M 20.347656 20.40625 C 20.347656 20.40625 20.347656 20.40625 20.34375 20.40625 C 20.347656 20.40625 20.34375 20.40625 20.34375 20.40625 L 20.34375 20.402344 C 20.339844 20.402344 20.339844 20.402344 20.339844 20.402344 C 20.328125 20.398438 20.3125 20.394531 20.300781 20.394531 L 20.296875 20.394531 C 19.96875 20.394531 19.703125 20.128906 19.699219 19.800781 L 19.699219 16.128906 L 20.210938 16.128906 C 20.28125 16.125 20.339844 16.070312 20.339844 16 C 20.339844 15.945312 20.308594 15.902344 20.261719 15.882812 L 17.816406 14.191406 C 17.769531 14.164062 17.714844 14.164062 17.667969 14.191406 L 15.203125 15.894531 C 15.15625 15.925781 15.136719 15.984375 15.152344 16.039062 C 15.171875 16.089844 15.21875 16.128906 15.277344 16.128906 L 15.785156 16.128906 L 15.785156 19.804688 C 15.789062 20.265625 16.15625 20.640625 16.628906 20.652344 C 16.632812 20.652344 16.636719 20.652344 16.644531 20.652344 L 20.296875 20.652344 C 20.332031 20.652344 20.363281 20.636719 20.382812 20.617188 C 20.386719 20.617188 20.386719 20.617188 20.386719 20.617188 C 20.386719 20.613281 20.386719 20.613281 20.386719 20.613281 C 20.410156 20.589844 20.425781 20.558594 20.425781 20.523438 C 20.421875 20.472656 20.394531 20.425781 20.347656 20.40625 Z M 20.347656 20.40625 "/>
</g>
</svg>
