<?xml version="1.0" encoding="UTF-8"?>
<svg xmlns="http://www.w3.org/2000/svg" xmlns:xlink="http://www.w3.org/1999/xlink" width="25px" height="25px" viewBox="0 0 25 25" version="1.1">
<g id="surface1">
<path style=" stroke:none;fill-rule:nonzero;fill-opacity:1;" d="M 18.476562 0 L 9.527344 0 L 9.070312 0.453125 L 2.785156 6.742188 L 2.328125 7.199219 L 2.328125 20.804688 C 2.328125 23.117188 4.210938 25 6.523438 25 L 18.476562 25 C 20.789062 25 22.671875 23.117188 22.671875 20.804688 L 22.671875 4.195312 C 22.671875 1.882812 20.789062 0 18.476562 0 Z M 21.117188 20.804688 C 21.117188 22.265625 19.9375 23.445312 18.476562 23.445312 L 6.523438 23.445312 C 5.0625 23.445312 3.882812 22.265625 3.882812 20.804688 L 3.882812 7.839844 L 7.96875 7.839844 C 9.183594 7.839844 10.171875 6.855469 10.171875 5.640625 L 10.171875 1.554688 L 18.476562 1.554688 C 19.9375 1.554688 21.117188 2.734375 21.117188 4.195312 Z M 21.117188 20.804688 "/>
<path style=" stroke:none;fill-rule:nonzero;fill-opacity:1;" d="M 8.28125 13.132812 C 8.566406 13.132812 8.722656 13.238281 8.890625 13.464844 C 9.023438 13.648438 9.15625 13.714844 9.320312 13.714844 C 9.566406 13.714844 9.765625 13.535156 9.765625 13.277344 C 9.765625 13.171875 9.730469 13.078125 9.679688 12.988281 C 9.453125 12.582031 8.957031 12.269531 8.28125 12.269531 C 7.492188 12.269531 6.90625 12.640625 6.667969 13.378906 C 6.574219 13.675781 6.542969 13.910156 6.542969 14.597656 C 6.542969 15.289062 6.574219 15.519531 6.667969 15.816406 C 6.90625 16.554688 7.492188 16.925781 8.28125 16.925781 C 8.957031 16.925781 9.453125 16.613281 9.679688 16.210938 C 9.730469 16.117188 9.765625 16.023438 9.765625 15.917969 C 9.765625 15.660156 9.566406 15.480469 9.320312 15.480469 C 9.15625 15.480469 9.023438 15.546875 8.890625 15.730469 C 8.722656 15.957031 8.566406 16.0625 8.28125 16.0625 C 7.914062 16.0625 7.703125 15.871094 7.605469 15.566406 C 7.550781 15.402344 7.53125 15.242188 7.53125 14.597656 C 7.53125 13.953125 7.550781 13.796875 7.605469 13.628906 C 7.703125 13.324219 7.914062 13.132812 8.28125 13.132812 Z M 8.28125 13.132812 "/>
<path style=" stroke:none;fill-rule:nonzero;fill-opacity:1;" d="M 12.457031 14.140625 L 12.21875 14.105469 C 11.695312 14.035156 11.515625 13.863281 11.515625 13.609375 C 11.515625 13.324219 11.730469 13.125 12.128906 13.125 C 12.40625 13.125 12.683594 13.207031 12.902344 13.3125 C 12.996094 13.359375 13.09375 13.382812 13.1875 13.382812 C 13.425781 13.382812 13.613281 13.207031 13.613281 12.960938 C 13.613281 12.800781 13.539062 12.667969 13.378906 12.566406 C 13.113281 12.402344 12.617188 12.269531 12.121094 12.269531 C 11.144531 12.269531 10.523438 12.820312 10.523438 13.648438 C 10.523438 14.445312 11.027344 14.875 11.949219 15.003906 L 12.1875 15.035156 C 12.722656 15.109375 12.882812 15.273438 12.882812 15.539062 C 12.882812 15.851562 12.625 16.070312 12.148438 16.070312 C 11.816406 16.070312 11.550781 15.984375 11.179688 15.777344 C 11.097656 15.730469 11 15.699219 10.894531 15.699219 C 10.640625 15.699219 10.457031 15.890625 10.457031 16.128906 C 10.457031 16.289062 10.535156 16.441406 10.6875 16.542969 C 10.984375 16.726562 11.46875 16.925781 12.105469 16.925781 C 13.28125 16.925781 13.878906 16.320312 13.878906 15.507812 C 13.878906 14.691406 13.394531 14.273438 12.457031 14.140625 Z M 12.457031 14.140625 "/>
<path style=" stroke:none;fill-rule:nonzero;fill-opacity:1;" d="M 16.539062 14.140625 L 16.300781 14.105469 C 15.773438 14.035156 15.597656 13.863281 15.597656 13.609375 C 15.597656 13.324219 15.808594 13.125 16.207031 13.125 C 16.484375 13.125 16.761719 13.207031 16.980469 13.3125 C 17.074219 13.359375 17.175781 13.382812 17.265625 13.382812 C 17.507812 13.382812 17.691406 13.207031 17.691406 12.960938 C 17.691406 12.800781 17.617188 12.667969 17.460938 12.566406 C 17.195312 12.402344 16.695312 12.269531 16.199219 12.269531 C 15.226562 12.269531 14.601562 12.820312 14.601562 13.648438 C 14.601562 14.445312 15.105469 14.875 16.027344 15.003906 L 16.265625 15.035156 C 16.804688 15.109375 16.960938 15.273438 16.960938 15.539062 C 16.960938 15.851562 16.703125 16.070312 16.226562 16.070312 C 15.894531 16.070312 15.628906 15.984375 15.257812 15.777344 C 15.179688 15.730469 15.078125 15.699219 14.972656 15.699219 C 14.722656 15.699219 14.535156 15.890625 14.535156 16.128906 C 14.535156 16.289062 14.613281 16.441406 14.765625 16.542969 C 15.066406 16.726562 15.550781 16.925781 16.1875 16.925781 C 17.359375 16.925781 17.957031 16.320312 17.957031 15.507812 C 17.957031 14.691406 17.472656 14.273438 16.539062 14.140625 Z M 16.539062 14.140625 "/>
</g>
</svg>
