<?xml version="1.0" encoding="UTF-8"?>
<svg xmlns="http://www.w3.org/2000/svg" xmlns:xlink="http://www.w3.org/1999/xlink" width="25px" height="25px" viewBox="0 0 25 25" version="1.1">
<g id="surface1">
<path style=" stroke:none;fill-rule:nonzero;fill-opacity:1;" d="M 12.496094 0 C 5.589844 0 0 5.589844 0 12.5 C -0.00390625 15.816406 1.3125 18.996094 3.660156 21.339844 C 6.003906 23.6875 9.183594 25.003906 12.5 25 C 19.410156 25 25 19.410156 25 12.5 C 25 5.589844 19.363281 0 12.496094 0 Z M 6.636719 15.183594 C 7.042969 15.726562 7.589844 15.957031 8.363281 15.957031 C 8.726562 15.957031 9.089844 15.910156 9.40625 15.773438 C 9.726562 15.636719 10.089844 15.453125 10.542969 15.183594 L 11.816406 17 C 10.773438 17.863281 9.589844 18.273438 8.226562 18.273438 C 7.132812 18.273438 6.226562 18.046875 5.410156 17.589844 C 4.613281 17.125 3.980469 16.425781 3.589844 15.589844 C 3.179688 14.726562 2.953125 13.726562 2.953125 12.542969 C 2.953125 11.410156 3.179688 10.363281 3.589844 9.5 C 3.976562 8.640625 4.609375 7.914062 5.410156 7.410156 C 6.179688 6.910156 7.136719 6.683594 8.179688 6.683594 C 8.910156 6.683594 9.589844 6.773438 10.136719 7 C 10.75 7.238281 11.316406 7.574219 11.816406 8 L 10.542969 9.726562 C 10.222656 9.488281 9.871094 9.289062 9.5 9.136719 C 9.183594 9 8.773438 8.953125 8.410156 8.953125 C 6.863281 8.953125 6.089844 10.136719 6.089844 12.542969 C 6.046875 13.773438 6.273438 14.636719 6.636719 15.179688 Z M 19.136719 18 C 18.679688 19.410156 18 20.457031 17.042969 21.226562 C 16.089844 22 14.816406 22.410156 13.226562 22.546875 L 12.910156 20.410156 C 13.953125 20.273438 14.726562 20.046875 15.226562 19.679688 C 15.40625 19.546875 15.773438 19.136719 15.773438 19.136719 L 12 7.046875 L 15.132812 7.046875 L 17.316406 16.089844 L 19.636719 7.046875 L 22.679688 7.046875 Z M 19.136719 18 "/>
</g>
</svg>
