<?xml version="1.0" encoding="UTF-8"?>
<svg xmlns="http://www.w3.org/2000/svg" xmlns:xlink="http://www.w3.org/1999/xlink" width="25px" height="25px" viewBox="0 0 25 25" version="1.1">
<g id="surface1">
<path style=" stroke:none;fill-rule:nonzero;fill-opacity:1;" d="M 0.00390625 10.425781 L 0.00390625 9.871094 L 0.1875 9.871094 C 0.746094 9.871094 1.304688 9.859375 1.863281 9.871094 C 2.539062 9.886719 3.140625 10.097656 3.621094 10.585938 C 3.976562 10.941406 4.160156 11.390625 4.246094 11.882812 C 4.355469 12.515625 4.328125 13.136719 4.054688 13.726562 C 3.683594 14.539062 3.019531 14.988281 2.144531 15.058594 C 1.449219 15.113281 0.746094 15.085938 0.0507812 15.09375 C 0.0351562 15.09375 0.0234375 15.082031 0 15.074219 L 0 11.167969 C 0.179688 11.167969 0.359375 11.164062 0.539062 11.175781 C 0.5625 11.179688 0.605469 11.257812 0.609375 11.304688 C 0.617188 11.515625 0.617188 11.738281 0.617188 11.957031 C 0.617188 12.753906 0.617188 13.546875 0.613281 14.34375 C 0.613281 14.503906 0.664062 14.546875 0.816406 14.542969 C 1.226562 14.527344 1.644531 14.546875 2.054688 14.507812 C 2.875 14.433594 3.359375 13.941406 3.578125 13.171875 C 3.738281 12.601562 3.714844 12.03125 3.476562 11.480469 C 3.183594 10.792969 2.621094 10.464844 1.894531 10.429688 C 1.328125 10.402344 0.757812 10.425781 0.1875 10.425781 C 0.132812 10.425781 0.0742188 10.425781 0.00390625 10.425781 Z M 0.00390625 10.425781 "/>
<path style=" stroke:none;fill-rule:nonzero;fill-opacity:1;" d="M 24.464844 10.90625 C 23.894531 10.445312 23.257812 10.304688 22.5625 10.433594 C 22.023438 10.535156 21.753906 10.945312 21.867188 11.472656 C 21.914062 11.679688 22.039062 11.828125 22.226562 11.894531 C 22.578125 12.015625 22.933594 12.105469 23.285156 12.21875 C 23.628906 12.328125 23.984375 12.421875 24.316406 12.570312 C 24.742188 12.757812 24.972656 13.113281 24.996094 13.582031 C 25.027344 14.125 24.84375 14.558594 24.367188 14.851562 C 24.101562 15.019531 23.808594 15.097656 23.5 15.125 C 22.632812 15.195312 21.824219 15.039062 21.113281 14.5 C 21.082031 14.472656 21.046875 14.445312 21.007812 14.40625 C 21.101562 14.238281 21.191406 14.078125 21.273438 13.925781 C 21.515625 14.066406 21.742188 14.226562 21.988281 14.335938 C 22.539062 14.585938 23.121094 14.660156 23.714844 14.503906 C 24.183594 14.375 24.402344 14.035156 24.304688 13.585938 C 24.253906 13.335938 24.082031 13.15625 23.851562 13.078125 C 23.441406 12.929688 23.015625 12.820312 22.597656 12.683594 C 22.324219 12.59375 22.042969 12.511719 21.785156 12.386719 C 21.324219 12.160156 21.144531 11.769531 21.203125 11.289062 C 21.304688 10.445312 21.71875 10.019531 22.558594 9.875 C 23.269531 9.757812 23.945312 9.867188 24.558594 10.273438 C 24.761719 10.40625 24.765625 10.40625 24.648438 10.613281 C 24.601562 10.699219 24.550781 10.78125 24.503906 10.867188 C 24.492188 10.882812 24.476562 10.890625 24.464844 10.90625 Z M 24.464844 10.90625 "/>
<path style=" stroke:none;fill-rule:nonzero;fill-opacity:1;" d="M 19.640625 9.867188 C 19.644531 9.941406 19.648438 9.992188 19.648438 10.042969 C 19.648438 11.042969 19.65625 12.042969 19.640625 13.039062 C 19.632812 13.476562 19.59375 13.917969 19.410156 14.328125 C 19.179688 14.851562 18.753906 15.109375 18.203125 15.15625 C 17.816406 15.1875 17.429688 15.167969 17.0625 15.011719 C 16.769531 14.890625 16.761719 14.882812 16.855469 14.578125 C 16.875 14.507812 16.902344 14.445312 16.933594 14.359375 C 17.261719 14.542969 17.59375 14.613281 17.953125 14.601562 C 18.449219 14.585938 18.761719 14.375 18.882812 13.898438 C 18.960938 13.589844 19.007812 13.265625 19.011719 12.949219 C 19.027344 11.988281 19.019531 11.027344 19.015625 10.0625 C 19.015625 9.914062 19.054688 9.84375 19.214844 9.859375 C 19.347656 9.878906 19.480469 9.867188 19.640625 9.867188 Z M 19.640625 9.867188 "/>
<path style=" stroke:none;fill-rule:nonzero;fill-opacity:1;" d="M 14.644531 9.871094 C 14.308594 10.429688 13.992188 10.960938 13.675781 11.488281 C 13.363281 12.011719 13.042969 12.535156 12.738281 13.0625 C 12.6875 13.148438 12.660156 13.253906 12.660156 13.351562 C 12.652344 13.875 12.652344 14.390625 12.660156 14.914062 C 12.660156 15.046875 12.621094 15.097656 12.484375 15.09375 C 12.335938 15.082031 12.1875 15.089844 12.023438 15.089844 L 12.023438 14.714844 C 12.023438 14.433594 12.042969 14.152344 12.023438 13.875 C 11.980469 13.414062 12.105469 13.011719 12.347656 12.617188 C 12.882812 11.742188 13.386719 10.847656 13.90625 9.964844 C 13.933594 9.925781 13.992188 9.871094 14.035156 9.871094 C 14.222656 9.863281 14.417969 9.871094 14.644531 9.871094 Z M 14.644531 9.871094 "/>
<path style=" stroke:none;fill-rule:nonzero;fill-opacity:1;" d="M 6.964844 13.554688 C 6.964844 13.503906 6.960938 13.492188 6.964844 13.484375 C 7.09375 13.058594 7.09375 13.058594 7.542969 13.058594 C 7.824219 13.058594 8.101562 13.054688 8.382812 13.054688 C 8.390625 13.054688 8.402344 13.042969 8.429688 13.03125 C 8.410156 12.96875 8.390625 12.90625 8.367188 12.839844 C 8.191406 12.394531 8.011719 11.945312 7.84375 11.496094 C 7.8125 11.40625 7.816406 11.292969 7.839844 11.203125 C 7.890625 11.019531 7.96875 10.84375 8.054688 10.625 C 8.667969 12.128906 9.269531 13.597656 9.878906 15.085938 C 9.664062 15.085938 9.472656 15.09375 9.28125 15.078125 C 9.234375 15.074219 9.175781 15 9.152344 14.945312 C 8.992188 14.5625 8.828125 14.183594 8.691406 13.796875 C 8.625 13.613281 8.535156 13.542969 8.332031 13.550781 C 7.9375 13.570312 7.539062 13.558594 7.140625 13.558594 C 7.085938 13.554688 7.027344 13.554688 6.964844 13.554688 Z M 6.964844 13.554688 "/>
<path style=" stroke:none;fill-rule:nonzero;fill-opacity:1;" d="M 7.742188 9.871094 C 7.570312 10.332031 7.410156 10.757812 7.242188 11.1875 C 6.753906 12.433594 6.265625 13.671875 5.785156 14.921875 C 5.730469 15.054688 5.660156 15.105469 5.523438 15.09375 C 5.382812 15.085938 5.246094 15.09375 5.078125 15.09375 C 5.164062 14.871094 5.246094 14.667969 5.324219 14.46875 C 5.933594 12.992188 6.542969 11.511719 7.140625 10.035156 C 7.191406 9.910156 7.246094 9.851562 7.382812 9.867188 C 7.492188 9.878906 7.597656 9.871094 7.742188 9.871094 Z M 7.742188 9.871094 "/>
<path style=" stroke:none;fill-rule:nonzero;fill-opacity:1;" d="M 11.652344 12.554688 C 11.109375 11.648438 10.585938 10.773438 10.046875 9.871094 C 10.277344 9.871094 10.472656 9.863281 10.671875 9.871094 C 10.710938 9.875 10.765625 9.921875 10.785156 9.960938 C 11.164062 10.609375 11.542969 11.257812 11.910156 11.914062 C 11.9375 11.960938 11.9375 12.046875 11.910156 12.101562 C 11.84375 12.246094 11.753906 12.378906 11.652344 12.554688 Z M 11.652344 12.554688 "/>
<path style=" stroke:none;fill-rule:nonzero;fill-opacity:1;" d="M 15.148438 14.6875 L 15.148438 14.636719 C 15.148438 14.265625 15.1875 14.230469 15.558594 14.296875 C 15.59375 14.300781 15.648438 14.359375 15.648438 14.390625 C 15.65625 14.589844 15.65625 14.789062 15.648438 14.988281 C 15.648438 15.019531 15.601562 15.078125 15.566406 15.082031 C 15.453125 15.09375 15.34375 15.09375 15.234375 15.082031 C 15.199219 15.078125 15.160156 15.015625 15.152344 14.976562 C 15.140625 14.878906 15.148438 14.777344 15.148438 14.6875 Z M 15.148438 14.6875 "/>
</g>
</svg>
