<?xml version="1.0" encoding="utf-8"?>
<svg xmlns="http://www.w3.org/2000/svg" width="45" height="25" viewBox="0 0 45 25">
  <g style="" transform="matrix(0.282791, 0, 0, 0.282791, 0.338445, 5.758366)">
    <path d="M37.6289 7.51283C37.7026 7.16923 37.8007 6.94834 38.1934 6.9238C39.8869 6.80108 41.5804 6.50657 43.2738 6.53111C45.36 6.55565 46.7589 8.00369 47.0289 10.2371C48.1088 8.00369 48.9433 5.6721 49.5568 3.26689C49.5323 3.24235 49.5078 3.2178 49.4587 3.2178C47.7897 2.08882 45.8754 1.76976 43.9119 1.69613C39.9114 1.52433 36.0336 2.28517 32.1804 3.34052C31.984 3.3896 31.7386 3.70866 31.6895 3.92955C31.3459 5.57393 25.3574 34.731 25.3574 34.731H29.8488C31.1005 34.731 32.2049 33.7739 32.4504 32.5222C32.4994 32.5222 37.359 8.96087 37.6289 7.51283Z"/>
    <path d="M52.8461 7.4375C49.2628 15.1686 43.2743 21.967 35.4941 25.5748C48.0847 29.1335 56.3803 16.8129 52.8461 7.4375Z"/>
    <path d="M20.0067 18.583C18.6077 21.4545 10.6067 21.43 7.73518 20.5955C9.55136 16.5214 14.2882 14.0916 18.6323 15.8587C19.9576 16.3987 20.5466 17.5031 20.0067 18.583ZM23.8354 13.5762C14.6809 4.78982 -0.928513 14.8279 1.57488 26.7804C3.12109 34.2169 11.2448 35.8613 17.7978 34.1187C21.9701 33.0143 21.4547 28.9892 21.4547 28.9892C16.2271 30.1918 6.31168 29.112 7.1216 25.1605C11.1467 26.2895 17.2579 26.5349 21.5529 24.3506C27.1487 21.4791 26.1915 16.2023 23.8354 13.5762Z"/>
    <path d="M73.9029 16.321C73.1176 20.0025 72.3813 23.684 71.5959 27.3409C71.5223 27.6599 71.3505 27.9544 71.1296 28.1508C69.2643 29.7952 67.1045 30.3351 64.6993 29.7706C60.0607 28.7153 60.8215 22.1868 62.4414 19.0453C63.9139 16.1738 67.2518 14.5785 70.6633 14.9957C74.0747 15.4866 74.0011 15.9038 73.9029 16.321ZM80.8977 12.0751C77.0199 10.8234 72.3567 10.2344 68.9698 10.2344C59.9625 10.2344 54.2685 18.2845 54.5385 25.3529C54.6367 28.0772 55.5693 34.2129 63.8158 34.9247C66.0983 35.121 68.3071 34.8265 70.2215 33.4275C70.246 33.4275 70.3687 33.3048 70.3442 33.4766C70.2706 33.8693 70.1233 34.7283 70.1233 34.7283C70.1233 34.7283 74.4183 34.7283 76.48 34.7283C76.8726 34.7283 76.9217 34.4583 76.9708 34.1884C78.4434 27.0709 79.916 19.9534 81.364 12.8114C81.4377 12.3942 81.3395 12.2224 80.8977 12.0751Z"/>
    <path d="M139.703 29.4092C134.745 28.4029 136.439 21.899 137.469 19.9601C139.973 15.3215 143.36 15.1251 145.299 15.4197C147.851 15.8123 149.299 17.6285 149.152 20.6964C148.931 25.335 145.47 30.5872 139.703 29.4092ZM155.239 18.8557C154.772 13.2353 150.281 10.2656 144.931 10.2656C133.665 10.2656 129.959 19.592 130.303 26.0959C130.622 32.3298 136.193 35.2259 141.764 34.7105C146.968 34.3914 150.87 32.0598 153.275 27.4457C154.674 24.746 155.558 21.9236 155.239 18.8557Z"/>
    <path d="M79.9414 45.2339L80.7759 41.1352C80.8986 40.6689 81.3649 40.3253 81.8558 40.3008C84.3837 40.2271 85.2427 39.7854 86.4944 38.4355C87.4516 37.2329 88.1879 36.2512 88.9978 35.1222C89.096 34.9749 89.1205 34.7049 89.0714 34.5086C87.697 27.6366 84.261 10.211 84.261 10.211C84.261 10.211 90.5195 10.1619 90.9121 12.6653C91.673 17.4512 93.4646 27.1212 93.5382 27.5138C93.7591 27.1457 99.6249 17.1321 102.374 12.3463C103.724 9.99012 108.853 10.2356 110.547 10.2356C105.491 18.6293 95.6735 34.8767 94.1518 37.4047C90.1758 43.9577 86.6662 45.283 83.0093 45.2339C82.0276 45.2339 79.9414 45.2339 79.9414 45.2339Z"/>
    <path d="M126.4 27.9795C126.057 29.6975 125.394 32.839 125.37 32.9372C125.345 33.109 125.247 33.3299 125.001 33.4035C121.615 34.6552 118.007 35.2442 114.718 34.0907C104.091 30.3602 106.938 13.3764 118.056 10.6767C123.504 9.35134 128.953 11.2657 129.223 11.3639C129.542 11.462 129.714 11.7811 129.665 12.0756C129.468 13.0083 128.855 16.0025 128.83 16.1252C125.762 15.1435 122.523 14.4317 119.381 15.5116C113.123 17.696 111.773 28.3476 117.982 29.5993C120.952 30.2129 123.676 29.1576 126.4 27.9795Z"/>
  </g>
</svg>