<?xml version="1.0" encoding="UTF-8"?>
<svg xmlns="http://www.w3.org/2000/svg" xmlns:xlink="http://www.w3.org/1999/xlink" width="45px" height="24px" viewBox="0 0 45 24" version="1.1">
<g id="surface1">
<path style=" stroke:none;fill-rule:nonzero;fill-opacity:1;" d="M 2.273438 2.351562 L 0 4.703125 L 0 23.230469 L 0.367188 23.601562 L 0.734375 23.96875 L 8.445312 23.96875 C 17.761719 23.96875 16.949219 24.171875 16.949219 21.804688 C 16.949219 20.050781 16.769531 19.597656 16.066406 19.597656 C 15.390625 19.597656 15.148438 20.003906 15.148438 21.160156 L 15.148438 22.160156 L 1.800781 22.160156 L 1.800781 6.480469 L 3.734375 6.480469 C 6.421875 6.480469 6.359375 6.542969 6.425781 3.859375 L 6.472656 1.808594 L 15.148438 1.808594 L 15.148438 5.199219 C 15.148438 8.992188 15.246094 9.355469 16.164062 9.121094 C 16.921875 8.933594 16.941406 8.804688 16.941406 4.566406 L 16.949219 0.625 L 16.550781 0.308594 C 16.171875 0.0078125 15.996094 0 10.351562 0 L 4.546875 0 Z M 4.621094 3.65625 L 4.574219 4.597656 L 3.636719 4.644531 C 2.488281 4.695312 2.488281 4.671875 3.554688 3.589844 C 4.628906 2.496094 4.671875 2.503906 4.621094 3.65625 Z M 4.621094 3.65625 "/>
<path style=" stroke:none;fill-rule:nonzero;fill-opacity:1;" d="M 4.238281 8.976562 C 3.878906 9.234375 3.808594 9.648438 4.058594 10.109375 C 4.199219 10.378906 4.394531 10.402344 7.050781 10.402344 L 9.890625 10.402344 L 10.148438 10.019531 C 10.378906 9.648438 10.378906 9.609375 10.09375 9.226562 L 9.796875 8.820312 L 7.183594 8.78125 C 5.003906 8.742188 4.523438 8.773438 4.238281 8.976562 Z M 4.238281 8.976562 "/>
<path style=" stroke:none;fill-rule:nonzero;fill-opacity:1;" d="M 11.648438 9.023438 C 11.203125 9.511719 11.378906 9.851562 13.191406 12.121094 L 14.992188 14.351562 L 13.191406 16.582031 C 11.257812 18.996094 11.085938 19.386719 11.78125 19.839844 C 12.367188 20.230469 12.667969 19.988281 14.324219 17.820312 C 16.050781 15.550781 15.9375 15.601562 16.738281 16.628906 C 19.453125 20.109375 19.507812 20.15625 20.152344 19.90625 C 21.136719 19.53125 20.941406 19.078125 18.546875 16.144531 L 17.078125 14.335938 L 18.886719 12.089844 C 20.730469 9.804688 20.910156 9.4375 20.421875 8.992188 C 19.800781 8.425781 19.453125 8.636719 18.050781 10.441406 C 17.332031 11.375 16.589844 12.324219 16.410156 12.550781 L 16.074219 12.964844 L 14.40625 10.855469 C 12.636719 8.601562 12.253906 8.34375 11.648438 9.023438 Z M 11.648438 9.023438 "/>
<path style=" stroke:none;fill-rule:nonzero;fill-opacity:1;" d="M 22.746094 9.023438 C 22.53125 9.265625 22.5 9.867188 22.5 14.433594 L 22.5 19.582031 L 22.828125 19.816406 C 23.289062 20.140625 23.503906 20.109375 23.933594 19.679688 L 24.300781 19.3125 L 24.300781 14.359375 C 24.300781 10.128906 24.269531 9.363281 24.066406 9.074219 C 23.773438 8.667969 23.09375 8.628906 22.746094 9.023438 Z M 22.746094 9.023438 "/>
<path style=" stroke:none;fill-rule:nonzero;fill-opacity:1;" d="M 27.148438 9.046875 C 26.863281 9.332031 26.851562 9.550781 26.851562 14.398438 C 26.851562 19.832031 26.878906 20.050781 27.683594 20.050781 C 28.433594 20.050781 28.648438 19.425781 28.648438 17.269531 L 28.648438 15.226562 L 30.960938 15.226562 C 33.539062 15.226562 33.710938 15.195312 33.914062 14.660156 C 34.265625 13.71875 33.886719 13.566406 31.125 13.566406 L 28.648438 13.566406 L 28.648438 10.402344 L 31.417969 10.402344 C 34.417969 10.402344 34.5 10.378906 34.5 9.511719 C 34.5 8.835938 34.058594 8.742188 30.644531 8.742188 C 27.652344 8.742188 27.425781 8.765625 27.148438 9.046875 Z M 27.148438 9.046875 "/>
<path style=" stroke:none;fill-rule:nonzero;fill-opacity:1;" d="M 36.449219 9.046875 C 36.148438 9.347656 35.960938 18.785156 36.246094 19.523438 C 36.457031 20.082031 37.46875 20.09375 37.835938 19.539062 C 37.898438 19.445312 37.949219 18.535156 37.949219 17.511719 L 37.949219 15.648438 L 39.816406 15.699219 C 42.421875 15.777344 43.050781 16.304688 43.050781 18.398438 C 43.050781 19.839844 43.800781 20.503906 44.558594 19.742188 C 45.246094 19.046875 44.683594 15.957031 43.734375 15.203125 L 43.363281 14.910156 L 43.957031 14.375 C 45.441406 13.023438 45.1875 10.441406 43.453125 9.4375 C 42.171875 8.691406 37.085938 8.40625 36.449219 9.046875 Z M 42.21875 10.765625 C 43.078125 11.125 43.417969 12.105469 42.976562 12.972656 C 42.578125 13.742188 41.992188 13.929688 39.863281 13.988281 L 37.949219 14.050781 L 37.949219 10.554688 L 39.832031 10.554688 C 41.113281 10.554688 41.871094 10.621094 42.21875 10.765625 Z M 42.21875 10.765625 "/>
<path style=" stroke:none;fill-rule:nonzero;fill-opacity:1;" d="M 4.058594 13.863281 C 3.808594 14.320312 3.871094 14.734375 4.230469 14.992188 C 4.582031 15.234375 11.191406 15.355469 11.773438 15.128906 C 12.1875 14.96875 12.34375 14.335938 12.074219 13.921875 L 11.84375 13.566406 L 8.023438 13.566406 C 4.410156 13.566406 4.199219 13.582031 4.058594 13.863281 Z M 4.058594 13.863281 "/>
<path style=" stroke:none;fill-rule:nonzero;fill-opacity:1;" d="M 4.148438 18.519531 C 3.832031 18.867188 3.832031 19.355469 4.132812 19.664062 C 4.566406 20.09375 9.808594 20.003906 10.117188 19.566406 C 10.425781 19.125 10.410156 18.90625 10.050781 18.542969 C 9.609375 18.097656 4.546875 18.074219 4.148438 18.519531 Z M 4.148438 18.519531 "/>
</g>
</svg>
