<?xml version="1.0" encoding="UTF-8"?>
<svg xmlns="http://www.w3.org/2000/svg" xmlns:xlink="http://www.w3.org/1999/xlink" width="25px" height="25px" viewBox="0 0 25 25" version="1.1">
<g id="surface1">
<path style=" stroke:none;fill-rule:nonzero;fill-opacity:1;" d="M 24.863281 5.5 L 24.441406 5.5 C 23.914062 5.5 23.417969 5.746094 23.097656 6.160156 L 18.75 11.851562 L 14.398438 6.160156 C 14.082031 5.746094 13.585938 5.5 13.058594 5.5 L 12.636719 5.5 L 18.121094 12.671875 L 12.519531 20 L 12.941406 20 C 13.46875 20 13.964844 19.753906 14.28125 19.339844 L 18.75 13.496094 L 23.21875 19.339844 C 23.535156 19.753906 24.03125 20 24.558594 20 L 24.980469 20 L 19.378906 12.671875 Z M 10.644531 17.121094 C 9.367188 19.0625 6.851562 20.054688 4.449219 19.179688 C 2.335938 18.40625 1 16.304688 1 14.054688 L 1 13.5 L 12.5 13.5 L 12.5 11.433594 C 12.5 8.179688 10.089844 5.332031 6.851562 5.027344 C 3.136719 4.679688 0 7.605469 0 11.25 L 0 14.035156 C 0 16.722656 1.609375 19.21875 4.132812 20.128906 C 7.4375 21.316406 10.910156 19.542969 12.082031 16.5 L 11.761719 16.5 C 11.308594 16.5 10.894531 16.742188 10.644531 17.121094 Z M 1 11.25 C 1 8.355469 3.355469 6 6.25 6 C 9.144531 6 11.5 8.355469 11.5 11.25 L 11.5 12.5 L 1 12.5 Z M 1 11.25 "/>
</g>
</svg>
