<?xml version="1.0" encoding="UTF-8"?>
<svg xmlns="http://www.w3.org/2000/svg" xmlns:xlink="http://www.w3.org/1999/xlink" width="25px" height="25px" viewBox="0 0 25 25" version="1.1">
<g id="surface1">
<path style=" stroke:none;fill-rule:evenodd;fill-opacity:1;" d="M 18.546875 5.414062 L 18.542969 5.410156 C 16.152344 3.324219 12.859375 2.605469 9.816406 3.507812 C 6.78125 4.425781 4.429688 6.839844 3.597656 9.902344 C 1.875 11.101562 0.832031 13.050781 0.785156 15.148438 C 0.738281 17.246094 1.695312 19.238281 3.363281 20.515625 C 4.511719 21.390625 5.917969 21.867188 7.359375 21.875 L 17.546875 21.875 C 20.457031 21.902344 23.046875 20.023438 23.921875 17.246094 C 24.785156 14.472656 23.722656 11.460938 21.308594 9.84375 C 20.839844 8.128906 19.878906 6.589844 18.546875 5.414062 Z M 6.316406 17.570312 C 6.644531 17.71875 7 17.820312 7.363281 17.820312 L 17.546875 17.824219 C 18.953125 17.824219 20.09375 16.691406 20.09375 15.292969 C 20.09375 13.898438 18.953125 12.765625 17.546875 12.765625 L 17.546875 12.257812 C 17.574219 10.710938 16.890625 9.238281 15.691406 8.257812 L 15.6875 8.257812 C 13.597656 6.574219 10.523438 6.835938 8.710938 8.8125 L 8.691406 8.835938 C 10.246094 9.148438 11.65625 10.007812 12.636719 11.285156 L 9.683594 14.21875 C 9.21875 13.191406 8.128906 12.59375 7.007812 12.753906 C 5.890625 12.910156 5.007812 13.789062 4.84375 14.90625 C 4.6875 16.023438 5.289062 17.109375 6.316406 17.570312 Z M 6.316406 17.570312 "/>
</g>
</svg>
