<?xml version="1.0" encoding="UTF-8"?>
<svg xmlns="http://www.w3.org/2000/svg" xmlns:xlink="http://www.w3.org/1999/xlink" width="25px" height="25px" viewBox="0 0 25 25" version="1.1">
<g id="surface1">
<path style=" stroke:none;fill-rule:nonzero;fill-opacity:1;" d="M 23.4375 8.75 L 16.25 1.5625 C 14.269531 -0.386719 11.125 -0.480469 9.03125 1.34375 L 11.96875 4.28125 C 12.574219 4.066406 13.246094 4.160156 13.765625 4.535156 C 14.285156 4.910156 14.589844 5.515625 14.578125 6.15625 L 14.578125 6.25 C 14.566406 6.453125 14.527344 6.652344 14.453125 6.84375 L 18.28125 10.59375 C 18.464844 10.519531 18.660156 10.480469 18.859375 10.46875 C 19.980469 10.46875 20.890625 11.378906 20.890625 12.5 C 20.890625 13.621094 19.980469 14.53125 18.859375 14.53125 C 17.738281 14.53125 16.828125 13.621094 16.828125 12.5 C 16.839844 12.300781 16.878906 12.105469 16.953125 11.921875 L 13.4375 8.40625 L 13.4375 16.578125 C 14.132812 16.910156 14.574219 17.605469 14.578125 18.375 C 14.578125 19.496094 13.667969 20.40625 12.546875 20.40625 C 11.425781 20.40625 10.515625 19.496094 10.515625 18.375 C 10.519531 17.648438 10.921875 16.984375 11.5625 16.640625 L 11.5625 7.921875 C 10.941406 7.589844 10.542969 6.953125 10.515625 6.25 C 10.527344 6.050781 10.566406 5.855469 10.640625 5.671875 L 7.671875 2.703125 L 1.5625 8.75 C 0.566406 9.742188 0.0078125 11.085938 0.0078125 12.492188 C 0.0078125 13.898438 0.566406 15.242188 1.5625 16.234375 L 8.75 23.4375 C 9.742188 24.433594 11.085938 24.992188 12.492188 24.992188 C 13.898438 24.992188 15.242188 24.433594 16.234375 23.4375 L 23.4375 16.25 C 24.433594 15.257812 24.992188 13.914062 24.992188 12.507812 C 24.992188 11.101562 24.433594 9.757812 23.4375 8.765625 Z M 23.4375 8.75 "/>
</g>
</svg>
