<?xml version="1.0" encoding="UTF-8"?>
<svg xmlns="http://www.w3.org/2000/svg" xmlns:xlink="http://www.w3.org/1999/xlink" width="25px" height="25px" viewBox="0 0 25 25" version="1.1">
<g id="surface1">
<path style=" stroke:none;fill-rule:evenodd;fill-opacity:1;" d="M 12.5 0 C 19.402344 0 25 5.738281 25 12.816406 C 25 18.476562 21.421875 23.28125 16.457031 24.976562 C 15.824219 25.101562 15.601562 24.703125 15.601562 24.359375 C 15.601562 23.9375 15.613281 22.558594 15.613281 20.84375 C 15.613281 19.648438 15.214844 18.867188 14.765625 18.472656 C 17.550781 18.152344 20.476562 17.070312 20.476562 12.148438 C 20.476562 10.746094 19.988281 9.605469 19.1875 8.707031 C 19.316406 8.382812 19.746094 7.078125 19.066406 5.316406 C 19.066406 5.316406 18.015625 4.972656 15.632812 6.628906 C 14.632812 6.34375 13.5625 6.203125 12.5 6.199219 C 11.4375 6.203125 10.367188 6.34375 9.371094 6.628906 C 6.984375 4.972656 5.933594 5.316406 5.933594 5.316406 C 5.253906 7.078125 5.683594 8.382812 5.8125 8.707031 C 5.011719 9.605469 4.523438 10.746094 4.523438 12.148438 C 4.523438 17.058594 7.441406 18.15625 10.21875 18.480469 C 9.859375 18.800781 9.539062 19.367188 9.425781 20.195312 C 8.710938 20.523438 6.902344 21.089844 5.789062 19.128906 C 5.789062 19.128906 5.125 17.898438 3.871094 17.808594 C 3.871094 17.808594 2.652344 17.792969 3.785156 18.585938 C 3.785156 18.585938 4.605469 18.980469 5.171875 20.460938 C 5.171875 20.460938 5.90625 22.75 9.386719 21.976562 C 9.390625 23.046875 9.402344 24.054688 9.402344 24.359375 C 9.402344 24.699219 9.171875 25.097656 8.546875 24.976562 C 3.582031 23.285156 0 18.480469 0 12.816406 C 0 5.738281 5.597656 0 12.5 0 "/>
</g>
</svg>
