<?xml version="1.0" encoding="UTF-8"?>
<svg xmlns="http://www.w3.org/2000/svg" xmlns:xlink="http://www.w3.org/1999/xlink" width="25px" height="25px" viewBox="0 0 25 25" version="1.1">
<g id="surface1">
<path style=" stroke:none;fill-rule:evenodd;fill-opacity:1;" d="M 4.957031 2.511719 C 5.429688 1.328125 7.125 1.390625 7.507812 2.605469 L 9.316406 8.332031 L 15.683594 8.332031 L 17.492188 2.605469 C 17.875 1.390625 19.570312 1.328125 20.042969 2.511719 L 22.621094 8.988281 L 23.617188 11.492188 C 23.9375 12.304688 23.71875 13.234375 23.070312 13.816406 L 13.195312 22.652344 C 12.800781 23.003906 12.199219 23.003906 11.804688 22.652344 L 1.929688 13.816406 C 1.28125 13.234375 1.0625 12.304688 1.382812 11.492188 L 2.378906 8.988281 Z M 15.027344 10.417969 L 9.972656 10.417969 L 12.5 18.414062 Z M 10.363281 18.566406 L 7.789062 10.417969 L 4.054688 10.417969 L 3.320312 12.265625 Z M 4.882812 8.332031 L 7.132812 8.332031 L 6.136719 5.183594 Z M 14.636719 18.566406 L 17.210938 10.417969 L 20.945312 10.417969 L 21.679688 12.265625 Z M 20.117188 8.332031 L 17.867188 8.332031 L 18.863281 5.183594 Z M 20.117188 8.332031 "/>
</g>
</svg>
