<?xml version="1.0" encoding="UTF-8"?>
<svg xmlns="http://www.w3.org/2000/svg" xmlns:xlink="http://www.w3.org/1999/xlink" width="25px" height="25px" viewBox="0 0 25 25" version="1.1">
<g id="surface1">
<path style=" stroke:none;fill-rule:nonzero;fill-opacity:1;" d="M 14.144531 0.664062 C 13.613281 0.558594 13.0625 0.5 12.5 0.5 C 10.144531 0.5 8.011719 1.464844 6.46875 3.019531 L 9.929688 5.816406 Z M 9.296875 6.589844 L 5.808594 3.773438 C 4.675781 5.214844 4 7.035156 4 9 C 4 10.140625 4.226562 11.242188 4.652344 12.265625 Z M 11.304688 5.714844 C 11.675781 5.578125 12.078125 5.5 12.5 5.5 C 14.433594 5.5 16 7.066406 16 9 C 16 9.167969 15.984375 9.332031 15.960938 9.496094 L 19.847656 4.746094 C 18.816406 2.976562 17.171875 1.613281 15.203125 0.949219 Z M 13.671875 12.296875 C 13.304688 12.425781 12.910156 12.5 12.5 12.5 C 10.566406 12.5 9 10.933594 9 9 C 9 8.824219 9.015625 8.648438 9.042969 8.480469 L 5.140625 13.25 C 5.332031 13.582031 5.546875 13.90625 5.785156 14.214844 C 5.96875 14.464844 6.21875 14.785156 6.511719 15.160156 C 7.144531 15.976562 7.988281 17.066406 8.804688 18.242188 Z M 9.390625 19.109375 C 10.429688 20.699219 11.316406 22.355469 11.476562 23.636719 C 11.546875 24.128906 11.96875 24.5 12.46875 24.5 C 12.980469 24.5 13.40625 24.125 13.464844 23.625 C 13.769531 21.210938 16.75 17.386719 18.355469 15.324219 C 18.636719 14.964844 18.878906 14.648438 19.105469 14.355469 C 20.324219 12.84375 21 10.945312 21 9 C 21 7.839844 20.765625 6.730469 20.339844 5.722656 Z M 9.390625 19.109375 "/>
</g>
</svg>
