<?xml version="1.0" encoding="UTF-8"?>
<svg xmlns="http://www.w3.org/2000/svg" xmlns:xlink="http://www.w3.org/1999/xlink" width="25px" height="25px" viewBox="0 0 25 25" version="1.1">
<g id="surface1">
<path style=" stroke:none;fill-rule:nonzero;fill-opacity:1;" d="M 12.5 1 C 11.394531 1 10.5 1.894531 10.5 3 C 10.5 3.160156 10.523438 3.3125 10.558594 3.460938 L 5.472656 6.15625 C 5.105469 5.753906 4.585938 5.5 4 5.5 C 2.894531 5.5 2 6.394531 2 7.5 C 2 8.425781 2.636719 9.203125 3.5 9.429688 L 3.5 15.570312 C 2.636719 15.792969 2 16.566406 2 17.5 C 2 18.601562 2.894531 19.5 4 19.5 C 4.585938 19.5 5.105469 19.246094 5.472656 18.84375 L 10.558594 21.539062 C 10.523438 21.6875 10.5 21.839844 10.5 22 C 10.5 23.105469 11.394531 24 12.5 24 C 13.605469 24 14.5 23.101562 14.5 22 C 14.5 21.839844 14.476562 21.6875 14.441406 21.539062 L 19.527344 18.84375 C 19.894531 19.246094 20.414062 19.5 21 19.5 C 22.105469 19.5 23 18.601562 23 17.5 C 23 16.566406 22.363281 15.792969 21.5 15.570312 L 21.5 9.429688 C 22.363281 9.203125 23 8.425781 23 7.5 C 23 6.394531 22.105469 5.5 21 5.5 C 20.414062 5.5 19.894531 5.753906 19.527344 6.15625 L 14.441406 3.460938 C 14.476562 3.3125 14.5 3.160156 14.5 3 C 14.5 1.894531 13.605469 1 12.5 1 Z M 11.027344 4.34375 C 11.050781 4.367188 11.066406 4.394531 11.089844 4.417969 L 4.542969 15.585938 C 4.527344 15.578125 4.515625 15.574219 4.5 15.570312 L 4.5 9.429688 C 5.363281 9.207031 6 8.433594 6 7.5 C 6 7.339844 5.976562 7.1875 5.941406 7.039062 Z M 13.972656 4.34375 L 19.058594 7.039062 C 19.023438 7.1875 19 7.339844 19 7.5 C 19 8.433594 19.636719 9.207031 20.5 9.429688 L 20.5 15.570312 C 20.484375 15.574219 20.472656 15.578125 20.457031 15.585938 L 13.910156 4.417969 C 13.933594 4.394531 13.949219 4.367188 13.972656 4.34375 Z M 13.042969 4.914062 L 19.589844 16.082031 C 19.339844 16.332031 19.164062 16.648438 19.070312 17 L 5.929688 17 C 5.835938 16.648438 5.660156 16.332031 5.410156 16.082031 L 11.957031 4.914062 C 12.128906 4.964844 12.308594 5 12.5 5 C 12.691406 5 12.871094 4.964844 13.042969 4.914062 Z M 6.011719 18 L 18.988281 18 L 13.972656 20.65625 C 13.605469 20.253906 13.085938 20 12.5 20 C 11.914062 20 11.394531 20.253906 11.027344 20.65625 Z M 6.011719 18 "/>
</g>
</svg>
