<?xml version="1.0" encoding="UTF-8"?>
<svg xmlns="http://www.w3.org/2000/svg" xmlns:xlink="http://www.w3.org/1999/xlink" width="25px" height="25px" viewBox="0 0 25 25" version="1.1">
<g id="surface1">
<path style=" stroke:none;fill-rule:nonzero;fill-opacity:1;" d="M 21.46875 0 L 3.53125 0 C 2.933594 -0.00390625 2.359375 0.234375 1.9375 0.65625 C 1.515625 1.078125 1.277344 1.652344 1.28125 2.25 L 1.28125 22.75 C 1.277344 23.347656 1.515625 23.921875 1.9375 24.34375 C 2.359375 24.765625 2.933594 25.003906 3.53125 25 L 21.46875 25 C 22.066406 25.003906 22.640625 24.765625 23.0625 24.34375 C 23.484375 23.921875 23.71875 23.347656 23.71875 22.75 L 23.71875 2.25 C 23.722656 1.652344 23.484375 1.078125 23.0625 0.65625 C 22.640625 0.234375 22.066406 -0.00390625 21.46875 0 Z M 22.46875 22.75 C 22.46875 23.3125 22.03125 23.75 21.46875 23.75 L 3.53125 23.75 C 3.265625 23.753906 3.007812 23.648438 2.820312 23.460938 C 2.632812 23.273438 2.527344 23.015625 2.53125 22.75 L 2.53125 2.25 C 2.53125 1.6875 2.96875 1.25 3.53125 1.25 L 21.46875 1.25 C 21.734375 1.246094 21.992188 1.351562 22.179688 1.539062 C 22.367188 1.726562 22.472656 1.984375 22.46875 2.25 Z M 6.90625 21.25 L 9.71875 18.75 L 6.90625 16.25 Z M 17.03125 11.125 C 16.53125 10.625 15.59375 10 14.03125 10 C 12.34375 10 10.59375 10.4375 9.34375 10.875 L 9.34375 3.75 L 6.84375 3.75 L 6.84375 14.5625 L 8.59375 13.75 C 8.59375 13.75 11.46875 12.4375 13.96875 12.4375 C 15.21875 12.4375 15.53125 13.125 15.53125 13.75 L 15.53125 21.25 L 18.03125 21.25 L 18.03125 13.75 C 18.09375 13.5625 18.09375 12.1875 17.03125 11.125 Z M 13.71875 7.8125 L 16.21875 7.8125 C 17.34375 6.5 17.90625 5.1875 18.09375 3.75 L 15.59375 3.75 C 15.34375 5.1875 14.71875 6.5 13.71875 7.8125 Z M 13.71875 7.8125 "/>
</g>
</svg>
