<?xml version="1.0" encoding="iso-8859-1"?><!-- Generator: Adobe Illustrator 19.2.1, SVG Export Plug-In . SVG Version: 6.00 Build 0)  --><svg xmlns="http://www.w3.org/2000/svg" xmlns:xlink="http://www.w3.org/1999/xlink" viewBox="0 0 25 25" width="25px" height="25px"><path d="M22.637,1.162C22.542,1.059,22.408,1,22.268,1H2.732C2.591,1,2.458,1.059,2.363,1.162S2.221,1.405,2.234,1.544l1.76,19.713c0.018,0.206,0.162,0.38,0.361,0.436l8.005,2.286C12.405,23.994,12.451,24,12.497,24s0.093-0.006,0.137-0.019l8.012-2.286c0.199-0.057,0.342-0.231,0.361-0.436l1.759-19.713C22.778,1.404,22.631,1.266,22.637,1.162z M18.423,7.959H9.018l0.223,2.545h8.955l-0.671,7.52l-5.028,1.52l-0.05-0.015l-4.971-1.506l-0.271-3.065h2.434l0.107,1.19l2.778,0.582l2.729-0.583l0.29-3.217H7.022l-0.66-7.403h12.279L18.423,7.959z"/></svg>