<?xml version="1.0" encoding="UTF-8"?>
<svg xmlns="http://www.w3.org/2000/svg" xmlns:xlink="http://www.w3.org/1999/xlink" width="28px" height="28px" viewBox="0 0 28 28" version="1.1">
<g id="surface1">
<path style=" stroke:none;fill-rule:nonzero;fill-opacity:1;" d="M 15.785156 -0.00390625 C 17.324219 3.5625 10.257812 5.761719 9.605469 8.734375 C 9 11.457031 13.796875 14.628906 13.800781 14.628906 C 13.074219 13.5 12.546875 12.566406 11.816406 10.8125 C 10.578125 7.839844 19.335938 5.152344 15.785156 -0.00390625 Z M 20.46875 4.933594 C 20.46875 4.933594 14.28125 5.328125 13.96875 9.285156 C 13.828125 11.050781 15.59375 11.988281 15.644531 13.273438 C 15.683594 14.320312 14.589844 15.191406 14.589844 15.191406 C 14.589844 15.191406 16.578125 14.816406 17.199219 13.21875 C 17.890625 11.445312 15.863281 10.234375 16.066406 8.8125 C 16.265625 7.453125 20.46875 4.933594 20.46875 4.933594 Z M 21.96875 14.082031 C 21.320312 14.050781 20.601562 14.265625 19.949219 14.734375 C 21.226562 14.460938 22.308594 15.242188 22.308594 16.144531 C 22.308594 18.171875 19.375 20.09375 19.375 20.09375 C 19.375 20.09375 23.914062 19.574219 23.914062 16.238281 C 23.914062 14.863281 23.046875 14.132812 21.96875 14.082031 Z M 10.742188 14.085938 C 10.742188 14.085938 5.074219 14.007812 5.074219 15.613281 C 5.074219 17.289062 12.496094 17.40625 17.796875 16.375 C 17.796875 16.375 19.210938 15.40625 19.589844 15.042969 C 16.117188 15.753906 8.1875 15.847656 8.1875 15.234375 C 8.1875 14.667969 10.742188 14.085938 10.742188 14.085938 Z M 9.375 17.203125 C 8.503906 17.203125 7.207031 17.875 7.207031 18.523438 C 7.207031 19.824219 13.753906 20.828125 18.601562 18.925781 L 16.925781 17.898438 C 13.640625 18.949219 7.582031 18.613281 9.375 17.203125 Z M 10.179688 20.117188 C 8.988281 20.117188 8.214844 20.851562 8.214844 21.394531 C 8.214844 23.066406 15.332031 23.234375 18.152344 21.535156 L 16.359375 20.394531 C 14.253906 21.285156 8.964844 21.40625 10.179688 20.117188 Z M 6.210938 21.628906 C 4.269531 21.589844 3.003906 22.464844 3.003906 23.1875 C 3.003906 27.039062 22.898438 26.851562 22.898438 22.917969 C 22.898438 22.265625 22.128906 21.953125 21.851562 21.804688 C 23.476562 25.566406 5.582031 25.277344 5.582031 23.054688 C 5.582031 22.550781 6.894531 22.054688 8.117188 22.292969 L 7.082031 21.703125 C 6.777344 21.660156 6.484375 21.632812 6.210938 21.628906 Z M 24.996094 24.21875 C 21.972656 27.085938 14.304688 28.132812 6.597656 26.363281 C 14.304688 29.515625 24.957031 27.738281 24.996094 24.21875 Z M 24.996094 24.21875 "/>
</g>
</svg>
