<?xml version="1.0" encoding="UTF-8"?>
<svg xmlns="http://www.w3.org/2000/svg" xmlns:xlink="http://www.w3.org/1999/xlink" width="25px" height="25px" viewBox="0 0 25 25" version="1.1">
<g id="surface1">
<path style=" stroke:none;fill-rule:nonzero;fill-opacity:1;" d="M 23.175781 12.3125 C 23.175781 10.839844 22.179688 9.550781 20.753906 9.175781 L 23.863281 0 L 8.441406 0 L 11.566406 9.207031 C 10.179688 9.613281 9.226562 10.875 9.222656 12.316406 C 9.222656 13.402344 9.765625 14.367188 10.59375 14.960938 C 10.261719 15.429688 9.882812 15.863281 9.464844 16.253906 C 8.695312 16.988281 7.792969 17.570312 6.808594 17.972656 C 5.9375 17.386719 5.5625 16.347656 5.902344 15.425781 C 9.441406 14.324219 8.660156 9.105469 4.957031 9.089844 C 3.167969 9.09375 1.714844 10.542969 1.714844 12.335938 C 1.714844 13.21875 2.070312 14.027344 2.652344 14.609375 C 2.601562 14.707031 2.550781 14.8125 2.5 14.917969 C 2.015625 15.917969 1.464844 17.046875 1.253906 18.3125 C 0.835938 20.847656 1.523438 22.882812 3.183594 24.03125 C 4.078125 24.664062 5.152344 25.003906 6.25 25 C 8.152344 25 10.085938 24.046875 11.953125 23.117188 C 13.285156 22.460938 14.660156 21.773438 16.011719 21.441406 C 16.511719 21.320312 17.035156 21.246094 17.582031 21.164062 C 18.699219 21.003906 19.847656 20.839844 20.882812 20.238281 C 22.078125 19.554688 22.914062 18.375 23.15625 17.019531 C 23.335938 15.984375 23.15625 14.941406 22.695312 14.027344 C 23.007812 13.527344 23.179688 12.945312 23.179688 12.3125 Z M 21.765625 12.3125 C 21.765625 13.316406 20.945312 14.136719 19.941406 14.136719 C 18.21875 14.132812 17.460938 11.953125 18.816406 10.878906 L 18.820312 10.871094 C 18.878906 10.828125 18.945312 10.78125 19.007812 10.742188 C 19.007812 10.742188 19.019531 10.742188 19.019531 10.734375 C 19.046875 10.71875 19.074219 10.699219 19.105469 10.679688 C 19.113281 10.679688 19.117188 10.675781 19.125 10.675781 C 19.152344 10.660156 19.1875 10.648438 19.226562 10.632812 C 19.261719 10.617188 19.296875 10.605469 19.328125 10.589844 C 19.335938 10.589844 19.339844 10.585938 19.347656 10.585938 C 19.375 10.574219 19.410156 10.558594 19.4375 10.554688 C 19.441406 10.554688 19.457031 10.546875 19.464844 10.546875 C 19.503906 10.539062 19.53125 10.53125 19.566406 10.527344 L 19.570312 10.527344 L 19.679688 10.503906 C 19.6875 10.503906 19.699219 10.503906 19.710938 10.492188 C 19.738281 10.492188 19.765625 10.484375 19.800781 10.484375 L 19.832031 10.484375 C 19.867188 10.484375 19.902344 10.480469 19.949219 10.480469 L 20.042969 10.480469 C 20.070312 10.480469 20.097656 10.480469 20.125 10.484375 L 20.136719 10.484375 C 20.195312 10.492188 20.253906 10.5 20.3125 10.519531 C 21.15625 10.699219 21.765625 11.445312 21.765625 12.3125 Z M 10.460938 1.449219 L 21.847656 1.449219 L 19.234375 9.15625 C 19.125 9.175781 19.019531 9.210938 18.910156 9.25 L 16.160156 3.640625 L 13.398438 9.214844 C 13.292969 9.179688 13.175781 9.15625 13.058594 9.136719 Z M 15.636719 11.683594 C 15.503906 11.015625 15.160156 10.402344 14.660156 9.945312 L 16.15625 6.921875 L 17.671875 10.007812 C 17.21875 10.457031 16.894531 11.03125 16.765625 11.683594 Z M 12.011719 10.539062 C 12.042969 10.53125 12.078125 10.523438 12.113281 10.519531 L 12.132812 10.519531 C 12.164062 10.511719 12.191406 10.511719 12.21875 10.503906 L 12.246094 10.503906 C 12.277344 10.503906 12.300781 10.492188 12.328125 10.492188 L 12.609375 10.492188 C 12.636719 10.492188 12.664062 10.503906 12.683594 10.503906 C 12.699219 10.503906 12.703125 10.503906 12.71875 10.511719 C 12.75 10.519531 12.769531 10.519531 12.796875 10.523438 C 12.804688 10.523438 12.8125 10.523438 12.828125 10.53125 L 12.925781 10.550781 L 12.9375 10.550781 C 12.964844 10.558594 12.996094 10.566406 13.027344 10.582031 C 13.03125 10.582031 13.039062 10.585938 13.054688 10.585938 C 13.074219 10.597656 13.101562 10.605469 13.128906 10.617188 C 13.132812 10.617188 13.140625 10.625 13.148438 10.625 C 13.175781 10.640625 13.203125 10.648438 13.234375 10.660156 L 13.242188 10.660156 C 13.273438 10.671875 13.304688 10.691406 13.335938 10.714844 L 13.34375 10.714844 C 13.371094 10.726562 13.398438 10.746094 13.429688 10.761719 C 13.4375 10.761719 13.4375 10.773438 13.445312 10.773438 C 13.472656 10.785156 13.492188 10.808594 13.523438 10.820312 L 13.53125 10.828125 C 13.617188 10.894531 13.695312 10.96875 13.78125 11.042969 L 13.78125 11.046875 C 14.109375 11.386719 14.289062 11.839844 14.285156 12.304688 C 14.207031 14.65625 10.714844 14.65625 10.636719 12.304688 C 10.632812 11.472656 11.203125 10.742188 12.011719 10.539062 Z M 4.886719 10.484375 C 5.890625 10.484375 6.710938 11.308594 6.710938 12.3125 C 6.710938 13.316406 5.890625 14.136719 4.886719 14.136719 C 3.882812 14.136719 3.0625 13.316406 3.0625 12.3125 C 3.0625 11.308594 3.882812 10.484375 4.886719 10.484375 Z M 21.722656 16.765625 C 21.558594 17.699219 20.980469 18.515625 20.15625 18.988281 C 19.363281 19.441406 18.390625 19.589844 17.375 19.730469 C 16.800781 19.804688 16.226562 19.90625 15.667969 20.035156 C 14.160156 20.40625 12.710938 21.125 11.308594 21.824219 C 9.515625 22.714844 7.820312 23.550781 6.25 23.550781 C 5.445312 23.554688 4.660156 23.308594 4.003906 22.835938 C 2.414062 21.738281 2.492188 19.675781 2.683594 18.542969 C 2.851562 17.484375 3.335938 16.496094 3.800781 15.546875 C 3.835938 15.492188 3.855469 15.4375 3.882812 15.382812 C 4.042969 15.4375 4.207031 15.484375 4.382812 15.511719 C 4.105469 17.046875 4.886719 18.632812 6.410156 19.414062 L 6.679688 19.554688 L 6.976562 19.449219 C 8.242188 19 9.417969 18.269531 10.453125 17.292969 C 11.027344 16.761719 11.53125 16.160156 11.957031 15.503906 C 12.125 15.53125 12.292969 15.539062 12.460938 15.539062 C 13.933594 15.535156 15.21875 14.542969 15.59375 13.117188 L 16.808594 13.117188 C 17.179688 14.542969 18.46875 15.539062 19.941406 15.539062 C 20.546875 15.539062 21.101562 15.375 21.578125 15.09375 C 21.765625 15.632812 21.824219 16.199219 21.722656 16.765625 Z M 21.722656 16.765625 "/>
</g>
</svg>
