<?xml version="1.0" encoding="UTF-8"?>
<svg xmlns="http://www.w3.org/2000/svg" xmlns:xlink="http://www.w3.org/1999/xlink" width="25px" height="25px" viewBox="0 0 25 25" version="1.1">
<g id="surface1">
<path style=" stroke:none;fill-rule:nonzero;fill-opacity:1;" d="M 21.351562 10.417969 C 21.640625 10.417969 21.875 10.183594 21.875 9.894531 L 21.875 3.644531 C 21.875 2.210938 20.707031 1.042969 19.269531 1.042969 L 2.605469 1.042969 C 1.167969 1.042969 0 2.210938 0 3.644531 L 0 21.355469 C 0 22.789062 1.167969 23.957031 2.605469 23.957031 L 19.269531 23.957031 C 20.707031 23.957031 21.875 22.789062 21.875 21.355469 L 21.875 18.230469 C 21.875 17.941406 21.640625 17.707031 21.351562 17.707031 C 21.066406 17.707031 20.832031 17.941406 20.832031 18.230469 L 20.832031 21.355469 C 20.832031 22.214844 20.132812 22.917969 19.269531 22.917969 L 2.605469 22.917969 C 1.742188 22.917969 1.042969 22.214844 1.042969 21.355469 L 1.042969 6.25 L 20.832031 6.25 L 20.832031 9.894531 C 20.832031 10.183594 21.066406 10.417969 21.351562 10.417969 Z M 1.042969 5.207031 L 1.042969 3.644531 C 1.042969 2.785156 1.742188 2.082031 2.605469 2.082031 L 19.269531 2.082031 C 20.132812 2.082031 20.832031 2.785156 20.832031 3.644531 L 20.832031 5.207031 Z M 1.042969 5.207031 "/>
<path style=" stroke:none;fill-rule:nonzero;fill-opacity:1;" d="M 3.125 3.644531 C 3.125 3.359375 2.890625 3.125 2.605469 3.125 C 2.316406 3.125 2.082031 3.359375 2.082031 3.644531 C 2.082031 3.933594 2.316406 4.167969 2.605469 4.167969 C 2.890625 4.167969 3.125 3.933594 3.125 3.644531 Z M 3.125 3.644531 "/>
<path style=" stroke:none;fill-rule:nonzero;fill-opacity:1;" d="M 5.207031 3.644531 C 5.207031 3.359375 4.976562 3.125 4.6875 3.125 C 4.398438 3.125 4.167969 3.359375 4.167969 3.644531 C 4.167969 3.933594 4.398438 4.167969 4.6875 4.167969 C 4.976562 4.167969 5.207031 3.933594 5.207031 3.644531 Z M 5.207031 3.644531 "/>
<path style=" stroke:none;fill-rule:nonzero;fill-opacity:1;" d="M 7.292969 3.644531 C 7.292969 3.359375 7.058594 3.125 6.769531 3.125 C 6.484375 3.125 6.25 3.359375 6.25 3.644531 C 6.25 3.933594 6.484375 4.167969 6.769531 4.167969 C 7.058594 4.167969 7.292969 3.933594 7.292969 3.644531 Z M 7.292969 3.644531 "/>
<path style=" stroke:none;fill-rule:nonzero;fill-opacity:1;" d="M 17.871094 13.5625 L 17.714844 13.535156 C 16.800781 13.386719 16.664062 13.148438 16.664062 13.019531 C 16.664062 12.8125 17.082031 12.5 17.710938 12.5 C 18.324219 12.5 18.730469 12.792969 18.753906 13.003906 C 18.78125 13.289062 19.027344 13.507812 19.320312 13.472656 C 19.605469 13.445312 19.816406 13.191406 19.789062 12.90625 C 19.710938 12.082031 18.816406 11.457031 17.707031 11.457031 C 16.539062 11.457031 15.625 12.144531 15.625 13.019531 C 15.625 13.835938 16.273438 14.355469 17.546875 14.5625 L 17.632812 14.050781 L 17.703125 14.589844 C 18.566406 14.730469 18.75 14.949219 18.75 15.105469 C 18.75 15.3125 18.332031 15.625 17.707031 15.625 C 17.089844 15.625 16.683594 15.332031 16.664062 15.121094 C 16.636719 14.835938 16.382812 14.613281 16.09375 14.652344 C 15.808594 14.679688 15.597656 14.933594 15.625 15.21875 C 15.707031 16.042969 16.597656 16.667969 17.707031 16.667969 C 18.875 16.667969 19.789062 15.980469 19.789062 15.105469 C 19.789062 14.289062 19.144531 13.769531 17.871094 13.5625 Z M 17.871094 13.5625 "/>
<path style=" stroke:none;fill-rule:nonzero;fill-opacity:1;" d="M 23.566406 14.0625 L 24.894531 12.292969 C 25.070312 12.0625 25.023438 11.734375 24.792969 11.5625 C 24.5625 11.390625 24.234375 11.4375 24.0625 11.667969 L 22.917969 13.195312 L 21.769531 11.667969 C 21.597656 11.433594 21.269531 11.386719 21.039062 11.5625 C 20.808594 11.734375 20.761719 12.0625 20.9375 12.292969 L 22.265625 14.0625 L 20.9375 15.832031 C 20.765625 16.0625 20.8125 16.390625 21.042969 16.5625 C 21.136719 16.632812 21.246094 16.667969 21.351562 16.667969 C 21.511719 16.667969 21.667969 16.59375 21.769531 16.457031 L 22.917969 14.929688 L 24.0625 16.457031 C 24.164062 16.59375 24.320312 16.667969 24.476562 16.667969 C 24.585938 16.667969 24.695312 16.632812 24.789062 16.5625 C 25.019531 16.390625 25.066406 16.0625 24.894531 15.832031 Z M 23.566406 14.0625 "/>
<path style=" stroke:none;fill-rule:nonzero;fill-opacity:1;" d="M 14.0625 11.457031 C 13.773438 11.457031 13.539062 11.691406 13.539062 11.980469 L 13.539062 15.105469 C 13.539062 15.390625 13.308594 15.625 13.019531 15.625 C 12.734375 15.625 12.5 15.390625 12.5 15.105469 C 12.5 14.816406 12.265625 14.582031 11.980469 14.582031 C 11.691406 14.582031 11.457031 14.816406 11.457031 15.105469 C 11.457031 15.964844 12.160156 16.667969 13.019531 16.667969 C 13.882812 16.667969 14.582031 15.964844 14.582031 15.105469 L 14.582031 11.980469 C 14.582031 11.691406 14.347656 11.457031 14.0625 11.457031 Z M 14.0625 11.457031 "/>
</g>
</svg>
