<?xml version="1.0" encoding="UTF-8"?>
<svg xmlns="http://www.w3.org/2000/svg" xmlns:xlink="http://www.w3.org/1999/xlink" width="25px" height="25px" viewBox="0 0 25 25" version="1.1">
<g id="surface1">
<path style=" stroke:none;fill-rule:nonzero;fill-opacity:1;" d="M 2.542969 7.148438 C 1.433594 7.148438 0.941406 7.578125 0.941406 8.914062 C 0.941406 9.796875 1.066406 10.289062 1.066406 11.046875 C 1.066406 11.476562 0.800781 11.929688 0 11.96875 L 0 13.035156 C 0.800781 13.054688 1.066406 13.507812 1.066406 13.9375 C 1.066406 14.695312 0.941406 15.148438 0.941406 16.03125 C 0.941406 17.367188 1.433594 17.796875 2.523438 17.796875 L 3.324219 17.796875 L 3.324219 16.851562 L 3.078125 16.851562 C 2.566406 16.851562 2.402344 16.644531 2.402344 15.96875 C 2.402344 15.292969 2.464844 14.714844 2.464844 13.957031 C 2.464844 13.011719 2.15625 12.644531 1.542969 12.5 L 1.542969 12.4375 C 2.160156 12.292969 2.464844 11.925781 2.464844 10.980469 C 2.464844 10.242188 2.402344 9.644531 2.402344 8.96875 C 2.402344 8.292969 2.546875 8.105469 3.078125 8.105469 L 3.628906 8.105469 L 3.628906 14 C 3.628906 15.253906 4.058594 16.070312 5.3125 16.070312 C 5.703125 16.070312 6.011719 16.007812 6.234375 15.925781 L 6.027344 14.59375 C 5.90625 14.625 5.847656 14.625 5.785156 14.625 C 5.640625 14.625 5.457031 14.5 5.457031 14.109375 L 5.457031 7.148438 Z M 21.675781 7.152344 L 21.675781 8.097656 L 21.921875 8.097656 C 22.476562 8.097656 22.597656 8.285156 22.597656 8.964844 C 22.597656 9.601562 22.535156 10.234375 22.535156 10.972656 C 22.535156 11.917969 22.84375 12.285156 23.457031 12.429688 L 23.457031 12.492188 C 22.839844 12.636719 22.535156 13.003906 22.535156 13.949219 C 22.535156 14.6875 22.597656 15.285156 22.597656 15.960938 C 22.597656 16.660156 22.453125 16.84375 21.921875 16.84375 L 21.921875 16.867188 L 21.675781 16.867188 L 21.675781 17.851562 L 22.476562 17.851562 C 23.5625 17.851562 24.058594 17.421875 24.058594 16.085938 C 24.058594 15.203125 23.933594 14.746094 23.933594 13.949219 C 23.933594 13.519531 24.199219 13.070312 25 13.03125 L 25 11.964844 C 24.199219 11.9375 23.933594 11.480469 23.933594 11.050781 C 23.933594 10.25 24.058594 9.78125 24.058594 8.921875 C 24.058594 7.585938 23.566406 7.152344 22.476562 7.152344 Z M 8.78125 9.613281 C 7.28125 9.613281 5.847656 10.871094 5.886719 12.839844 C 5.886719 14.871094 7.222656 16.0625 8.984375 16.0625 C 9.722656 16.0625 10.546875 15.796875 11.183594 15.363281 L 10.5625 14.277344 C 10.109375 14.542969 9.683594 14.667969 9.230469 14.667969 C 8.40625 14.667969 7.769531 14.277344 7.605469 13.332031 L 11.328125 13.332031 C 11.347656 13.1875 11.390625 12.902344 11.390625 12.574219 C 11.410156 10.90625 10.503906 9.613281 8.78125 9.613281 Z M 14.304688 9.632812 C 12.910156 9.632812 11.964844 10.4375 11.964844 11.566406 C 11.964844 12.570312 12.847656 13.082031 13.585938 13.367188 C 14.222656 13.613281 14.835938 13.820312 14.835938 14.230469 C 14.835938 14.539062 14.59375 14.742188 14.039062 14.742188 C 13.527344 14.742188 13.011719 14.535156 12.457031 14.105469 L 11.65625 15.296875 C 12.273438 15.808594 13.210938 16.164062 13.992188 16.164062 C 15.632812 16.164062 16.519531 15.296875 16.519531 14.167969 C 16.523438 13.042969 15.636719 12.566406 14.835938 12.300781 C 14.199219 12.054688 13.628906 11.914062 13.628906 11.503906 C 13.628906 11.195312 13.875 11.007812 14.328125 11.007812 C 14.78125 11.007812 15.191406 11.191406 15.640625 11.519531 L 16.460938 10.433594 C 15.949219 10.042969 15.25 9.632812 14.304688 9.632812 Z M 19.292969 9.632812 C 17.898438 9.632812 16.953125 10.4375 16.953125 11.566406 C 16.953125 12.570312 17.835938 13.082031 18.574219 13.367188 C 19.210938 13.613281 19.828125 13.820312 19.828125 14.230469 C 19.828125 14.539062 19.582031 14.742188 19.027344 14.742188 C 18.515625 14.742188 18 14.535156 17.445312 14.105469 L 16.625 15.296875 C 17.242188 15.808594 18.183594 16.164062 18.964844 16.164062 C 20.605469 16.164062 21.488281 15.296875 21.488281 14.167969 C 21.488281 13.039062 20.609375 12.566406 19.808594 12.300781 C 19.191406 12.054688 18.617188 11.914062 18.617188 11.503906 C 18.617188 11.195312 18.863281 11.007812 19.316406 11.007812 C 19.769531 11.007812 20.179688 11.191406 20.628906 11.519531 L 21.449219 10.433594 C 20.9375 10.042969 20.238281 9.632812 19.292969 9.632812 Z M 8.804688 10.988281 C 9.542969 10.988281 9.828125 11.5 9.828125 12.199219 L 7.609375 12.199219 C 7.734375 11.378906 8.230469 10.988281 8.804688 10.988281 Z M 8.804688 10.988281 "/>
</g>
</svg>
