<?xml version="1.0" encoding="UTF-8"?>
<svg xmlns="http://www.w3.org/2000/svg" xmlns:xlink="http://www.w3.org/1999/xlink" width="25px" height="25px" viewBox="0 0 25 25" version="1">
<g id="surface1">
<path style=" stroke:none;fill-rule:evenodd;fill-opacity:1;" d="M 12.5 25 C 19.402344 25 25 19.402344 25 12.5 C 25 5.597656 19.402344 0 12.5 0 C 5.597656 0 0 5.597656 0 12.5 C 0 19.402344 5.597656 25 12.5 25 Z M 12.5 23.125 C 6.632812 23.125 1.875 18.367188 1.875 12.5 C 1.875 6.632812 6.632812 1.875 12.5 1.875 C 18.367188 1.875 23.125 6.632812 23.125 12.5 C 23.125 18.367188 18.367188 23.125 12.5 23.125 Z M 12.5 23.125 "/>
<path style=" stroke:none;fill-rule:evenodd;fill-opacity:1;" d="M 12.5 22.5 C 18.023438 22.5 22.5 18.023438 22.5 12.5 C 22.5 6.976562 18.023438 2.5 12.5 2.5 C 6.976562 2.5 2.5 6.976562 2.5 12.5 C 2.5 18.023438 6.976562 22.5 12.5 22.5 Z M 14.441406 11.363281 L 14.441406 9.1875 C 15.164062 9.144531 15.722656 8.554688 15.722656 7.847656 L 15.722656 7.589844 C 15.722656 6.839844 15.105469 6.25 14.351562 6.25 L 10.664062 6.25 C 9.894531 6.25 9.289062 6.855469 9.289062 7.589844 L 9.289062 7.847656 C 9.289062 8.554688 9.867188 9.144531 10.574219 9.1875 L 10.574219 11.363281 L 7.164062 16.59375 C 6.796875 17.15625 6.78125 17.847656 7.105469 18.4375 C 7.429688 19.027344 8.050781 19.375 8.730469 19.375 L 16.269531 19.375 C 16.964844 19.375 17.570312 19.027344 17.894531 18.4375 C 18.21875 17.847656 18.203125 17.15625 17.835938 16.59375 Z M 14.441406 11.363281 "/>
</g>
</svg>
