<?xml version="1.0" encoding="UTF-8"?>
<svg xmlns="http://www.w3.org/2000/svg" xmlns:xlink="http://www.w3.org/1999/xlink" width="25px" height="25px" viewBox="0 0 25 25" version="1.1">
<g id="surface1">
<path style=" stroke:none;fill-rule:nonzero;fill-opacity:1;" d="M 12.5 0 C 5.597656 0 0 5.597656 0 12.5 C 0 19.402344 5.597656 25 12.5 25 C 19.402344 25 25 19.402344 25 12.5 C 25 5.597656 19.402344 0 12.5 0 Z M 18.433594 15.566406 C 14.160156 19.839844 6.523438 18.476562 6.523438 18.476562 C 6.523438 18.476562 5.144531 10.855469 9.433594 6.566406 C 11.8125 4.191406 15.746094 4.289062 18.238281 6.761719 C 20.726562 9.238281 20.808594 13.1875 18.433594 15.566406 Z M 13.933594 7.324219 L 12.710938 9.84375 L 10.195312 11.066406 L 12.710938 12.289062 L 13.933594 14.804688 L 15.15625 12.289062 L 17.675781 11.066406 L 15.15625 9.84375 Z M 13.933594 7.324219 "/>
</g>
</svg>
