<?xml version="1.0" encoding="UTF-8"?>
<svg xmlns="http://www.w3.org/2000/svg" xmlns:xlink="http://www.w3.org/1999/xlink" width="25px" height="25px" viewBox="0 0 25 25" version="1.1">
<g id="surface1">
<path style=" stroke:none;fill-rule:nonzero;fill-opacity:1;" d="M 0.519531 2.605469 L 3.644531 4.6875 L 3.644531 15.105469 L 0.519531 13.019531 Z M 0.519531 2.605469 "/>
<path style=" stroke:none;fill-rule:nonzero;fill-opacity:1;" d="M 24.480469 10.417969 L 21.355469 12.5 L 21.355469 19.269531 L 24.480469 17.1875 Z M 24.480469 10.417969 "/>
<path style=" stroke:none;fill-rule:nonzero;fill-opacity:1;" d="M 24.480469 3.125 L 21.355469 5.207031 L 21.355469 8.855469 L 24.480469 6.769531 Z M 24.480469 3.125 "/>
<path style=" stroke:none;fill-rule:nonzero;fill-opacity:1;" d="M 18.230469 2.605469 L 15.105469 4.6875 L 15.105469 15.105469 L 18.230469 13.019531 Z M 18.230469 2.605469 "/>
<path style=" stroke:none;fill-rule:nonzero;fill-opacity:1;" d="M 0.519531 6.25 L 9.375 11.980469 L 9.375 8.332031 L 0.519531 2.605469 Z M 0.519531 6.25 "/>
<path style=" stroke:none;fill-rule:nonzero;fill-opacity:1;" d="M 18.230469 6.25 L 9.375 11.980469 L 9.375 8.332031 L 18.230469 2.605469 Z M 18.230469 6.25 "/>
<path style=" stroke:none;fill-rule:nonzero;fill-opacity:1;" d="M 18.230469 13.542969 L 9.375 19.269531 L 9.375 15.625 L 18.230469 9.894531 Z M 18.230469 13.542969 "/>
<path style=" stroke:none;fill-rule:nonzero;fill-opacity:1;" d="M 24.480469 17.707031 L 15.625 23.4375 L 15.625 19.792969 L 24.480469 14.0625 Z M 24.480469 17.707031 "/>
<path style=" stroke:none;fill-rule:nonzero;fill-opacity:1;" d="M 15.625 19.667969 L 9.375 15.625 L 9.375 19.269531 L 15.625 23.316406 Z M 15.625 19.667969 "/>
</g>
</svg>
