<?xml version="1.0" encoding="UTF-8"?>
<svg xmlns="http://www.w3.org/2000/svg" xmlns:xlink="http://www.w3.org/1999/xlink" width="25px" height="25px" viewBox="0 0 25 25" version="1.1">
<g id="surface1">
<path style=" stroke:none;fill-rule:evenodd;fill-opacity:1;" d="M 12.5 25 C 19.402344 25 25 19.402344 25 12.5 C 25 5.597656 19.402344 0 12.5 0 C 5.597656 0 0 5.597656 0 12.5 C 0 19.402344 5.597656 25 12.5 25 Z M 12.5 23.125 C 6.632812 23.125 1.875 18.367188 1.875 12.5 C 1.875 6.632812 6.632812 1.875 12.5 1.875 C 18.367188 1.875 23.125 6.632812 23.125 12.5 C 23.125 18.367188 18.367188 23.125 12.5 23.125 Z M 12.5 23.125 "/>
<path style=" stroke:none;fill-rule:evenodd;fill-opacity:1;" d="M 12.5 22.5 C 18.023438 22.5 22.5 18.023438 22.5 12.5 C 22.5 6.976562 18.023438 2.5 12.5 2.5 C 6.976562 2.5 2.5 6.976562 2.5 12.5 C 2.5 18.023438 6.976562 22.5 12.5 22.5 Z M 12.5 3.125 C 12.15625 3.125 11.875 3.40625 11.875 3.753906 L 11.875 11.875 L 7.5 11.875 C 7.152344 11.875 6.875 12.152344 6.875 12.5 C 6.875 12.84375 7.160156 13.125 7.496094 13.125 L 13.125 13.125 L 13.125 3.75 C 13.125 3.40625 12.847656 3.125 12.5 3.125 Z M 12.5 3.125 "/>
</g>
</svg>
