<?xml version="1.0" encoding="utf-8"?>
<svg xmlns="http://www.w3.org/2000/svg" width="25px" height="25px" viewBox="0 0 25 25" version="1">
  <g id="surface1">
    <path style=" stroke:none;fill-rule:nonzero;fill-opacity:1;" d="M 12.5 3.644531 C 15.050781 3.644531 17.449219 4.167969 19.011719 4.582031 C 19.636719 4.738281 20.050781 5.261719 20.15625 5.9375 C 20.261719 6.925781 20.3125 7.96875 20.3125 9.011719 C 20.3125 17.136719 14.324219 20.417969 12.5 21.199219 C 10.675781 20.363281 4.6875 17.082031 4.6875 9.011719 C 4.6875 7.96875 4.738281 6.925781 4.84375 5.9375 C 4.894531 5.261719 5.363281 4.738281 5.988281 4.582031 C 7.550781 4.167969 9.949219 3.644531 12.5 3.644531 M 12.5 2.082031 C 9.792969 2.082031 7.238281 2.605469 5.574219 3.074219 C 4.375 3.386719 3.4375 4.480469 3.332031 5.730469 C 3.230469 6.613281 3.125 7.761719 3.125 9.011719 C 3.125 19.6875 12.5 22.917969 12.5 22.917969 C 12.5 22.917969 21.875 19.6875 21.875 9.011719 C 21.875 7.707031 21.769531 6.613281 21.667969 5.730469 C 21.511719 4.425781 20.625 3.386719 19.375 3.074219 C 17.761719 2.605469 15.207031 2.082031 12.5 2.082031 Z M 12.5 2.082031 "/>
    <path style=" stroke:none;fill-rule:nonzero;fill-opacity:1;" d="M 12.5 5.207031 C 12.5 5.207031 9.375 7.8125 9.375 11.980469 C 9.375 14.6875 11.09375 16.40625 11.980469 17.1875 L 12.5 15.625 L 13.019531 17.1875 C 13.90625 16.40625 15.625 14.6875 15.625 11.980469 C 15.625 7.8125 12.5 5.207031 12.5 5.207031 Z M 12.5 5.207031 "/>
    <path style=" stroke:none;fill-rule:nonzero;fill-opacity:1;" d="M 12.5 5.207031 C 12.5 5.207031 9.375 7.8125 9.375 11.980469 C 9.375 14.6875 11.09375 16.40625 11.980469 17.1875 L 12.5 15.625 Z M 12.5 5.207031 "/>
    <path style="stroke: none; fill-rule: nonzero; fill-opacity: 1;" d="M 11.98 15.618 L 13.02 15.618 L 13.02 18.75 L 11.98 18.75 L 11.98 15.618 Z M 11.98 15.618"/>
  </g>
</svg>