<?xml version="1.0" encoding="UTF-8"?>
<svg xmlns="http://www.w3.org/2000/svg" xmlns:xlink="http://www.w3.org/1999/xlink" width="25px" height="25px" viewBox="0 0 25 25" version="1.1">
<g id="surface1">
<path style=" stroke:none;fill-rule:nonzero;fill-opacity:1;" d="M 23.457031 11.828125 C 23.394531 11.824219 23.320312 11.820312 23.246094 11.820312 C 22.867188 11.820312 22.503906 11.890625 22.171875 12.019531 L 22.191406 12.011719 C 22.09375 12.050781 21.9375 12.050781 21.925781 12.175781 C 21.980469 12.226562 21.988281 12.3125 22.03125 12.382812 C 22.125 12.539062 22.234375 12.667969 22.367188 12.777344 L 22.371094 12.78125 C 22.507812 12.886719 22.644531 12.992188 22.785156 13.082031 C 23.039062 13.238281 23.328125 13.332031 23.578125 13.488281 C 23.71875 13.582031 23.863281 13.695312 24.007812 13.792969 C 24.078125 13.84375 24.125 13.929688 24.214844 13.960938 L 24.214844 13.941406 C 24.171875 13.882812 24.15625 13.800781 24.113281 13.734375 C 24.046875 13.667969 23.984375 13.609375 23.917969 13.546875 C 23.722656 13.292969 23.5 13.074219 23.25 12.894531 L 23.238281 12.886719 C 23.03125 12.746094 22.574219 12.546875 22.488281 12.304688 L 22.476562 12.292969 C 22.644531 12.269531 22.796875 12.230469 22.941406 12.183594 L 22.925781 12.1875 C 23.144531 12.128906 23.347656 12.144531 23.578125 12.085938 C 23.679688 12.058594 23.785156 12.027344 23.890625 11.996094 L 23.890625 11.9375 C 23.773438 11.820312 23.6875 11.660156 23.566406 11.550781 C 23.246094 11.269531 22.894531 11.003906 22.523438 10.765625 L 22.488281 10.746094 C 22.28125 10.617188 22.023438 10.53125 21.804688 10.421875 C 21.726562 10.382812 21.597656 10.363281 21.550781 10.296875 C 21.449219 10.152344 21.359375 9.984375 21.289062 9.8125 L 21.285156 9.792969 C 21.09375 9.421875 20.914062 9.042969 20.75 8.660156 C 20.636719 8.359375 20.523438 8.113281 20.398438 7.875 L 20.417969 7.914062 C 19.804688 6.882812 18.949219 6.054688 17.925781 5.488281 L 17.894531 5.472656 C 17.652344 5.351562 17.371094 5.261719 17.078125 5.207031 L 17.058594 5.203125 C 16.894531 5.195312 16.730469 5.183594 16.570312 5.179688 C 16.453125 5.105469 16.355469 5.03125 16.265625 4.945312 L 16.265625 4.949219 C 15.894531 4.714844 14.933594 4.207031 14.660156 4.878906 C 14.484375 5.300781 14.921875 5.71875 15.074219 5.933594 C 15.195312 6.078125 15.304688 6.238281 15.398438 6.40625 L 15.40625 6.421875 C 15.453125 6.535156 15.464844 6.652344 15.511719 6.769531 C 15.625 7.125 15.738281 7.414062 15.867188 7.695312 L 15.847656 7.644531 C 15.925781 7.800781 16.007812 7.933594 16.097656 8.058594 L 16.089844 8.050781 C 16.140625 8.121094 16.230469 8.152344 16.253906 8.269531 C 16.1875 8.414062 16.132812 8.578125 16.105469 8.746094 L 16.101562 8.757812 C 16.019531 9.019531 15.96875 9.316406 15.96875 9.628906 C 15.96875 10.113281 16.089844 10.570312 16.300781 10.972656 L 16.292969 10.957031 C 16.398438 11.117188 16.644531 11.476562 16.976562 11.339844 C 17.269531 11.222656 17.207031 10.851562 17.289062 10.523438 C 17.308594 10.445312 17.296875 10.394531 17.335938 10.339844 L 17.335938 10.355469 C 17.429688 10.539062 17.519531 10.714844 17.605469 10.898438 C 17.839844 11.238281 18.121094 11.527344 18.441406 11.765625 L 18.453125 11.773438 C 18.609375 11.890625 18.730469 12.09375 18.925781 12.164062 L 18.925781 12.144531 L 18.914062 12.144531 C 18.867188 12.097656 18.820312 12.054688 18.765625 12.015625 L 18.761719 12.015625 C 18.640625 11.898438 18.527344 11.769531 18.425781 11.632812 L 18.421875 11.625 C 18.164062 11.28125 17.921875 10.890625 17.714844 10.484375 L 17.691406 10.4375 C 17.582031 10.230469 17.492188 10.011719 17.40625 9.808594 C 17.367188 9.730469 17.367188 9.613281 17.304688 9.574219 C 17.1875 9.703125 17.082031 9.847656 16.996094 10.003906 L 16.992188 10.015625 C 16.890625 10.308594 16.824219 10.644531 16.808594 10.992188 L 16.808594 11 C 16.78125 11.007812 16.792969 11 16.78125 11.015625 C 16.574219 10.964844 16.5 10.75 16.421875 10.566406 C 16.316406 10.28125 16.253906 9.949219 16.253906 9.605469 C 16.253906 9.328125 16.292969 9.058594 16.371094 8.804688 L 16.363281 8.824219 C 16.410156 8.6875 16.605469 8.257812 16.527344 8.125 C 16.488281 8 16.359375 7.929688 16.285156 7.828125 C 16.203125 7.707031 16.125 7.570312 16.058594 7.425781 L 16.050781 7.410156 C 15.894531 7.046875 15.816406 6.640625 15.648438 6.277344 C 15.546875 6.085938 15.4375 5.921875 15.316406 5.769531 L 15.324219 5.777344 C 15.195312 5.628906 15.074219 5.460938 14.972656 5.285156 L 14.964844 5.269531 C 14.929688 5.199219 14.886719 5.078125 14.9375 5 C 14.945312 4.957031 14.980469 4.921875 15.027344 4.914062 C 15.113281 4.84375 15.355469 4.933594 15.441406 4.972656 C 15.6875 5.066406 15.902344 5.179688 16.097656 5.308594 L 16.085938 5.300781 C 16.179688 5.363281 16.277344 5.488281 16.394531 5.519531 L 16.53125 5.519531 C 16.738281 5.566406 16.976562 5.535156 17.171875 5.589844 C 17.53125 5.710938 17.839844 5.863281 18.125 6.050781 L 18.109375 6.039062 C 18.972656 6.597656 19.664062 7.351562 20.128906 8.238281 L 20.144531 8.273438 C 20.222656 8.421875 20.257812 8.558594 20.328125 8.714844 C 20.464844 9.039062 20.636719 9.363281 20.773438 9.675781 C 20.90625 10.007812 21.0625 10.296875 21.25 10.566406 L 21.238281 10.550781 C 21.335938 10.6875 21.730469 10.757812 21.90625 10.828125 C 22.089844 10.894531 22.238281 10.957031 22.382812 11.027344 L 22.351562 11.011719 C 22.578125 11.148438 22.796875 11.304688 23.007812 11.457031 C 23.113281 11.53125 23.441406 11.695312 23.460938 11.824219 Z M 14.296875 17.539062 C 14.296875 17.550781 14.300781 17.566406 14.300781 17.578125 C 14.300781 18.015625 14.105469 18.40625 13.796875 18.667969 L 13.792969 18.667969 C 13.457031 18.945312 13.023438 19.109375 12.546875 19.109375 C 12.511719 19.109375 12.472656 19.109375 12.4375 19.109375 L 12.441406 19.109375 C 11.867188 19.101562 11.335938 18.914062 10.898438 18.597656 L 10.90625 18.605469 L 11.136719 18.140625 C 11.472656 18.328125 11.871094 18.445312 12.296875 18.460938 L 12.300781 18.460938 C 12.320312 18.460938 12.34375 18.460938 12.371094 18.460938 C 12.628906 18.460938 12.871094 18.382812 13.070312 18.242188 L 13.066406 18.246094 C 13.242188 18.109375 13.359375 17.898438 13.359375 17.65625 C 13.359375 17.652344 13.359375 17.648438 13.359375 17.644531 C 13.359375 17.324219 13.132812 17.050781 12.726562 16.820312 C 12.347656 16.613281 11.589844 16.179688 11.589844 16.179688 C 11.214844 15.949219 10.972656 15.539062 10.972656 15.078125 C 10.972656 15.058594 10.972656 15.042969 10.972656 15.027344 L 10.972656 15.03125 C 10.972656 15.015625 10.972656 14.996094 10.972656 14.980469 C 10.972656 14.578125 11.148438 14.21875 11.429688 13.972656 L 11.429688 13.96875 C 11.730469 13.71875 12.121094 13.5625 12.546875 13.5625 C 12.574219 13.5625 12.597656 13.5625 12.625 13.566406 L 12.621094 13.566406 C 12.628906 13.566406 12.636719 13.566406 12.644531 13.566406 C 13.144531 13.566406 13.609375 13.714844 13.996094 13.972656 L 13.988281 13.964844 L 13.78125 14.429688 C 13.476562 14.292969 13.117188 14.210938 12.742188 14.207031 C 12.722656 14.203125 12.703125 14.203125 12.679688 14.203125 C 12.460938 14.203125 12.261719 14.28125 12.101562 14.410156 L 12.105469 14.40625 C 11.957031 14.53125 11.863281 14.714844 11.863281 14.917969 C 11.863281 15.238281 12.089844 15.515625 12.511719 15.75 C 12.894531 15.957031 13.671875 16.402344 13.671875 16.402344 C 14.050781 16.625 14.304688 17.035156 14.304688 17.5 C 14.304688 17.515625 14.304688 17.53125 14.304688 17.542969 Z M 15.917969 17.957031 C 15.703125 17.53125 15.578125 17.027344 15.578125 16.496094 C 15.578125 16.414062 15.582031 16.332031 15.589844 16.25 L 15.589844 16.261719 C 15.589844 14.902344 16 14.222656 16.828125 14.21875 C 16.847656 14.21875 16.871094 14.21875 16.898438 14.21875 C 17.269531 14.21875 17.59375 14.410156 17.78125 14.703125 L 17.78125 14.707031 C 17.992188 15.132812 18.117188 15.632812 18.117188 16.160156 C 18.117188 16.242188 18.113281 16.320312 18.109375 16.402344 L 18.109375 16.390625 C 18.109375 17.761719 17.695312 18.445312 16.871094 18.449219 C 16.847656 18.449219 16.824219 18.449219 16.800781 18.449219 C 16.429688 18.449219 16.101562 18.257812 15.917969 17.964844 L 15.914062 17.960938 Z M 19.132812 19.167969 L 18.140625 18.679688 C 18.230469 18.605469 18.3125 18.523438 18.386719 18.4375 C 18.789062 17.894531 19.03125 17.214844 19.03125 16.480469 C 19.03125 16.394531 19.027344 16.308594 19.019531 16.226562 L 19.019531 16.238281 C 19.019531 14.449219 18.320312 13.554688 16.917969 13.554688 C 16.886719 13.554688 16.847656 13.554688 16.8125 13.554688 C 16.214844 13.554688 15.675781 13.816406 15.308594 14.234375 L 15.308594 14.238281 C 14.90625 14.777344 14.667969 15.457031 14.667969 16.191406 C 14.667969 16.277344 14.671875 16.359375 14.675781 16.4375 L 14.675781 16.429688 C 14.667969 16.507812 14.664062 16.597656 14.664062 16.691406 C 14.664062 17.375 14.878906 18.007812 15.242188 18.527344 L 15.238281 18.515625 C 15.585938 18.890625 16.085938 19.125 16.636719 19.125 C 16.6875 19.125 16.738281 19.121094 16.789062 19.117188 L 16.78125 19.117188 C 16.789062 19.117188 16.796875 19.117188 16.804688 19.117188 C 17.050781 19.117188 17.285156 19.082031 17.507812 19.019531 L 17.488281 19.023438 L 18.785156 19.777344 L 19.136719 19.167969 Z M 22.371094 19.035156 L 19.804688 19.035156 L 19.804688 13.636719 L 20.667969 13.636719 L 20.667969 18.371094 L 22.371094 18.371094 Z M 10.339844 15.054688 C 10.117188 16.679688 9.601562 18.152344 8.851562 19.46875 L 8.882812 19.40625 C 8.582031 19.984375 8.011719 20.390625 7.34375 20.453125 L 7.335938 20.453125 C 7.136719 20.445312 6.945312 20.394531 6.777344 20.316406 L 6.785156 20.320312 L 6.785156 19.839844 C 6.890625 19.855469 7.015625 19.863281 7.140625 19.863281 C 7.148438 19.863281 7.15625 19.863281 7.164062 19.863281 C 7.175781 19.863281 7.1875 19.863281 7.203125 19.863281 C 7.429688 19.863281 7.636719 19.78125 7.796875 19.644531 L 7.792969 19.648438 C 7.964844 19.503906 8.074219 19.292969 8.082031 19.058594 L 8.082031 19.054688 C 8.039062 18.714844 7.960938 18.402344 7.847656 18.109375 L 7.859375 18.132812 L 6.867188 15.054688 L 7.757812 15.054688 L 8.464844 17.355469 C 8.59375 17.683594 8.667969 18.058594 8.667969 18.453125 C 9.042969 17.46875 9.328125 16.316406 9.472656 15.125 L 9.480469 15.050781 Z M 6.417969 19.035156 L 5.511719 19.035156 C 5.488281 17.597656 5.398438 16.164062 5.25 14.730469 L 5.242188 14.730469 L 3.867188 19.035156 L 3.175781 19.035156 L 1.808594 14.730469 L 1.800781 14.730469 C 1.695312 16.164062 1.628906 17.597656 1.609375 19.035156 L 0.785156 19.035156 C 0.839844 17.117188 0.972656 15.316406 1.183594 13.636719 L 2.308594 13.636719 L 3.609375 17.605469 L 3.617188 17.605469 L 4.933594 13.636719 L 6.003906 13.636719 C 6.238281 15.605469 6.378906 17.402344 6.421875 19.035156 Z M 16.800781 6.15625 C 16.800781 6.15625 16.796875 6.15625 16.792969 6.15625 C 16.703125 6.15625 16.613281 6.167969 16.527344 6.1875 L 16.535156 6.1875 L 16.535156 6.199219 L 16.546875 6.199219 C 16.613281 6.300781 16.683594 6.386719 16.757812 6.46875 L 16.753906 6.464844 C 16.808594 6.570312 16.851562 6.675781 16.90625 6.777344 L 16.917969 6.765625 C 17.003906 6.695312 17.058594 6.59375 17.058594 6.476562 C 17.058594 6.464844 17.058594 6.449219 17.054688 6.4375 C 17.015625 6.390625 17.011719 6.347656 16.976562 6.300781 C 16.9375 6.234375 16.855469 6.203125 16.800781 6.152344 Z M 16.800781 6.15625 "/>
</g>
</svg>
