<?xml version="1.0" encoding="UTF-8"?>
<svg xmlns="http://www.w3.org/2000/svg" xmlns:xlink="http://www.w3.org/1999/xlink" width="25px" height="25px" viewBox="0 0 25 25" version="1.1">
<g id="surface1">
<path style=" stroke:none;fill-rule:nonzero;fill-opacity:1;" d="M 17.640625 8.875 C 17.757812 8.933594 17.867188 9.015625 17.957031 9.113281 L 20.402344 8.023438 L 18.121094 5.761719 L 17.605469 8.84375 Z M 12.5625 6.820312 C 12.683594 7 12.757812 7.203125 12.78125 7.417969 L 16.421875 8.960938 C 16.53125 8.875 16.65625 8.8125 16.792969 8.777344 L 17.390625 5.078125 L 15.171875 2.75 L 12.558594 6.761719 Z M 24.992188 12.535156 L 21.089844 8.632812 L 18.433594 9.722656 L 24.960938 12.496094 C 24.960938 12.496094 25.015625 12.535156 24.992188 12.535156 Z M 24.339844 13.171875 L 18.074219 10.492188 C 17.898438 10.726562 17.636719 10.878906 17.347656 10.917969 L 16.675781 15.039062 C 16.875 15.242188 16.988281 15.515625 16.988281 15.800781 L 20.773438 16.59375 L 24.242188 13.144531 L 24.242188 13.082031 Z M 16.039062 9.636719 L 12.640625 8.1875 C 12.398438 8.550781 11.988281 8.769531 11.550781 8.75 L 11.34375 8.75 L 8.527344 13.101562 L 16.054688 9.84375 L 16.054688 9.851562 C 16.050781 9.792969 16.050781 9.738281 16.054688 9.675781 C 16.058594 9.664062 16.054688 9.648438 16.039062 9.636719 Z M 20.175781 17.25 L 16.847656 16.5625 C 16.71875 16.722656 16.558594 16.847656 16.367188 16.917969 L 15.570312 21.839844 L 20.195312 17.257812 C 20.195312 17.257812 20.1875 17.28125 20.171875 17.28125 Z M 15.519531 16.910156 C 15.199219 16.78125 14.960938 16.503906 14.875 16.167969 L 8.679688 14.898438 L 8.589844 15.039062 L 14.214844 23.171875 L 14.550781 22.839844 L 15.507812 16.929688 C 15.507812 16.929688 15.539062 16.957031 15.519531 16.945312 Z M 8.808594 14.148438 L 14.933594 15.410156 C 15.113281 15.097656 15.433594 14.894531 15.792969 14.863281 L 16.457031 10.8125 L 16.3125 10.691406 L 8.699219 13.953125 C 8.742188 14.011719 8.777344 14.078125 8.808594 14.148438 Z M 6.242188 15.167969 L 6.109375 15.039062 L 3.46875 16.125 L 4.75 17.398438 L 6.207031 15.136719 Z M 7.984375 15.585938 C 7.800781 15.667969 7.597656 15.710938 7.398438 15.714844 C 7.234375 15.714844 7.082031 15.691406 6.925781 15.636719 L 5.320312 17.976562 L 12.367188 24.960938 L 13.605469 23.726562 Z M 6.996094 12.832031 C 7.101562 12.820312 7.210938 12.820312 7.320312 12.832031 C 7.4375 12.816406 7.558594 12.816406 7.679688 12.832031 L 10.527344 8.40625 C 10.304688 8.175781 10.179688 7.867188 10.179688 7.546875 C 10.167969 7.453125 10.167969 7.355469 10.179688 7.261719 L 6.722656 5.664062 L 3.9375 8.375 Z M 7.308594 5.121094 L 10.679688 6.558594 C 10.925781 6.355469 11.234375 6.25 11.550781 6.261719 C 11.691406 6.265625 11.828125 6.285156 11.960938 6.328125 L 14.597656 2.21875 L 12.417969 0.0390625 L 7.308594 5.058594 C 7.308594 5.058594 7.300781 5.109375 7.308594 5.121094 Z M 6.046875 13.628906 C 6.117188 13.5 6.199219 13.382812 6.300781 13.277344 L 3.414062 8.972656 L 0 12.289062 Z M 5.773438 14.355469 L 0.554688 13.265625 L 2.847656 15.59375 L 5.742188 14.363281 Z M 5.773438 14.355469 "/>
</g>
</svg>
