<?xml version="1.0" encoding="UTF-8"?>
<svg xmlns="http://www.w3.org/2000/svg" xmlns:xlink="http://www.w3.org/1999/xlink" width="25px" height="25px" viewBox="0 0 25 25" version="1.1">
<g id="surface1">
<path style=" stroke:none;fill-rule:nonzero;fill-opacity:1;" d="M 9.882812 16.40625 C 9.882812 16.835938 9.53125 17.1875 9.101562 17.1875 C 8.667969 17.1875 8.320312 16.835938 8.320312 16.40625 L 8.320312 9.113281 C 8.320312 8.773438 8.539062 8.472656 8.863281 8.371094 C 9.191406 8.265625 9.542969 8.386719 9.738281 8.664062 L 18.476562 21.007812 C 21.15625 19.121094 22.917969 16.007812 22.917969 12.5 C 22.917969 6.769531 18.230469 2.082031 12.5 2.082031 C 6.769531 2.082031 2.082031 6.769531 2.082031 12.5 C 2.082031 18.230469 6.769531 22.917969 12.5 22.917969 C 14.164062 22.917969 15.730469 22.511719 17.128906 21.8125 L 9.882812 11.570312 Z M 15.089844 8.59375 C 15.089844 8.164062 15.441406 7.8125 15.871094 7.8125 C 16.304688 7.8125 16.652344 8.164062 16.652344 8.59375 L 16.652344 15.800781 L 15.089844 13.601562 Z M 15.089844 8.59375 "/>
</g>
</svg>
