<?xml version="1.0" encoding="UTF-8"?>
<svg xmlns="http://www.w3.org/2000/svg" xmlns:xlink="http://www.w3.org/1999/xlink" width="28px" height="28px" viewBox="0 0 28 28" version="1.1">
<g id="surface1">
<path style=" stroke:none;fill-rule:nonzero;fill-opacity:1;" d="M 13.996094 2.625 C 13.675781 2.625 13.355469 2.703125 13.082031 2.859375 L 4.410156 7.867188 C 3.847656 8.191406 3.5 8.804688 3.5 9.449219 L 3.5 18.53125 C 3.5 19.1875 3.847656 19.792969 4.410156 20.117188 L 6.6875 21.429688 C 7.789062 21.972656 8.179688 21.972656 8.679688 21.972656 C 10.316406 21.972656 11.253906 20.980469 11.253906 19.265625 L 11.253906 9.898438 C 11.253906 9.757812 11.140625 9.640625 11 9.640625 L 9.90625 9.640625 C 9.757812 9.640625 9.652344 9.757812 9.652344 9.898438 L 9.652344 19.257812 C 9.652344 20.027344 8.855469 20.78125 7.570312 20.140625 L 5.1875 18.769531 C 5.101562 18.722656 5.046875 18.628906 5.046875 18.53125 L 5.046875 9.460938 C 5.046875 9.355469 5.101562 9.265625 5.1875 9.214844 L 13.859375 4.210938 C 13.9375 4.15625 14.042969 4.15625 14.132812 4.210938 L 22.804688 9.214844 C 22.890625 9.265625 22.941406 9.355469 22.941406 9.449219 L 22.941406 18.53125 C 22.941406 18.628906 22.890625 18.722656 22.8125 18.769531 L 14.132812 23.78125 C 14.054688 23.824219 13.9375 23.824219 13.859375 23.78125 L 11.628906 22.460938 C 11.566406 22.417969 11.480469 22.410156 11.417969 22.445312 C 10.796875 22.792969 10.683594 22.835938 10.105469 23.039062 C 9.96875 23.082031 9.75 23.167969 10.1875 23.414062 L 13.082031 25.128906 C 13.359375 25.289062 13.675781 25.375 13.992188 25.375 C 14.316406 25.375 14.628906 25.289062 14.910156 25.128906 L 23.589844 20.117188 C 24.152344 19.792969 24.5 19.1875 24.5 18.53125 L 24.5 9.460938 C 24.5 8.804688 24.152344 8.199219 23.589844 7.875 L 14.910156 2.859375 C 14.632812 2.703125 14.3125 2.625 13.996094 2.625 Z M 16.328125 9.628906 C 13.851562 9.628906 12.375 10.679688 12.375 12.429688 C 12.375 14.328125 13.839844 14.851562 16.222656 15.089844 C 19.066406 15.367188 19.285156 15.789062 19.285156 16.351562 C 19.285156 17.3125 18.507812 17.722656 16.679688 17.722656 C 14.375 17.722656 13.867188 17.144531 13.703125 16.007812 C 13.683594 15.886719 13.582031 15.796875 13.457031 15.796875 L 12.328125 15.796875 C 12.1875 15.796875 12.085938 15.914062 12.085938 16.042969 C 12.085938 17.503906 12.878906 19.246094 16.679688 19.246094 C 19.425781 19.246094 21 18.160156 21 16.269531 C 21 14.398438 19.730469 13.898438 17.070312 13.539062 C 14.367188 13.191406 14.097656 13.007812 14.097656 12.375 C 14.097656 11.851562 14.332031 11.160156 16.328125 11.160156 C 18.105469 11.160156 18.769531 11.546875 19.039062 12.742188 C 19.066406 12.859375 19.160156 12.945312 19.285156 12.945312 L 20.414062 12.945312 C 20.484375 12.945312 20.542969 12.910156 20.597656 12.859375 C 20.640625 12.816406 20.667969 12.742188 20.660156 12.664062 C 20.484375 10.601562 19.109375 9.628906 16.328125 9.628906 Z M 16.328125 9.628906 "/>
</g>
</svg>
