<?xml version="1.0" encoding="utf-8"?>
<svg version="1.0" xmlns="http://www.w3.org/2000/svg" width="25px" height="25px" viewBox="0 0 25 25" preserveAspectRatio="xMidYMid meet">
  <g transform="matrix(0.012675, 0, 0, -0.012675, -0.275605, 25.073668)" stroke="none" style="">
    <path d="M235 1859 c-33 -19 -76 -62 -91 -91 -19 -37 -18 -122 3 -166 9 -19 36 -49 60 -65 l43 -31 0 -258 0 -257 -29 -16 c-50 -25 -84 -79 -89 -140 -6 -72 2 -98 43 -144 46 -51 82 -64 154 -59 45 3 68 11 96 32 62 48 90 135 65 202 -10 27 -6 32 82 120 l93 93 45 -11 c130 -30 252 92 222 222 l-11 45 93 93 c88 88 93 92 120 82 67 -25 154 3 202 65 21 28 29 51 32 96 5 72 -8 108 -59 154 -46 41 -72 49 -144 43 -115 -10 -194 -130 -155 -234 10 -27 6 -32 -82 -121 l-93 -92 -42 11 c-31 7 -55 7 -85 0 l-43 -11 -93 92 c-88 89 -92 94 -82 121 25 67 -3 154 -65 202 -31 24 -49 29 -104 32 -38 1 -75 -2 -86 -9z m117 -126 c20 -18 24 -73 6 -91 -7 -7 -25 -12 -42 -12 -59 0 -87 59 -46 100 24 24 57 26 82 3z m878 -3 c40 -40 13 -100 -45 -100 -39 0 -55 16 -55 54 0 59 59 87 100 46z m-743 -302 l92 -93 -11 -42 c-7 -31 -7 -55 0 -85 l11 -43 -92 -92 c-50 -51 -95 -93 -99 -93 -5 0 -8 122 -8 270 0 149 3 270 8 270 4 0 49 -42 99 -92z m305 -135 c22 -20 23 -61 1 -85 -34 -38 -103 -11 -103 40 0 54 62 81 102 45z m-434 -435 c7 -7 12 -25 12 -42 0 -59 -59 -87 -100 -46 -24 24 -26 57 -3 82 18 20 73 24 91 6z"/>
    <path d="M1462 1734 c-22 -15 -29 -57 -14 -81 15 -23 65 -33 166 -33 141 0 136 8 136 -203 l0 -167 -355 0 c-342 0 -356 -1 -375 -20 -26 -26 -25 -62 1 -86 20 -18 43 -19 375 -22 l354 -3 0 -184 0 -185 -500 0 -500 0 0 105 c0 92 -3 108 -20 125 -26 26 -62 25 -86 -1 -18 -20 -19 -41 -19 -368 l0 -346 27 -45 c16 -28 43 -55 70 -70 l43 -25 485 0 485 0 43 25 c27 15 54 42 70 70 l27 45 0 655 c0 360 -4 672 -8 692 -10 49 -51 96 -102 119 -54 25 -269 27 -303 3z m288 -1279 c0 -152 -2 -167 -20 -185 -19 -19 -33 -20 -480 -20 -447 0 -461 1 -480 20 -18 18 -20 33 -20 185 l0 165 500 0 500 0 0 -165z"/>
    <path d="M1207 542 c-13 -14 -17 -39 -17 -105 0 -74 3 -90 20 -107 25 -25 55 -25 80 0 17 17 20 33 20 108 0 73 -3 92 -18 105 -24 22 -65 21 -85 -1z"/>
    <path d="M1403 552 c-29 -18 -42 -106 -27 -181 12 -57 68 -75 109 -35 21 22 21 171 -1 202 -15 22 -57 29 -81 14z"/>
    <path d="M1580 540 c-17 -17 -20 -33 -20 -100 0 -73 3 -83 25 -105 13 -14 31 -25 40 -25 9 0 27 11 40 25 22 22 25 32 25 105 0 89 -17 120 -65 120 -14 0 -34 -9 -45 -20z"/>
    <path d="M1403 1552 c-29 -18 -42 -106 -27 -181 12 -57 68 -75 109 -35 21 22 21 171 -1 202 -15 22 -57 29 -81 14z"/>
    <path d="M1580 1540 c-17 -17 -20 -33 -20 -100 0 -73 3 -83 25 -105 13 -14 31 -25 40 -25 9 0 27 11 40 25 22 22 25 32 25 105 0 89 -17 120 -65 120 -14 0 -34 -9 -45 -20z"/>
    <path d="M1207 1042 c-13 -14 -17 -39 -17 -105 0 -74 3 -90 20 -107 11 -11 29 -20 40 -20 11 0 29 9 40 20 17 17 20 33 20 108 0 73 -3 92 -18 105 -24 22 -65 21 -85 -1z"/>
    <path d="M1403 1052 c-29 -18 -42 -106 -27 -181 12 -57 68 -75 109 -35 21 22 21 171 -1 202 -15 22 -57 29 -81 14z"/>
    <path d="M1580 1040 c-17 -17 -20 -33 -20 -100 0 -73 3 -83 25 -105 13 -14 31 -25 40 -25 9 0 27 11 40 25 22 22 25 32 25 105 0 89 -17 120 -65 120 -14 0 -34 -9 -45 -20z"/>
  </g>
</svg>