<?xml version="1.0" encoding="UTF-8"?>
<svg xmlns="http://www.w3.org/2000/svg" xmlns:xlink="http://www.w3.org/1999/xlink" width="25px" height="25px" viewBox="0 0 25 25" version="1.1">
<g id="surface1">
<path style=" stroke:none;fill-rule:nonzero;fill-opacity:1;" d="M 14.089844 0.101562 C 7.242188 -0.773438 0.980469 4.0625 0.101562 10.910156 C -0.773438 17.757812 4.0625 24.019531 10.910156 24.898438 C 17.757812 25.773438 24.019531 20.9375 24.894531 14.089844 C 25.773438 7.242188 20.941406 0.980469 14.089844 0.101562 Z M 16.664062 7.902344 C 16.429688 7.902344 16.210938 7.996094 16.046875 8.164062 L 11.410156 12.796875 L 11.089844 12.480469 L 10.421875 11.808594 C 14.988281 7.25 15.816406 7.207031 16.660156 7.902344 Z M 11.601562 12.964844 L 16.222656 8.335938 C 16.480469 8.070312 16.90625 8.074219 17.164062 8.339844 C 17.414062 8.613281 17.390625 9.042969 17.105469 9.277344 L 12.210938 13.574219 Z M 11.941406 13.6875 L 10.796875 13.9375 C 10.769531 13.941406 10.738281 13.925781 10.726562 13.898438 C 10.714844 13.875 10.71875 13.847656 10.738281 13.824219 L 11.410156 13.152344 Z M 9.019531 13.207031 L 10.246094 11.988281 L 11.160156 12.902344 L 9.097656 13.347656 C 9.0625 13.355469 9.027344 13.339844 9.007812 13.304688 C 8.988281 13.273438 8.996094 13.234375 9.019531 13.207031 Z M 5.226562 19.519531 C 5.179688 19.515625 5.148438 19.472656 5.152344 19.433594 C 5.15625 19.414062 5.164062 19.398438 5.175781 19.382812 L 5.179688 19.382812 L 6.164062 18.398438 L 7.4375 19.675781 Z M 7.75 18.207031 C 7.652344 18.261719 7.605469 18.371094 7.628906 18.476562 L 7.839844 19.378906 C 7.875 19.507812 7.714844 19.597656 7.621094 19.5 L 7.617188 19.5 L 6.339844 18.222656 L 10.257812 14.304688 L 12.15625 13.894531 L 13.0625 14.808594 C 11.753906 15.953125 9.96875 17.097656 7.75 18.207031 Z M 13.25 14.640625 L 12.375 13.765625 L 17.269531 9.46875 C 17.3125 9.429688 17.355469 9.382812 17.390625 9.339844 C 17.242188 10.738281 15.277344 12.714844 13.25 14.640625 Z M 17.0625 7.910156 L 17.058594 7.910156 C 15.351562 6.195312 17.761719 3.5625 19.617188 5.109375 L 17.941406 6.792969 C 17.890625 6.839844 17.890625 6.921875 17.941406 6.96875 L 19.238281 8.269531 C 18.511719 8.628906 17.636719 8.484375 17.0625 7.910156 Z M 19.742188 7.910156 C 19.65625 7.996094 19.5625 8.074219 19.460938 8.136719 L 18.207031 6.878906 L 19.800781 5.28125 C 20.492188 6.035156 20.464844 7.191406 19.742188 7.910156 Z M 19.640625 6.304688 C 19.589844 6.339844 19.566406 6.402344 19.585938 6.464844 C 19.660156 6.621094 19.640625 6.804688 19.53125 6.933594 C 19.476562 7 19.492188 7.089844 19.554688 7.140625 C 19.582031 7.15625 19.609375 7.167969 19.640625 7.167969 C 19.683594 7.167969 19.726562 7.152344 19.75 7.121094 C 19.933594 6.902344 19.96875 6.589844 19.84375 6.335938 C 19.796875 6.269531 19.707031 6.253906 19.640625 6.304688 Z M 19.640625 6.304688 "/>
</g>
</svg>
