<?xml version="1.0" encoding="UTF-8"?>
<svg xmlns="http://www.w3.org/2000/svg" xmlns:xlink="http://www.w3.org/1999/xlink" width="25px" height="25px" viewBox="0 0 25 25" version="1.1">
<g id="surface1">
<path style=" stroke:none;fill-rule:nonzero;fill-opacity:1;" d="M 17.601562 1.050781 C 16.851562 1.050781 16.199219 1.199219 15.601562 1.351562 C 16.648438 1.796875 17.300781 2.351562 17.648438 2.601562 C 18.453125 3.296875 18.898438 4 19.703125 5.148438 C 19.851562 5.398438 20.101562 5.75 20.25 6.296875 C 20.398438 6.796875 20.398438 7.199219 20.398438 7.601562 C 20.398438 8.148438 20.351562 8.601562 20.296875 9.046875 C 20.25 9.398438 20.25 9.550781 20.203125 9.648438 C 20.203125 9.703125 20.203125 9.75 20.148438 9.851562 C 20.148438 10.101562 20.148438 10.203125 20.203125 10.398438 C 20.203125 10.601562 20.25 10.800781 20.25 11.148438 C 20.300781 11.800781 20.300781 12.25 20.203125 12.796875 L 20.203125 13 C 20.101562 13.449219 20 13.898438 19.75 14.296875 C 19.800781 14.398438 19.851562 14.449219 19.898438 14.546875 C 20.148438 14.199219 20.351562 13.851562 20.546875 13.453125 C 21.148438 12.351562 21.5 11.398438 21.75 10.703125 C 22.199219 9.398438 22.449219 8.449219 22.601562 7.75 C 22.949219 6.25 23 5.550781 22.851562 4.75 C 22.851562 4.5 22.75 4.046875 22.5 3.601562 C 21.949219 2.601562 21.101562 2.148438 20.5 1.851562 C 20.101562 1.648438 19.046875 1.101562 17.601562 1.050781 Z M 6.765625 1.273438 C 6.191406 1.257812 5.488281 1.324219 4.699219 1.699219 C 4.449219 1.800781 3.699219 2.148438 3.101562 2.949219 C 2.699219 3.449219 2.398438 4.199219 2.25 5.046875 C 2.101562 5.796875 2.046875 6.703125 2.351562 8.398438 C 2.546875 9.601562 2.75 10.398438 3.148438 12.046875 C 3.203125 12.25 3.5 13.148438 4.148438 15.148438 L 4.199219 15.25 C 4.300781 15.601562 4.601562 16.351562 5.25 17.101562 C 5.699219 17.601562 6.101562 17.898438 6.453125 17.898438 L 6.546875 17.898438 C 7.199219 17.898438 7.648438 17.398438 8.046875 17 C 8.046875 16.949219 9 15.800781 9.351562 15.398438 C 9.296875 15.351562 9.203125 15.351562 9.148438 15.296875 C 8.550781 14.949219 8.101562 14.398438 7.75 13.796875 C 7.148438 12.699219 7.199219 11.601562 7.296875 11.046875 L 7.351562 10.203125 C 7.148438 8.851562 7.203125 7.550781 7.453125 6.25 C 7.648438 5.148438 7.898438 4.050781 8.796875 2.898438 C 9.101562 2.5 9.449219 2.148438 9.796875 1.898438 C 9 1.550781 8.148438 1.351562 7.296875 1.300781 C 7.136719 1.289062 6.960938 1.273438 6.765625 1.273438 Z M 13.046875 1.699219 C 12.796875 1.699219 12.546875 1.699219 12.296875 1.75 C 11.296875 1.949219 10.351562 2.5 9.601562 3.449219 C 8.851562 4.398438 8.648438 5.296875 8.453125 6.351562 C 8.351562 6.75 8.351562 7.101562 8.296875 7.5 C 8.601562 7.25 9 6.949219 9.601562 6.796875 C 9.949219 6.699219 10.851562 6.398438 11.601562 6.851562 C 11.851562 7 12.199219 7.300781 12.546875 8.148438 C 13.296875 10.25 12.550781 12.398438 12.453125 12.601562 C 12.398438 12.796875 12.300781 12.949219 12.25 13.046875 C 12.148438 13.296875 12.050781 13.5 11.953125 13.898438 C 11.898438 14.25 11.851562 14.550781 11.851562 14.898438 C 12 14.898438 12.148438 14.949219 12.296875 15.046875 C 12.546875 15.296875 12.601562 15.648438 12.648438 15.796875 C 12.75 16.601562 12.75 17.601562 12.75 18.601562 C 12.75 19.398438 12.75 20.148438 12.796875 20.648438 C 12.898438 21.800781 13.25 22.601562 13.75 23 C 14.101562 23.300781 14.546875 23.296875 14.796875 23.351562 L 14.898438 23.351562 C 15.648438 23.351562 16.851562 22.851562 17.296875 22.148438 C 17.546875 21.75 17.648438 21.398438 17.75 20.898438 C 17.800781 20.601562 17.796875 20.453125 17.851562 20.148438 C 17.851562 20 17.898438 19.75 17.898438 19.453125 C 17.898438 19.203125 17.949219 18.898438 18 18.546875 C 18.050781 17.699219 18.199219 16.703125 18.25 16.148438 C 18.300781 15.5 18.601562 14.949219 18.851562 14.601562 C 18.5 14.546875 18.148438 14.25 17.953125 13.75 C 17.648438 13.199219 17.601562 13.046875 17.546875 12.796875 C 17.5 12.601562 17.398438 12.351562 17.046875 11.601562 C 16.296875 9.898438 16.203125 9.398438 16.203125 9 C 16.148438 8.449219 16.101562 7.703125 16.703125 7.203125 C 17.601562 6.398438 18.75 6.453125 19.351562 6.648438 L 19.351562 6.546875 C 19.25 6.148438 19.050781 5.851562 18.898438 5.648438 C 18.148438 4.5 17.75 3.898438 17.046875 3.300781 C 16.75 3.050781 16 2.449219 14.898438 2.050781 C 14.398438 1.898438 13.796875 1.699219 13.046875 1.699219 Z M 18.578125 7.5625 C 18.210938 7.539062 17.75 7.601562 17.351562 7.953125 C 17.148438 8.148438 17.148438 8.550781 17.203125 8.898438 C 17.203125 9.148438 17.25 9.5 18 11.203125 C 18.351562 12 18.449219 12.25 18.5 12.453125 C 18.550781 12.648438 18.601562 12.75 18.898438 13.296875 C 18.953125 13.398438 19 13.5 19.101562 13.601562 C 19.199219 13.449219 19.25 13.199219 19.296875 12.796875 L 19.351562 12.648438 C 19.449219 12.203125 19.398438 11.851562 19.398438 11.25 C 19.398438 10.949219 19.351562 10.75 19.351562 10.601562 C 19.296875 10.351562 19.296875 10.148438 19.296875 9.851562 C 19.199219 9.699219 19.199219 9.648438 19.25 9.546875 C 19.25 9.449219 19.296875 9.300781 19.351562 9 C 19.398438 8.601562 19.453125 8.25 19.453125 7.851562 C 19.351562 7.796875 19.300781 7.75 19.203125 7.703125 C 19.203125 7.703125 18.9375 7.585938 18.578125 7.5625 Z M 10.757812 7.757812 C 10.4375 7.722656 10.074219 7.828125 9.851562 7.898438 C 9.296875 8.050781 8.953125 8.398438 8.703125 8.601562 C 8.550781 8.75 8.398438 8.898438 8.25 9.101562 C 8.25 9.449219 8.296875 9.800781 8.351562 10.148438 L 8.351562 10.203125 L 8.25 11.203125 C 8.148438 11.648438 8.101562 12.5 8.601562 13.351562 C 8.851562 13.851562 9.203125 14.25 9.648438 14.5 C 9.953125 14.699219 10.351562 14.851562 10.796875 14.953125 C 10.796875 14.601562 10.851562 14.199219 10.898438 13.851562 C 11 13.351562 11.101562 13.101562 11.25 12.796875 C 11.300781 12.648438 11.351562 12.550781 11.453125 12.398438 C 11.5 12.25 12.199219 10.351562 11.546875 8.601562 C 11.398438 8.199219 11.25 7.949219 11.046875 7.851562 C 10.960938 7.796875 10.859375 7.773438 10.757812 7.757812 Z M 18.09375 8.046875 C 18.226562 8.039062 18.351562 8.046875 18.398438 8.101562 C 18.550781 8.199219 18.351562 8.449219 18.296875 8.5 C 18.25 8.550781 18.148438 8.648438 18 8.703125 C 17.800781 8.75 17.648438 8.601562 17.601562 8.601562 C 17.546875 8.546875 17.398438 8.398438 17.453125 8.25 C 17.5 8.148438 17.550781 8.148438 17.75 8.101562 C 17.824219 8.074219 17.960938 8.050781 18.09375 8.046875 Z M 10.578125 8.460938 C 10.746094 8.445312 10.886719 8.511719 11 8.546875 C 11.148438 8.601562 11.296875 8.648438 11.296875 8.75 C 11.351562 8.898438 11.203125 9 11.148438 9.046875 C 11 9.199219 10.75 9.203125 10.75 9.203125 C 10.5 9.203125 10.351562 9.050781 10.25 8.898438 C 10.199219 8.851562 10.148438 8.75 10.203125 8.648438 C 10.25 8.550781 10.351562 8.5 10.398438 8.5 C 10.460938 8.476562 10.523438 8.460938 10.578125 8.460938 Z M 19.75 15 C 19.5 15.351562 19.148438 15.800781 19.101562 16.398438 C 19.101562 16.5 19.101562 16.550781 19.046875 16.648438 C 19.449219 16.75 19.800781 16.75 20.148438 16.703125 C 20.953125 16.601562 21.5 16.199219 21.601562 16.101562 C 21.949219 15.851562 22.398438 15.351562 22.296875 15.148438 C 22.25 15.050781 22.101562 15.101562 21.296875 15.148438 C 21.101562 15.148438 20.5 15.300781 20.101562 15.203125 L 20 15.203125 C 19.898438 15.148438 19.800781 15.101562 19.75 15 Z M 11.046875 16 C 10.949219 16.148438 10.800781 16.25 10.703125 16.351562 C 10.300781 16.601562 9.796875 16.800781 9.296875 16.898438 C 8.851562 17.050781 8.601562 17.050781 8.601562 17.203125 C 8.546875 17.398438 9.046875 17.648438 9.296875 17.75 C 10.148438 18.101562 11 17.898438 11.148438 17.851562 C 11.25 17.796875 11.5 17.699219 11.75 17.546875 C 11.75 17 11.703125 16.5 11.648438 16.101562 L 11.648438 16.046875 L 11.601562 16.046875 C 11.449219 16.046875 11.25 16.050781 11.046875 16 Z M 11.046875 16 "/>
</g>
</svg>
