<svg xmlns="http://www.w3.org/2000/svg" viewBox="0 0 25 25" width="25px" height="25px">
  <path d="M 12.25 1 C 7.9 1 7 3.246094 7 4.546875 L 7 7 L 12 7 L 12 7.5 L 4.546875 7.5 C 2.896484 7.5 1 4.300781 1 12.5 C 1 16.199219 2.896484 17.5 4.546875 17.5 L 7.5 17.5 L 7.5 14.5 C 7.5 13.400391 8.4 12.5 9.5 12.5 L 15.5 12.5 C 16.349219 12.5 17.5 11.699219 17.5 10.5 L 17.5 4.546875 C 17.5 2.796875 15.349219 1 12.25 1 Z M 10 3.5 C 10.600781 3.5 11.5 4.398438 11.5 5.5 C 11.5 6.601563 10.600781 7.5 10 7.5 C 9.399219 7.5 9 6.601563 9 5.5 C 9 4.398438 9.399219 3.5 10 3.5 Z M 17.5 7.5 L 17.5 11 C 17.5 12.099219 15.699219 13 15.5 13 L 9.5 13 C 8.300781 13 7.5 14.300781 7.5 15.5 L 7.5 20.453125 C 7.5 22.203125 9.300781 24 12.75 24 C 17.099219 24 18 20.507813 18 20.453125 L 18 18 L 13 18 L 13 17.5 L 20.453125 17.5 C 22.103516 17.5 24 15.199219 24 12.5 C 24 8.800781 22.103516 7.5 20.453125 7.5 Z M 15 19.5 C 16.100781 19.5 17 20.398438 17 21.5 C 17 22.601563 16.100781 23.5 15 23.5 C 13.899219 23.5 13 22.601563 13 21.5 C 13 20.398438 13.899219 19.5 15 19.5 Z"/>
</svg>