<?xml version="1.0" encoding="UTF-8"?>
<svg xmlns="http://www.w3.org/2000/svg" xmlns:xlink="http://www.w3.org/1999/xlink" width="25px" height="25px" viewBox="0 0 25 25" version="1.1">
<g id="surface1">
<path style=" stroke:none;fill-rule:nonzero;fill-opacity:1;" d="M 18.390625 3.328125 L 14.535156 3.328125 C 14.253906 2.445312 13.429688 1.84375 12.5 1.84375 C 11.574219 1.84375 10.75 2.445312 10.46875 3.328125 L 6.609375 3.328125 C 5.089844 3.328125 3.859375 4.5625 3.859375 6.078125 L 3.859375 20.40625 C 3.859375 21.925781 5.089844 23.15625 6.609375 23.15625 L 18.390625 23.15625 C 19.910156 23.15625 21.140625 21.925781 21.140625 20.40625 L 21.140625 6.078125 C 21.140625 4.5625 19.910156 3.328125 18.390625 3.328125 Z M 10.660156 3.828125 C 10.78125 3.832031 10.886719 3.75 10.910156 3.632812 C 11.074219 2.882812 11.738281 2.34375 12.507812 2.34375 C 13.277344 2.34375 13.941406 2.882812 14.105469 3.632812 C 14.128906 3.75 14.234375 3.832031 14.355469 3.828125 L 15.699219 3.828125 L 15.699219 5.46875 C 15.699219 5.882812 15.363281 6.21875 14.949219 6.21875 L 10.0625 6.21875 C 9.648438 6.21875 9.3125 5.882812 9.3125 5.46875 L 9.3125 3.828125 Z M 20.640625 20.40625 C 20.640625 21.648438 19.632812 22.65625 18.390625 22.65625 L 6.609375 22.65625 C 5.367188 22.65625 4.359375 21.648438 4.359375 20.40625 L 4.359375 6.078125 C 4.359375 4.835938 5.367188 3.828125 6.609375 3.828125 L 8.8125 3.828125 L 8.8125 5.46875 C 8.8125 6.15625 9.371094 6.71875 10.0625 6.71875 L 14.9375 6.71875 C 15.628906 6.71875 16.1875 6.15625 16.1875 5.46875 L 16.1875 3.828125 L 18.390625 3.828125 C 19.632812 3.828125 20.640625 4.835938 20.640625 6.078125 Z M 20.640625 20.40625 "/>
<path style=" stroke:none;fill-rule:nonzero;fill-opacity:1;" d="M 17.898438 11.480469 L 13.5 11.480469 C 13.363281 11.480469 13.25 11.59375 13.25 11.730469 C 13.25 11.867188 13.363281 11.980469 13.5 11.980469 L 17.898438 11.980469 C 18.039062 11.980469 18.148438 11.867188 18.148438 11.730469 C 18.148438 11.59375 18.039062 11.480469 17.898438 11.480469 Z M 17.898438 11.480469 "/>
<path style=" stroke:none;fill-rule:nonzero;fill-opacity:1;" d="M 17.898438 11.480469 L 13.5 11.480469 C 13.363281 11.480469 13.25 11.59375 13.25 11.730469 C 13.25 11.867188 13.363281 11.980469 13.5 11.980469 L 17.898438 11.980469 C 18.039062 11.980469 18.148438 11.867188 18.148438 11.730469 C 18.148438 11.59375 18.039062 11.480469 17.898438 11.480469 Z M 17.898438 11.480469 "/>
<path style=" stroke:none;fill-rule:nonzero;fill-opacity:1;" d="M 17.773438 17.371094 L 13.363281 17.371094 C 13.222656 17.371094 13.113281 17.484375 13.113281 17.621094 C 13.113281 17.761719 13.222656 17.871094 13.363281 17.871094 L 17.773438 17.871094 C 17.914062 17.871094 18.023438 17.761719 18.023438 17.621094 C 18.023438 17.484375 17.914062 17.371094 17.773438 17.371094 Z M 17.773438 17.371094 "/>
<path style=" stroke:none;fill-rule:nonzero;fill-opacity:1;" d="M 17.773438 17.371094 L 13.363281 17.371094 C 13.222656 17.371094 13.113281 17.484375 13.113281 17.621094 C 13.113281 17.761719 13.222656 17.871094 13.363281 17.871094 L 17.773438 17.871094 C 17.914062 17.871094 18.023438 17.761719 18.023438 17.621094 C 18.023438 17.484375 17.914062 17.371094 17.773438 17.371094 Z M 17.773438 17.371094 "/>
</g>
</svg>
