<?xml version="1.0" encoding="UTF-8"?>
<svg xmlns="http://www.w3.org/2000/svg" xmlns:xlink="http://www.w3.org/1999/xlink" width="25px" height="25px" viewBox="0 0 25 25" version="1.1">
<g id="surface1">
<path style=" stroke:none;fill-rule:nonzero;fill-opacity:1;" d="M 0.570312 2.898438 C 0.617188 2.988281 0.742188 3.15625 0.84375 3.269531 C 1.039062 3.492188 2.125 5.367188 2.132812 5.488281 C 2.132812 5.53125 2.261719 5.726562 2.425781 5.917969 L 2.71875 6.273438 L 2.695312 4.542969 L 2.664062 2.8125 L 1.570312 2.773438 C 0.707031 2.75 0.5 2.773438 0.570312 2.898438 Z M 0.570312 2.898438 "/>
<path style=" stroke:none;fill-rule:nonzero;fill-opacity:1;" d="M 3.5 2.875 C 3.5 2.945312 3.550781 3 3.605469 3 C 3.71875 3 4.320312 3.507812 6.605469 5.539062 C 8.207031 6.957031 8.273438 6.988281 7.570312 5.917969 C 7.257812 5.449219 6.679688 4.542969 6.300781 3.90625 L 5.59375 2.75 L 4.550781 2.75 C 3.929688 2.75 3.5 2.800781 3.5 2.875 Z M 3.5 2.875 "/>
<path style=" stroke:none;fill-rule:nonzero;fill-opacity:1;" d="M 19.875 2.824219 C 19.875 2.863281 20.28125 3.355469 20.78125 3.917969 C 21.28125 4.480469 21.851562 5.148438 22.050781 5.40625 C 22.523438 6.03125 22.5 6.050781 23.3125 4.625 C 23.707031 3.9375 24.074219 3.34375 24.136719 3.304688 C 24.886719 2.84375 24.5625 2.75 22.195312 2.75 C 20.917969 2.75 19.875 2.78125 19.875 2.824219 Z M 19.875 2.824219 "/>
<path style=" stroke:none;fill-rule:nonzero;fill-opacity:1;" d="M 19.0625 3.3125 C 18.9375 3.519531 18.699219 3.90625 18.53125 4.167969 C 18.367188 4.429688 18.25 4.664062 18.273438 4.679688 C 18.292969 4.707031 18.792969 4.863281 19.375 5.039062 C 19.960938 5.210938 20.679688 5.445312 20.988281 5.554688 C 21.789062 5.855469 21.820312 5.761719 21.15625 5.050781 C 20.832031 4.699219 20.273438 4.085938 19.925781 3.679688 L 19.292969 2.945312 Z M 19.0625 3.3125 "/>
<path style=" stroke:none;fill-rule:nonzero;fill-opacity:1;" d="M 3.304688 5.132812 L 3.3125 6.875 L 5.125 6.792969 C 6.125 6.75 6.949219 6.707031 6.96875 6.695312 C 7 6.667969 4 3.9375 3.574219 3.601562 L 3.300781 3.394531 Z M 3.304688 5.132812 "/>
<path style=" stroke:none;fill-rule:nonzero;fill-opacity:1;" d="M 18.101562 6.40625 C 18.082031 7.042969 18.070312 7.582031 18.082031 7.601562 C 18.085938 7.617188 18.695312 7.40625 19.425781 7.132812 C 20.15625 6.851562 20.804688 6.625 20.867188 6.625 C 21.851562 6.625 21.605469 6.332031 20.3125 5.949219 C 19.554688 5.730469 18.8125 5.480469 18.664062 5.398438 C 18.1875 5.136719 18.144531 5.21875 18.101562 6.40625 Z M 18.101562 6.40625 "/>
<path style=" stroke:none;fill-rule:nonzero;fill-opacity:1;" d="M 17.136719 6.355469 C 16.675781 7.132812 16.324219 7.675781 15.105469 9.5625 C 14.65625 10.25 14.1875 10.980469 14.0625 11.1875 C 13.9375 11.394531 14.648438 10.75 15.648438 9.761719 L 17.46875 7.957031 L 17.550781 6.835938 C 17.65625 5.476562 17.664062 5.488281 17.136719 6.355469 Z M 17.136719 6.355469 "/>
<path style=" stroke:none;fill-rule:nonzero;fill-opacity:1;" d="M 21.375 6.957031 C 21.136719 7.0625 20.324219 7.363281 19.582031 7.613281 L 18.21875 8.074219 L 19.144531 9.050781 L 20.0625 10.03125 L 20.363281 9.480469 C 20.53125 9.179688 20.898438 8.570312 21.1875 8.125 C 22.136719 6.65625 22.144531 6.613281 21.375 6.957031 Z M 21.375 6.957031 "/>
<path style=" stroke:none;fill-rule:nonzero;fill-opacity:1;" d="M 5.90625 7.34375 C 4.242188 7.386719 4.21875 7.425781 5.445312 8.023438 L 6.382812 8.492188 L 7.132812 7.925781 C 7.957031 7.292969 8 7.238281 7.59375 7.273438 C 7.4375 7.292969 6.679688 7.320312 5.90625 7.34375 Z M 5.90625 7.34375 "/>
<path style=" stroke:none;fill-rule:nonzero;fill-opacity:1;" d="M 3.375 7.476562 C 3.375 7.539062 3.53125 7.804688 3.726562 8.074219 C 4.054688 8.53125 5.273438 10.511719 5.96875 11.726562 C 6.382812 12.445312 6.386719 12.425781 6.144531 10.644531 L 5.929688 9.101562 L 4.648438 8.230469 C 3.949219 7.757812 3.375 7.417969 3.375 7.476562 Z M 3.375 7.476562 "/>
<path style=" stroke:none;fill-rule:nonzero;fill-opacity:1;" d="M 7.832031 8.085938 C 7.429688 8.398438 7.148438 8.699219 7.207031 8.75 C 7.269531 8.800781 7.792969 9.09375 8.375 9.398438 C 8.960938 9.710938 9.65625 10.113281 9.925781 10.292969 C 10.644531 10.78125 10.613281 10.65625 9.667969 9.210938 C 9.199219 8.492188 8.757812 7.820312 8.6875 7.710938 C 8.582031 7.542969 8.457031 7.601562 7.832031 8.085938 Z M 7.832031 8.085938 "/>
<path style=" stroke:none;fill-rule:nonzero;fill-opacity:1;" d="M 17.230469 10.007812 C 16.914062 10.824219 16.679688 11.5 16.71875 11.5 C 16.757812 11.5 17.425781 11.269531 18.199219 10.988281 C 19.8125 10.398438 19.769531 10.5625 18.632812 9.273438 C 17.78125 8.3125 17.914062 8.242188 17.230469 10.007812 Z M 17.230469 10.007812 "/>
<path style=" stroke:none;fill-rule:nonzero;fill-opacity:1;" d="M 6.675781 9.78125 C 6.710938 10.074219 6.804688 10.925781 6.875 11.675781 C 6.945312 12.425781 7.019531 13.054688 7.042969 13.082031 C 7.101562 13.136719 10.738281 11.457031 10.742188 11.375 C 10.742188 11.304688 6.820312 9.25 6.679688 9.25 C 6.636719 9.25 6.632812 9.488281 6.675781 9.78125 Z M 6.675781 9.78125 "/>
<path style=" stroke:none;fill-rule:nonzero;fill-opacity:1;" d="M 15.335938 10.835938 C 14.46875 11.710938 13.78125 12.449219 13.800781 12.46875 C 13.824219 12.488281 14.300781 12.332031 14.863281 12.113281 L 15.886719 11.726562 L 16.324219 10.792969 C 16.804688 9.769531 17.019531 9.25 16.949219 9.25 C 16.929688 9.25 16.199219 9.960938 15.335938 10.835938 Z M 15.335938 10.835938 "/>
<path style=" stroke:none;fill-rule:nonzero;fill-opacity:1;" d="M 17.8125 11.65625 C 17.054688 11.9375 16.417969 12.1875 16.394531 12.199219 C 16.367188 12.21875 16.394531 13.023438 16.445312 14 C 16.492188 14.96875 16.574219 15.71875 16.625 15.664062 C 16.675781 15.605469 16.886719 15.25 17.101562 14.875 C 17.304688 14.492188 17.875 13.542969 18.363281 12.761719 C 19.132812 11.523438 19.351562 11.105469 19.21875 11.132812 C 19.199219 11.136719 18.570312 11.367188 17.8125 11.65625 Z M 17.8125 11.65625 "/>
<path style=" stroke:none;fill-rule:nonzero;fill-opacity:1;" d="M 9.914062 12.5 C 8.398438 13.117188 8.054688 13.324219 8.75 13.207031 C 8.992188 13.167969 9.820312 13.09375 10.59375 13.050781 C 11.90625 12.96875 12.195312 12.886719 11.863281 12.679688 C 11.789062 12.636719 11.636719 12.445312 11.519531 12.261719 L 11.3125 11.925781 Z M 9.914062 12.5 "/>
<path style=" stroke:none;fill-rule:nonzero;fill-opacity:1;" d="M 14.355469 12.855469 C 12.925781 13.394531 12.863281 13.445312 13.25 13.710938 C 13.414062 13.832031 14.074219 14.398438 14.71875 14.980469 C 15.355469 15.5625 15.898438 16.011719 15.917969 15.988281 C 16.039062 15.832031 15.832031 12.375 15.707031 12.386719 C 15.625 12.394531 15.019531 12.605469 14.355469 12.855469 Z M 14.355469 12.855469 "/>
<path style=" stroke:none;fill-rule:nonzero;fill-opacity:1;" d="M 8.855469 13.742188 L 7.523438 13.8125 L 8.960938 15 C 9.75 15.648438 10.574219 16.355469 10.789062 16.554688 L 11.179688 16.925781 L 11.28125 16.429688 C 11.335938 16.164062 11.550781 15.4375 11.757812 14.824219 C 11.957031 14.207031 12.125 13.6875 12.125 13.667969 C 12.125 13.617188 10.636719 13.648438 8.855469 13.742188 Z M 8.855469 13.742188 "/>
<path style=" stroke:none;fill-rule:nonzero;fill-opacity:1;" d="M 12.179688 15.292969 C 11.980469 16.0625 11.792969 16.742188 11.773438 16.820312 C 11.757812 16.898438 12.40625 16.851562 13.523438 16.695312 C 14.507812 16.550781 15.300781 16.394531 15.28125 16.335938 C 15.269531 16.289062 14.929688 15.96875 14.53125 15.636719 C 14.136719 15.300781 13.617188 14.820312 13.375 14.570312 C 12.59375 13.738281 12.601562 13.738281 12.179688 15.292969 Z M 12.179688 15.292969 "/>
<path style=" stroke:none;fill-rule:nonzero;fill-opacity:1;" d="M 8.074219 15.15625 C 8.125 15.242188 8.324219 15.539062 8.519531 15.8125 C 8.929688 16.394531 9.945312 18.050781 10.929688 19.757812 C 11.96875 21.550781 12.3125 21.710938 11.726562 20.125 C 11.65625 19.949219 11.5 19.28125 11.363281 18.625 C 11.15625 17.636719 11.0625 17.394531 10.773438 17.167969 C 10.585938 17.023438 9.929688 16.476562 9.3125 15.957031 C 8.242188 15.050781 7.875 14.8125 8.074219 15.15625 Z M 8.074219 15.15625 "/>
<path style=" stroke:none;fill-rule:nonzero;fill-opacity:1;" d="M 14.8125 17.007812 C 14.539062 17.054688 13.707031 17.175781 12.960938 17.257812 C 11.84375 17.382812 11.625 17.445312 11.679688 17.601562 C 11.789062 17.867188 12.34375 20.6875 12.445312 21.46875 C 12.5625 22.363281 12.582031 22.351562 13.695312 20.46875 C 14.230469 19.554688 14.792969 18.644531 14.9375 18.4375 C 15.085938 18.230469 15.363281 17.792969 15.550781 17.46875 L 15.886719 16.875 L 15.601562 16.886719 C 15.445312 16.898438 15.085938 16.949219 14.8125 17.007812 Z M 14.8125 17.007812 "/>
</g>
</svg>
