<?xml version="1.0" encoding="UTF-8"?>
<svg xmlns="http://www.w3.org/2000/svg" xmlns:xlink="http://www.w3.org/1999/xlink" width="28px" height="25px" viewBox="0 0 27 25" version="1">
<g id="surface1">
<path style=" stroke:none;fill-rule:nonzero;fill-opacity:1;" d="M 20 17.535156 C 20.207031 17.5 20.402344 17.632812 20.449219 17.839844 L 20.449219 17.855469 L 20.472656 17.96875 C 21.179688 21.804688 20.683594 23.722656 18.976562 23.722656 C 17.308594 23.722656 15.1875 22.085938 12.609375 18.8125 C 12.550781 18.742188 12.519531 18.652344 12.519531 18.558594 C 12.523438 18.339844 12.691406 18.167969 12.902344 18.160156 L 12.914062 18.160156 L 13.046875 18.164062 C 14.132812 18.167969 15.1875 18.128906 16.214844 18.046875 C 17.421875 17.945312 18.683594 17.777344 20 17.535156 Z M 8.292969 14.636719 L 8.300781 14.648438 L 8.371094 14.773438 C 8.914062 15.75 9.484375 16.679688 10.074219 17.558594 C 10.773438 18.59375 11.554688 19.640625 12.425781 20.699219 C 12.5625 20.863281 12.546875 21.109375 12.394531 21.253906 L 12.382812 21.261719 L 12.296875 21.339844 C 9.417969 23.882812 7.546875 24.390625 6.679688 22.863281 C 5.835938 21.367188 6.140625 18.648438 7.601562 14.703125 C 7.632812 14.617188 7.691406 14.546875 7.769531 14.5 C 7.953125 14.390625 8.183594 14.453125 8.292969 14.636719 Z M 21.464844 8.980469 L 21.476562 8.984375 L 21.582031 9.023438 C 25.136719 10.296875 26.488281 11.695312 25.636719 13.222656 C 24.800781 14.71875 22.371094 15.804688 18.351562 16.484375 C 18.265625 16.5 18.171875 16.484375 18.09375 16.433594 C 17.910156 16.324219 17.847656 16.078125 17.957031 15.886719 C 18.53125 14.878906 19.050781 13.875 19.511719 12.875 C 20.035156 11.742188 20.523438 10.523438 20.984375 9.226562 C 21.054688 9.027344 21.257812 8.921875 21.453125 8.976562 Z M 8.90625 8.339844 C 9.089844 8.449219 9.152344 8.695312 9.042969 8.886719 C 8.46875 9.894531 7.949219 10.898438 7.488281 11.898438 C 6.964844 13.03125 6.476562 14.25 6.015625 15.546875 C 5.945312 15.75 5.734375 15.855469 5.535156 15.792969 L 5.523438 15.789062 L 5.417969 15.75 C 1.863281 14.476562 0.511719 13.074219 1.363281 11.550781 C 2.199219 10.054688 4.628906 8.96875 8.648438 8.289062 C 8.734375 8.273438 8.828125 8.289062 8.90625 8.339844 Z M 20.320312 2.0625 C 21.164062 3.554688 20.859375 6.277344 19.398438 10.21875 C 19.367188 10.304688 19.308594 10.378906 19.230469 10.421875 C 19.046875 10.53125 18.816406 10.46875 18.707031 10.285156 L 18.699219 10.273438 L 18.628906 10.152344 C 18.085938 9.171875 17.515625 8.246094 16.925781 7.367188 C 16.226562 6.332031 15.445312 5.285156 14.574219 4.222656 C 14.4375 4.058594 14.453125 3.816406 14.605469 3.671875 L 14.617188 3.660156 L 14.703125 3.585938 C 17.582031 1.042969 19.453125 0.535156 20.320312 2.0625 Z M 8.167969 1.152344 C 9.835938 1.152344 11.960938 2.785156 14.539062 6.058594 C 14.59375 6.132812 14.625 6.222656 14.625 6.316406 C 14.621094 6.53125 14.453125 6.707031 14.246094 6.710938 L 14.097656 6.710938 C 13.011719 6.703125 11.957031 6.742188 10.933594 6.828125 C 9.722656 6.925781 8.460938 7.097656 7.144531 7.335938 C 6.9375 7.375 6.742188 7.238281 6.695312 7.03125 L 6.695312 7.019531 L 6.671875 6.902344 C 5.964844 3.066406 6.464844 1.152344 8.167969 1.152344 Z M 8.167969 1.152344 "/>
<path style=" stroke:none;fill-rule:nonzero;fill-opacity:1;" d="M 11.738281 8.007812 L 15.070312 8.007812 C 15.554688 8.007812 16.003906 8.277344 16.246094 8.710938 L 17.917969 11.714844 C 18.160156 12.144531 18.160156 12.675781 17.917969 13.109375 L 16.246094 16.113281 C 16.003906 16.546875 15.554688 16.816406 15.070312 16.816406 L 11.738281 16.816406 C 11.25 16.816406 10.800781 16.546875 10.558594 16.113281 L 8.886719 13.109375 C 8.644531 12.675781 8.644531 12.144531 8.886719 11.714844 L 10.558594 8.710938 C 10.800781 8.277344 11.25 8.007812 11.738281 8.007812 Z M 14.5625 8.914062 C 15.046875 8.914062 15.5 9.183594 15.742188 9.617188 L 16.90625 11.714844 C 17.148438 12.144531 17.148438 12.675781 16.90625 13.109375 L 15.742188 15.203125 C 15.5 15.640625 15.046875 15.910156 14.5625 15.910156 L 12.246094 15.910156 C 11.757812 15.910156 11.308594 15.640625 11.066406 15.203125 L 9.898438 13.109375 C 9.660156 12.675781 9.660156 12.144531 9.898438 11.714844 L 11.066406 9.617188 C 11.308594 9.183594 11.757812 8.914062 12.246094 8.914062 Z M 14.015625 9.90625 L 12.792969 9.90625 C 12.304688 9.90625 11.855469 10.171875 11.613281 10.609375 L 10.996094 11.714844 C 10.757812 12.144531 10.757812 12.675781 10.996094 13.109375 L 11.613281 14.214844 C 11.855469 14.648438 12.304688 14.917969 12.792969 14.917969 L 14.015625 14.917969 C 14.5 14.917969 14.949219 14.648438 15.191406 14.214844 L 15.808594 13.109375 C 16.050781 12.675781 16.050781 12.144531 15.808594 11.714844 L 15.191406 10.609375 C 14.949219 10.171875 14.5 9.90625 14.015625 9.90625 Z M 13.488281 10.855469 C 13.972656 10.855469 14.421875 11.121094 14.664062 11.554688 L 14.753906 11.710938 C 14.996094 12.144531 14.996094 12.679688 14.753906 13.109375 L 14.664062 13.265625 C 14.421875 13.703125 13.972656 13.96875 13.488281 13.96875 L 13.320312 13.96875 C 12.832031 13.96875 12.382812 13.703125 12.140625 13.265625 L 12.054688 13.109375 C 11.8125 12.679688 11.8125 12.144531 12.054688 11.710938 L 12.140625 11.554688 C 12.382812 11.121094 12.832031 10.855469 13.320312 10.855469 Z M 13.402344 11.789062 C 13.1875 11.789062 12.988281 11.90625 12.878906 12.101562 C 12.769531 12.292969 12.769531 12.53125 12.878906 12.722656 C 12.988281 12.914062 13.1875 13.035156 13.402344 13.035156 C 13.621094 13.035156 13.820312 12.914062 13.925781 12.722656 C 14.035156 12.53125 14.035156 12.292969 13.925781 12.101562 C 13.820312 11.90625 13.621094 11.789062 13.402344 11.789062 Z M 8.5 12.410156 L 9.585938 12.410156 "/>
</g>
</svg>
