<?xml version="1.0" encoding="utf-8"?>
<svg xmlns="http://www.w3.org/2000/svg" width="25px" height="25px" viewBox="0 0 25 25" version="1.2">
  <g id="surface1" transform="matrix(12.2833, 0, 0, 11.665883, 0.109271, -133.544758)" style="">
    <path style=" stroke:none;fill-rule:nonzero;fill-opacity:1;" d="M 1.644531 12.0625 C 1.644531 12.019531 1.621094 11.988281 1.589844 11.988281 C 1.558594 11.988281 1.535156 12.019531 1.535156 12.0625 C 1.535156 12.101562 1.558594 12.132812 1.589844 12.132812 C 1.621094 12.132812 1.644531 12.101562 1.644531 12.0625 Z M 1.644531 12.0625 "/>
    <path style=" stroke:none;fill-rule:nonzero;fill-opacity:1;" d="M 1.367188 12.304688 L 1.367188 12.566406 C 1.367188 12.621094 1.359375 12.824219 1.203125 12.824219 C 1.042969 12.824219 1.046875 12.621094 1.046875 12.542969 L 1.046875 12.304688 L 0.964844 12.304688 L 0.964844 12.574219 C 0.964844 12.574219 0.945312 12.9375 1.199219 12.9375 C 1.453125 12.9375 1.445312 12.585938 1.445312 12.585938 L 1.445312 12.304688 Z M 1.734375 11.832031 L 1.816406 11.832031 L 1.816406 12.910156 L 1.734375 12.910156 Z M 1.070312 13.046875 C 0.902344 13.046875 0.65625 13.015625 0.5 13.011719 C 0.472656 13.011719 0.453125 13.015625 0.429688 13.023438 L 0.457031 12.988281 C 0.488281 12.953125 0.539062 12.929688 0.550781 12.925781 C 0.75 12.875 0.902344 12.660156 0.902344 12.320312 C 0.902344 11.941406 0.699219 11.703125 0.449219 11.703125 C 0.203125 11.703125 0 11.921875 0 12.320312 C 0 12.683594 0.179688 12.914062 0.410156 12.9375 C 0.410156 12.9375 0.421875 12.9375 0.421875 12.949219 C 0.425781 12.957031 0.414062 12.96875 0.414062 12.96875 L 0.277344 13.140625 L 0.304688 13.175781 L 0.351562 13.117188 C 0.382812 13.085938 0.429688 13.050781 0.484375 13.050781 C 0.675781 13.050781 0.886719 13.300781 1.078125 13.296875 C 1.367188 13.289062 1.433594 13.03125 1.4375 13 C 1.441406 12.996094 1.320312 13.046875 1.070312 13.046875 M 0.0820312 12.320312 C 0.0820312 11.996094 0.246094 11.820312 0.449219 11.820312 C 0.652344 11.820312 0.816406 12.011719 0.816406 12.320312 C 0.816406 12.640625 0.652344 12.824219 0.449219 12.824219 C 0.246094 12.824219 0.0820312 12.632812 0.0820312 12.320312 M 1.917969 11.832031 L 2 11.832031 L 2 12.910156 L 1.917969 12.910156 Z M 1.550781 12.304688 L 1.628906 12.304688 L 1.628906 12.910156 L 1.550781 12.910156 Z M 1.550781 12.304688 "/>
  </g>
</svg>