<?xml version="1.0" encoding="UTF-8"?>
<svg xmlns="http://www.w3.org/2000/svg" xmlns:xlink="http://www.w3.org/1999/xlink" width="28px" height="25px" viewBox="0 0 27 25" version="1.1">
<g id="surface1">
<path style=" stroke:none;fill-rule:nonzero;fill-opacity:1;" d="M 18.324219 0.113281 C 17.503906 0.195312 16.226562 0.652344 14.859375 1.367188 L 13.734375 1.945312 L 13.480469 1.757812 C 13.347656 1.65625 12.816406 1.367188 12.3125 1.117188 C 9.792969 -0.121094 7.902344 -0.242188 6.796875 0.761719 C 5.824219 1.644531 5.183594 3.691406 5.121094 6.09375 L 5.101562 6.742188 L 4.5625 7.023438 C 3.5 7.5625 2.394531 8.398438 1.53125 9.292969 C 0.449219 10.417969 0.160156 10.976562 0.109375 12.042969 C 0.0703125 12.722656 0.0976562 12.851562 0.332031 13.402344 C 0.484375 13.738281 0.683594 14.109375 0.773438 14.230469 C 1.601562 15.289062 2.671875 16.210938 4.285156 17.234375 L 4.652344 17.464844 L 4.707031 18.898438 C 4.789062 21 5.101562 22.480469 5.660156 23.4375 C 5.867188 23.808594 6.40625 24.367188 6.796875 24.636719 C 7.136719 24.871094 7.210938 24.878906 8.371094 24.878906 C 9.476562 24.878906 9.65625 24.851562 10.386719 24.609375 C 10.828125 24.453125 11.691406 24.070312 12.304688 23.753906 L 13.429688 23.1875 L 14.011719 23.550781 C 14.785156 24.03125 16.066406 24.601562 16.828125 24.796875 C 17.710938 25.019531 19.171875 24.945312 19.664062 24.65625 C 20.78125 24.015625 21.546875 22.367188 21.78125 20.089844 C 21.960938 18.40625 21.914062 18.535156 22.417969 18.265625 C 24.371094 17.253906 26.082031 15.746094 26.648438 14.535156 C 26.828125 14.164062 26.863281 13.949219 26.863281 13.199219 C 26.863281 12.386719 26.839844 12.265625 26.59375 11.785156 C 26.0625 10.742188 25.082031 9.746094 23.515625 8.621094 L 22.589844 7.960938 L 22.589844 6.566406 C 22.589844 3.832031 22.121094 1.992188 21.167969 0.957031 C 20.484375 0.222656 19.65625 -0.0273438 18.324219 0.113281 Z M 10.664062 0.699219 C 11.808594 1.089844 13.222656 1.796875 13.292969 2 C 13.320312 2.082031 13.113281 2.242188 12.511719 2.578125 C 12.394531 2.652344 12.265625 2.734375 12.238281 2.773438 C 12.214844 2.808594 11.953125 3.003906 11.65625 3.207031 C 11.042969 3.628906 9.460938 4.835938 9.261719 5.03125 C 9.1875 5.105469 9.019531 5.265625 8.863281 5.375 C 8.460938 5.703125 7.117188 7.058594 7.019531 7.253906 C 6.957031 7.375 6.976562 7.476562 7.101562 7.636719 L 7.261719 7.851562 L 8.019531 7.683594 C 8.433594 7.589844 8.910156 7.496094 9.082031 7.46875 L 9.386719 7.414062 L 9.207031 7.730469 C 9.097656 7.90625 8.847656 8.445312 8.640625 8.929688 C 8.433594 9.414062 8.226562 9.894531 8.171875 10.007812 C 8.128906 10.117188 7.875 10.863281 7.613281 11.671875 L 7.136719 13.140625 L 6.9375 12.789062 C 6.433594 11.90625 6.03125 10.453125 6.03125 9.5625 C 6.039062 8.519531 6.578125 6.964844 7.199219 6.230469 C 7.605469 5.738281 7.523438 5.664062 7.09375 6.136719 C 5.695312 7.691406 5.554688 10.425781 6.75 12.722656 C 6.949219 13.105469 7.109375 13.496094 7.109375 13.597656 C 7.109375 13.914062 7.542969 14.574219 8.902344 16.367188 C 9.980469 17.78125 11.269531 19.148438 11.527344 19.160156 C 11.617188 19.160156 11.90625 19.417969 12.1875 19.734375 C 13.09375 20.757812 12.742188 20.9375 10.980469 20.339844 C 8.703125 19.570312 5.335938 17.988281 4.796875 17.429688 C 4.636719 17.261719 4.121094 16.871094 3.652344 16.554688 C 3.175781 16.238281 2.789062 15.941406 2.789062 15.894531 C 2.789062 15.847656 2.734375 15.8125 2.683594 15.8125 C 2.546875 15.8125 1.441406 14.714844 1.027344 14.164062 C 0.675781 13.71875 0.378906 13.058594 0.277344 12.519531 C 0.125 11.671875 0.640625 10.480469 1.585938 9.515625 C 2.179688 8.910156 3.25 8.054688 3.789062 7.757812 C 3.960938 7.65625 4.222656 7.488281 4.375 7.375 C 4.527344 7.265625 4.769531 7.125 4.90625 7.070312 C 5.039062 7.011719 5.164062 6.890625 5.191406 6.796875 C 5.230469 6.640625 5.941406 6.25 6.964844 5.820312 C 7.164062 5.738281 7.300781 5.644531 7.273438 5.625 C 7.21875 5.570312 5.6875 6.195312 5.527344 6.332031 C 5.363281 6.472656 5.347656 6.304688 5.417969 5.320312 C 5.660156 2.34375 6.570312 0.6875 8.144531 0.371094 C 8.738281 0.25 9.710938 0.371094 10.664062 0.699219 Z M 20.042969 0.484375 C 21.546875 1.058594 22.265625 2.882812 22.375 6.351562 C 22.402344 7.234375 22.445312 8.128906 22.472656 8.34375 C 22.507812 8.6875 22.417969 9.570312 22.265625 10.183594 C 22.238281 10.3125 22.265625 10.296875 22.355469 10.128906 C 22.429688 10 22.519531 9.683594 22.546875 9.429688 C 22.671875 8.277344 22.6875 8.242188 23.003906 8.546875 C 23.101562 8.640625 23.363281 8.835938 23.589844 8.976562 C 24.199219 9.375 25.335938 10.378906 25.667969 10.816406 C 25.828125 11.03125 25.984375 11.226562 26.019531 11.253906 C 26.054688 11.28125 26.21875 11.570312 26.378906 11.90625 C 26.648438 12.433594 26.683594 12.59375 26.683594 13.207031 C 26.675781 14.117188 26.398438 14.722656 25.578125 15.605469 C 24.984375 16.25 23.886719 17.148438 23.417969 17.402344 C 23.28125 17.464844 22.921875 17.679688 22.609375 17.875 L 22.03125 18.230469 L 22.09375 17.960938 C 22.140625 17.726562 22.066406 16.089844 21.90625 13.949219 C 21.824219 12.929688 21.367188 10.175781 21.167969 9.589844 C 20.980469 9.011719 20.789062 8.828125 20.546875 8.984375 C 20.386719 9.085938 19.78125 10.734375 19.871094 10.824219 C 19.898438 10.855469 19.863281 10.882812 19.789062 10.882812 C 19.71875 10.882812 19.484375 10.59375 19.261719 10.257812 C 18.738281 9.441406 17.65625 8.054688 16.792969 7.097656 C 16.414062 6.6875 16.109375 6.316406 16.109375 6.289062 C 16.109375 6.203125 17.234375 6.316406 17.992188 6.472656 C 19.097656 6.714844 19.925781 7.125 20.636719 7.804688 C 21.050781 8.195312 21.742188 9.226562 21.871094 9.625 C 21.996094 10.042969 22.203125 10.34375 22.09375 9.953125 C 21.851562 9.058594 21.078125 7.933594 20.332031 7.375 C 19.285156 6.601562 18.277344 6.257812 16.765625 6.175781 C 16.234375 6.136719 15.742188 6.074219 15.679688 6.015625 C 15.488281 5.859375 12.203125 6.222656 11.296875 6.511719 C 11.0625 6.574219 10.054688 6.808594 9.890625 6.828125 C 9.863281 6.835938 9.773438 6.910156 9.683594 6.992188 C 9.601562 7.085938 9.378906 7.199219 9.199219 7.246094 C 7.460938 7.71875 7.109375 7.746094 7.109375 7.449219 C 7.109375 7.003906 9.988281 4.472656 12.382812 2.808594 C 13.273438 2.195312 13.546875 2.054688 13.742188 2.101562 C 13.859375 2.140625 14.003906 2.121094 14.066406 2.066406 C 14.121094 2.019531 14.578125 1.757812 15.074219 1.507812 C 17.199219 0.410156 18.925781 0.046875 20.042969 0.484375 Z M 16.398438 6.992188 C 17.910156 8.734375 18.71875 9.773438 19.46875 10.992188 L 19.78125 11.515625 L 19.351562 12.851562 C 19.117188 13.578125 18.773438 14.546875 18.59375 14.992188 C 18.234375 15.886719 17.351562 17.71875 17.152344 17.988281 C 16.984375 18.203125 15.542969 18.535156 13.625 18.789062 C 11.402344 19.085938 11.59375 19.132812 10.636719 18.0625 C 9.097656 16.339844 7.289062 13.921875 7.289062 13.578125 C 7.289062 13.4375 7.894531 11.503906 8.234375 10.546875 C 8.578125 9.597656 9.511719 7.515625 9.730469 7.234375 C 9.972656 6.917969 13.265625 6.296875 15.453125 6.148438 C 15.589844 6.136719 15.859375 6.390625 16.398438 6.992188 Z M 21.042969 9.597656 C 21.140625 9.921875 21.25 10.371094 21.285156 10.601562 C 21.320312 10.835938 21.367188 11.105469 21.382812 11.207031 C 21.519531 11.859375 21.789062 14.109375 21.859375 15.207031 C 21.996094 17.074219 21.988281 18.125 21.824219 18.453125 C 21.753906 18.59375 21.691406 18.851562 21.691406 19.011719 C 21.691406 19.929688 21.078125 22.878906 20.878906 22.878906 C 20.851562 22.878906 20.78125 23.019531 20.71875 23.1875 C 20.664062 23.34375 20.421875 23.699219 20.1875 23.949219 C 19.683594 24.488281 19.078125 24.757812 18.289062 24.777344 C 17.800781 24.785156 17.054688 24.683594 16.902344 24.589844 C 16.867188 24.5625 16.757812 24.527344 16.667969 24.507812 C 16.28125 24.433594 15.011719 23.867188 14.355469 23.476562 C 13.960938 23.242188 13.535156 23.046875 13.410156 23.046875 C 13.285156 23.046875 13.003906 22.917969 12.78125 22.757812 C 12.230469 22.367188 11.035156 21.4375 10.855469 21.25 C 10.773438 21.167969 10.710938 21.140625 10.710938 21.195312 C 10.710938 21.335938 11.113281 21.71875 11.878906 22.285156 C 12.25 22.554688 12.652344 22.859375 12.769531 22.964844 L 12.996094 23.140625 L 12.320312 23.492188 C 11.457031 23.949219 10.988281 24.136719 9.675781 24.527344 C 8.359375 24.917969 7.828125 24.898438 7.027344 24.460938 C 5.734375 23.734375 5.074219 22.0625 4.976562 19.222656 C 4.949219 18.472656 4.949219 17.855469 4.976562 17.855469 C 5.011719 17.855469 5.671875 18.183594 6.453125 18.574219 C 8.164062 19.4375 9.097656 19.839844 10.710938 20.394531 C 12.304688 20.945312 12.527344 20.980469 12.734375 20.742188 C 12.941406 20.5 12.816406 20.164062 12.320312 19.660156 C 12.132812 19.464844 11.96875 19.28125 11.96875 19.234375 C 11.96875 19.195312 12.140625 19.167969 12.355469 19.167969 C 12.734375 19.179688 14.742188 18.9375 15.136719 18.832031 C 15.253906 18.804688 15.472656 18.769531 15.613281 18.742188 C 15.769531 18.710938 16.019531 18.667969 16.183594 18.636719 C 16.335938 18.609375 16.46875 18.621094 16.46875 18.65625 C 16.46875 18.703125 16.308594 18.9375 16.109375 19.179688 C 15.695312 19.679688 14.867188 20.285156 14.085938 20.65625 C 13.5 20.945312 12.394531 21.148438 11.878906 21.074219 C 10.917969 20.925781 10.746094 20.917969 10.933594 21.039062 C 11.050781 21.121094 11.476562 21.160156 12.195312 21.160156 C 13.085938 21.160156 13.363281 21.121094 13.804688 20.945312 C 14.832031 20.554688 15.5625 19.988281 16.757812 18.648438 C 16.945312 18.441406 17.191406 18.183594 17.296875 18.082031 C 17.683594 17.699219 18.828125 15.179688 19.359375 13.53125 C 19.46875 13.226562 19.566406 12.910156 19.59375 12.835938 C 19.664062 12.648438 19.675781 12.640625 19.753906 12.324219 C 19.789062 12.164062 19.863281 11.996094 19.90625 11.933594 C 19.953125 11.875 19.972656 11.644531 19.933594 11.421875 C 19.890625 11.125 19.933594 10.824219 20.113281 10.230469 C 20.539062 8.835938 20.773438 8.675781 21.042969 9.597656 Z M 21.042969 9.597656 "/>
<path style=" stroke:none;fill-rule:nonzero;fill-opacity:1;" d="M 10.84375 8.378906 C 10.808594 8.4375 10.800781 8.492188 10.828125 8.519531 C 10.84375 8.546875 10.890625 8.5 10.917969 8.417969 C 10.980469 8.257812 10.925781 8.230469 10.84375 8.378906 Z M 10.84375 8.378906 "/>
<path style=" stroke:none;fill-rule:nonzero;fill-opacity:1;" d="M 12.464844 10.269531 C 11.503906 10.734375 10.917969 11.726562 10.996094 12.769531 C 11.0625 13.496094 11.296875 13.980469 11.835938 14.5 C 12.402344 15.039062 12.726562 15.160156 13.617188 15.160156 C 14.28125 15.160156 14.410156 15.132812 14.769531 14.890625 C 15.191406 14.609375 15.660156 14.136719 15.515625 14.136719 C 15.472656 14.136719 15.507812 14.070312 15.597656 13.996094 C 15.957031 13.71875 16.046875 12.230469 15.75 11.5625 C 15.515625 11.011719 14.851562 10.371094 14.335938 10.195312 C 13.726562 9.980469 13.003906 10.007812 12.464844 10.269531 Z M 14.074219 10.359375 C 14.554688 10.453125 15.238281 11.039062 15.515625 11.605469 C 15.902344 12.386719 15.742188 13.53125 15.136719 14.210938 C 14.714844 14.6875 14.308594 14.871094 13.570312 14.917969 C 13.105469 14.957031 12.925781 14.917969 12.535156 14.722656 C 11.410156 14.175781 10.933594 12.75 11.464844 11.570312 C 11.914062 10.574219 12.878906 10.117188 14.074219 10.359375 Z M 14.074219 10.359375 "/>
</g>
</svg>
