<?xml version="1.0" encoding="utf-8"?>
<svg version="1.1" xmlns="http://www.w3.org/2000/svg" width="25px" height="25px" viewBox="0 0 25 25" preserveAspectRatio="xMidYMid meet">
  <g transform="matrix(0.006734, 0, 0, -0.006734, -0.367368, 25.329307)" stroke="none" style="">
    <path d="M1775 3693 c-46 -14 -97 -37 -160 -71 -38 -20 -131 -109 -171 -163 -42 -58 -104 -177 -104 -200 0 -9 -7 -30 -15 -45 -8 -16 -15 -38 -15 -49 0 -11 -7 -64 -17 -118 -14 -85 -15 -109 -4 -175 7 -42 15 -95 18 -117 3 -22 12 -49 19 -60 8 -11 14 -32 14 -47 0 -15 4 -29 9 -32 5 -4 19 -26 31 -51 20 -41 20 -46 6 -61 -13 -12 -16 -38 -15 -122 0 -130 20 -180 87 -225 23 -15 42 -35 42 -42 0 -19 -166 -175 -186 -175 -6 0 -17 -7 -24 -15 -7 -8 -20 -15 -29 -15 -9 0 -29 -7 -45 -15 -64 -34 -164 -10 -242 59 -48 41 -114 136 -114 163 0 10 -6 27 -14 38 -41 61 -18 337 32 387 7 7 12 19 12 28 1 8 28 44 61 80 73 78 170 203 199 256 12 22 25 46 29 54 21 39 35 90 38 145 3 52 0 65 -24 99 -29 40 -33 43 -92 70 -88 41 -228 -2 -254 -77 -10 -26 20 -33 53 -13 35 20 93 21 110 1 7 -8 19 -15 26 -15 27 0 47 -47 39 -96 -6 -42 -17 -56 -143 -183 -140 -140 -182 -185 -182 -199 -1 -4 -14 -23 -30 -42 -17 -19 -30 -39 -30 -46 0 -6 -9 -21 -20 -34 -11 -13 -20 -29 -20 -37 0 -8 -7 -21 -15 -29 -8 -9 -15 -26 -15 -40 0 -13 -4 -24 -9 -24 -9 0 -23 -48 -41 -140 -14 -70 -11 -152 5 -184 8 -15 15 -40 15 -54 0 -33 53 -143 94 -197 45 -58 105 -116 213 -205 17 -14 53 -12 53 3 0 7 -55 69 -123 137 -136 139 -172 197 -207 335 -19 72 -20 89 -9 165 14 105 54 226 97 292 50 78 81 118 127 163 68 66 125 117 154 137 13 10 46 38 73 64 27 26 52 44 55 40 15 -14 -40 -88 -157 -211 -69 -72 -135 -151 -148 -176 -12 -24 -27 -51 -31 -59 -15 -26 -38 -83 -56 -137 -23 -72 -24 -287 -1 -331 9 -17 16 -40 16 -50 0 -11 7 -25 15 -32 8 -7 15 -18 15 -26 0 -43 112 -161 185 -194 49 -22 185 -37 185 -21 0 6 9 11 20 11 10 0 24 8 29 18 5 10 41 28 81 41 83 27 203 111 221 153 6 15 22 34 35 43 43 28 26 112 -34 177 -59 64 -75 111 -68 199 4 42 11 91 17 108 12 35 8 87 -15 181 -9 36 -21 85 -27 110 -10 43 -14 214 -7 292 2 21 9 43 16 50 6 6 12 24 12 38 0 14 21 66 48 115 103 195 254 298 434 297 193 -2 343 -99 433 -279 21 -43 44 -82 51 -88 7 -5 14 -28 17 -50 3 -22 11 -60 18 -85 14 -51 20 -224 8 -255 -4 -11 -15 -56 -24 -100 -10 -44 -21 -88 -26 -97 -13 -26 -10 -87 6 -133 8 -22 15 -73 15 -113 0 -84 -20 -136 -73 -194 -65 -69 -72 -127 -22 -182 19 -21 35 -43 35 -48 0 -21 152 -128 182 -128 17 0 98 -41 98 -49 0 -4 18 -15 39 -24 48 -22 157 -14 212 15 73 38 179 151 179 192 0 8 7 19 15 26 8 7 15 21 15 32 0 10 7 32 15 49 23 43 22 264 -1 334 -17 52 -40 109 -55 135 -4 8 -19 35 -31 59 -13 25 -79 104 -148 176 -117 123 -172 197 -157 211 3 4 28 -14 54 -38 26 -25 80 -71 118 -103 76 -63 175 -159 175 -170 0 -4 13 -24 29 -44 63 -80 112 -209 130 -341 11 -77 10 -93 -9 -165 -35 -136 -71 -195 -205 -333 -66 -68 -121 -130 -123 -138 -4 -16 32 -19 51 -4 107 89 168 147 213 205 40 52 94 167 94 203 1 15 7 38 15 52 16 28 18 112 5 180 -18 89 -27 125 -37 145 -5 11 -17 35 -26 53 -9 19 -17 40 -17 47 0 8 -9 19 -20 25 -11 6 -20 19 -20 28 0 10 -13 33 -30 52 -16 19 -29 38 -30 42 0 14 -42 59 -167 184 -68 67 -123 127 -123 133 0 5 -7 14 -15 18 -8 5 -18 30 -21 56 -5 38 -3 51 11 67 10 11 24 20 30 20 7 0 18 7 25 15 17 20 75 19 110 -1 33 -20 63 -13 53 13 -29 82 -173 119 -273 70 -25 -12 -56 -39 -72 -62 -25 -35 -28 -47 -25 -100 3 -55 17 -106 38 -145 4 -8 17 -32 29 -54 29 -53 126 -178 199 -256 33 -36 60 -72 61 -80 0 -9 5 -21 12 -28 50 -50 73 -327 32 -387 -8 -11 -14 -28 -14 -38 0 -27 -66 -122 -114 -163 -80 -69 -178 -93 -242 -59 -16 8 -36 15 -45 15 -9 0 -22 7 -29 15 -7 8 -18 15 -24 15 -11 0 -33 19 -139 117 -51 48 -56 70 -19 89 74 37 102 102 102 240 0 80 -3 106 -16 118 -14 15 -14 20 6 61 12 25 26 47 31 51 5 3 9 17 9 32 0 15 6 36 14 47 7 11 16 38 19 60 2 22 10 70 17 108 11 54 11 83 0 150 -7 45 -15 108 -19 139 -4 32 -12 63 -19 70 -7 7 -12 21 -12 33 0 27 -59 142 -104 204 -40 54 -133 143 -171 163 -127 68 -196 88 -299 87 -44 0 -103 -7 -131 -16z m-685 -493 c0 -5 6 -10 13 -10 32 0 48 -36 45 -101 -2 -35 -7 -64 -13 -64 -5 0 -9 16 -7 36 4 43 -17 98 -49 128 -19 17 -20 21 -6 21 9 0 17 -4 17 -10z m1652 -10 c-41 -38 -54 -67 -50 -112 1 -24 -1 -45 -7 -48 -6 -3 -11 21 -13 60 -3 63 -2 66 29 93 40 32 75 39 41 7z"/>
    <path d="M1800 3491 c-28 -8 -39 -43 -20 -67 13 -15 47 -18 74 -8 23 9 21 61 -3 74 -11 5 -21 10 -23 9 -2 -1 -14 -4 -28 -8z"/>
    <path d="M1568 3323 c-27 -7 -24 -59 4 -66 48 -13 81 40 39 63 -11 5 -21 9 -23 9 -2 -1 -11 -3 -20 -6z"/>
    <path d="M1952 3268 c-40 -28 -50 -60 -28 -94 47 -70 166 -47 166 32 0 27 -7 38 -37 59 -46 31 -59 31 -101 3z"/>
    <path d="M1692 3137 c-28 -29 -28 -38 1 -65 30 -28 82 -29 97 -3 36 68 -45 124 -98 68z"/>
    <path d="M1562 2938 c-18 -18 -15 -36 9 -49 28 -15 54 9 44 40 -7 23 -34 28 -53 9z"/>
    <path d="M1798 2845 c-9 -21 -8 -28 7 -45 40 -44 104 -3 76 49 -17 31 -68 29 -83 -4z"/>
    <path d="M1515 2527 c-54 -32 -65 -50 -65 -108 0 -82 8 -113 40 -148 25 -27 36 -31 79 -31 42 0 53 4 75 30 29 35 41 99 31 162 -14 81 -97 131 -160 95z m51 -64 c7 -10 14 -24 14 -32 0 -18 -29 -51 -46 -51 -20 0 -44 29 -44 54 0 44 50 63 76 29z"/>
    <path d="M2183 2514 c-44 -34 -58 -87 -43 -162 16 -79 49 -112 110 -112 63 0 105 42 114 116 9 72 -1 108 -42 148 -44 45 -91 48 -139 10z m66 -56 c16 -43 -9 -81 -46 -72 -25 7 -35 37 -23 70 13 32 57 33 69 2z"/>
    <path d="M161 2212 c-22 -32 -27 -62 -12 -77 5 -6 11 -50 14 -100 5 -130 52 -243 139 -339 21 -23 38 -44 38 -48 0 -11 138 -112 185 -135 108 -55 163 -67 305 -67 106 0 188 11 225 31 11 6 45 22 76 37 56 25 153 95 175 125 7 9 24 29 38 45 33 35 27 46 -10 17 -15 -11 -31 -21 -36 -21 -5 0 -19 -11 -31 -24 -27 -30 -132 -51 -108 -22 19 23 5 33 -22 16 -22 -14 -87 -29 -142 -34 -16 -2 -37 -6 -45 -9 -35 -14 -97 -27 -130 -27 -46 0 -197 29 -235 46 -99 43 -156 74 -179 96 -9 10 -25 23 -34 30 -35 26 -103 112 -123 157 -12 25 -26 55 -32 66 -6 11 -12 71 -13 134 -2 63 -7 118 -12 123 -6 6 -18 -2 -31 -20z m939 -637 c0 -8 -7 -15 -15 -15 -16 0 -20 12 -8 23 11 12 23 8 23 -8z"/>
    <path d="M3619 2228 c0 -7 -1 -62 -3 -123 -1 -60 -7 -119 -13 -130 -6 -11 -20 -41 -32 -66 -29 -64 -133 -180 -192 -214 -25 -14 -108 -55 -144 -70 -39 -16 -190 -45 -235 -45 -19 0 -60 7 -90 16 -30 8 -68 17 -85 19 -70 9 -125 22 -139 34 -8 7 -20 9 -27 5 -8 -5 -7 -9 5 -16 9 -5 16 -13 16 -18 0 -17 -26 -11 -45 10 -13 15 -21 17 -31 9 -14 -12 -58 12 -68 37 -3 8 -14 14 -24 14 -11 0 -25 7 -32 15 -7 8 -16 15 -21 15 -5 0 8 -22 28 -48 45 -58 138 -130 208 -162 28 -12 59 -27 70 -33 54 -29 272 -42 370 -23 156 30 300 130 421 291 31 41 74 124 74 142 0 6 7 24 15 39 10 19 15 58 15 116 0 48 5 90 10 93 16 10 11 45 -11 76 -21 30 -39 38 -40 17z m-871 -652 c3 -13 -1 -17 -14 -14 -11 2 -20 11 -22 22 -3 13 1 17 14 14 11 -2 20 -11 22 -22z"/>
    <path d="M1910 2201 c-17 -32 -18 -414 -1 -434 7 -9 17 -14 22 -11 12 7 12 451 0 459 -6 3 -15 -3 -21 -14z"/>
    <path d="M1760 1986 c0 -107 4 -197 9 -200 5 -3 15 1 22 10 10 12 13 58 13 173 0 167 -6 211 -29 211 -13 0 -15 -29 -15 -194z"/>
    <path d="M2025 2159 c-4 -12 -7 -90 -7 -174 0 -161 5 -195 28 -195 12 0 14 32 14 195 0 163 -2 195 -14 195 -8 0 -18 -10 -21 -21z"/>
    <path d="M120 2065 c1 -26 2 -28 11 -12 8 14 8 22 0 30 -8 8 -11 3 -11 -18z"/>
    <path d="M3680 2078 c0 -7 5 -20 10 -28 8 -13 10 -12 10 3 0 9 0 20 1 24 0 4 -4 9 -10 11 -6 2 -11 -2 -11 -10z"/>
    <path d="M2355 1569 c-4 -6 0 -18 9 -27 15 -15 16 -15 16 5 0 25 -15 38 -25 22z"/>
    <path d="M1440 1550 c0 -11 2 -20 5 -20 2 0 9 9 15 20 9 16 8 20 -5 20 -8 0 -15 -9 -15 -20z"/>
    <path d="M1818 1523 c-16 -2 -28 -9 -28 -15 0 -6 -10 -8 -24 -4 -53 13 -190 -93 -224 -174 -19 -46 -70 -110 -88 -110 -8 0 -14 10 -14 24 0 32 -10 57 -20 51 -5 -3 -12 -27 -16 -53 -9 -63 -17 -71 -72 -70 -26 1 -90 -6 -142 -15 -52 -9 -138 -21 -190 -27 -149 -16 -193 -24 -197 -37 -3 -8 18 -10 73 -7 104 7 223 11 316 13 52 1 81 6 91 16 19 19 61 29 91 21 23 -6 25 -11 28 -83 5 -92 9 -103 103 -298 95 -197 105 -220 105 -254 0 -85 -99 -198 -192 -219 -54 -13 -117 -2 -149 25 -8 7 -20 13 -25 13 -34 0 -120 154 -110 196 8 32 -3 74 -19 74 -8 0 -16 -13 -20 -30 -4 -16 -11 -32 -16 -35 -5 -4 -9 -50 -9 -104 0 -75 4 -101 15 -111 8 -7 15 -20 15 -29 0 -18 89 -111 107 -111 6 0 16 -7 23 -15 7 -8 25 -15 40 -15 15 0 33 -7 40 -15 17 -20 135 -20 174 0 15 8 41 15 56 15 15 0 33 7 40 15 7 8 18 15 24 15 19 0 126 110 126 130 0 10 7 20 15 24 8 3 15 14 15 24 0 10 4 22 10 28 13 13 22 109 14 153 -6 29 -8 32 -14 16 -4 -11 -10 -44 -14 -74 -27 -209 -258 -360 -452 -294 -61 20 -91 38 -127 76 -32 34 -28 50 6 20 45 -41 150 -83 208 -83 94 0 194 69 247 169 48 93 44 191 -13 351 -14 40 -37 119 -59 206 -18 69 -22 299 -6 309 6 3 10 16 10 27 0 51 99 188 135 188 8 0 15 4 15 10 0 5 15 12 34 16 19 3 37 12 40 20 7 20 203 20 231 0 11 -7 32 -16 48 -20 15 -3 27 -11 27 -16 0 -6 6 -10 14 -10 35 0 120 -112 131 -174 4 -20 11 -39 16 -42 16 -9 10 -239 -7 -307 -22 -88 -45 -166 -59 -207 -32 -89 -45 -152 -45 -218 0 -60 5 -80 33 -133 52 -100 152 -169 246 -169 58 0 163 42 209 83 17 16 22 17 22 5 0 -28 -66 -75 -144 -101 -126 -43 -275 4 -368 115 -77 92 -104 191 -89 323 7 69 2 110 -13 94 -2 -2 -6 -69 -9 -149 -5 -144 -1 -174 34 -230 5 -8 13 -24 19 -35 5 -11 17 -30 27 -41 28 -34 143 -114 163 -114 10 0 34 -7 53 -15 48 -20 160 -20 177 0 7 8 25 15 40 15 15 0 33 7 40 15 7 8 18 15 24 15 18 0 94 81 116 125 16 31 20 59 20 132 0 50 -4 94 -9 98 -5 3 -12 19 -16 35 -4 17 -12 30 -20 30 -16 0 -27 -42 -19 -74 10 -42 -76 -196 -110 -196 -5 0 -17 -6 -25 -14 -30 -25 -102 -36 -154 -23 -88 23 -187 135 -187 213 0 34 23 91 105 259 94 194 98 206 103 298 3 72 5 77 28 83 30 8 72 -2 91 -21 9 -10 36 -15 71 -15 117 -2 338 -10 375 -15 29 -4 38 -2 35 7 -5 15 -48 23 -228 43 -74 8 -154 19 -177 25 -23 5 -68 11 -100 11 -70 2 -93 12 -93 43 0 13 -5 38 -12 57 l-12 34 -11 -40 c-8 -28 -18 -41 -32 -43 -17 -3 -28 11 -57 72 -57 119 -164 212 -237 208 -16 -1 -29 4 -33 13 -4 12 -23 15 -93 14 -48 -1 -100 -4 -115 -6z"/>
    <path d="M1395 1497 c-17 -12 -41 -32 -55 -44 -13 -13 -29 -23 -34 -23 -6 0 -23 -6 -37 -14 -14 -7 -43 -16 -65 -21 -21 -4 -43 -10 -49 -13 -13 -9 -140 -30 -245 -41 -96 -9 -172 -26 -213 -47 -16 -8 -37 -14 -47 -14 -10 0 -22 -5 -25 -11 -4 -5 -17 -14 -28 -20 -40 -17 -61 -34 -124 -98 -35 -35 -63 -72 -63 -81 0 -9 -5 -21 -11 -27 -32 -32 -52 -128 -52 -245 0 -65 4 -123 10 -130 6 -7 13 -25 17 -41 18 -77 137 -209 200 -223 17 -3 36 -10 41 -14 10 -8 70 -14 113 -11 19 1 23 6 20 29 -3 24 -7 27 -38 27 -123 2 -206 57 -266 178 -36 73 -45 221 -18 299 32 92 76 151 160 216 23 18 49 32 57 32 8 0 20 6 26 14 6 8 24 16 39 19 15 3 45 10 67 16 54 14 187 31 319 42 59 4 113 13 120 18 6 5 30 12 54 16 23 4 42 11 42 16 0 5 11 11 25 15 27 7 35 34 10 34 -29 0 -14 38 35 89 28 28 50 58 50 66 0 18 2 18 -35 -8z"/>
    <path d="M2390 1506 c0 -8 27 -43 60 -76 60 -61 67 -80 29 -80 -10 0 -19 -7 -19 -15 0 -8 6 -15 14 -15 7 0 19 -6 25 -14 7 -8 31 -18 54 -21 23 -4 47 -11 53 -16 6 -5 60 -13 120 -18 139 -12 268 -29 319 -42 22 -6 52 -13 67 -16 15 -3 33 -11 39 -19 6 -8 18 -14 26 -14 31 0 154 -110 174 -155 5 -11 13 -27 18 -35 31 -52 36 -79 36 -184 0 -100 -3 -117 -27 -167 -59 -125 -143 -182 -268 -184 -30 0 -35 -4 -38 -26 -2 -20 2 -28 17 -32 25 -6 102 3 116 13 6 4 24 11 41 14 63 14 182 146 200 223 4 16 11 34 17 41 6 7 10 65 10 130 0 115 -18 204 -50 244 -6 7 -14 23 -17 35 -12 39 -128 149 -183 172 -11 6 -24 15 -28 20 -3 6 -15 11 -25 11 -10 0 -31 6 -47 14 -41 21 -117 38 -213 47 -89 9 -225 31 -250 41 -8 3 -46 16 -85 28 -44 14 -91 38 -127 67 -39 30 -58 39 -58 29z"/>
    <path d="M445 1420 c3 -5 15 -10 26 -10 11 0 17 5 14 10 -3 6 -15 10 -26 10 -11 0 -17 -4 -14 -10z"/>
    <path d="M3335 1420 c-4 -6 5 -10 19 -10 14 0 26 5 26 10 0 6 -9 10 -19 10 -11 0 -23 -4 -26 -10z"/>
    <path d="M510 1390 c0 -5 9 -10 21 -10 11 0 17 5 14 10 -3 6 -13 10 -21 10 -8 0 -14 -4 -14 -10z"/>
    <path d="M3275 1390 c-3 -5 3 -10 14 -10 12 0 21 5 21 10 0 6 -6 10 -14 10 -8 0 -18 -4 -21 -10z"/>
    <path d="M1850 1350 c-90 -8 -134 -35 -174 -109 -23 -43 -24 -182 -2 -251 14 -44 14 -41 15 95 2 131 3 142 25 166 41 48 88 62 196 62 108 0 155 -14 196 -62 22 -24 23 -35 24 -156 0 -105 3 -126 12 -110 7 11 14 65 16 121 4 92 2 105 -20 145 -46 83 -132 113 -288 99z"/>
    <path d="M735 1090 c-3 -5 3 -10 14 -10 12 0 21 5 21 10 0 6 -6 10 -14 10 -8 0 -18 -4 -21 -10z"/>
    <path d="M3050 1090 c0 -5 9 -10 21 -10 11 0 17 5 14 10 -3 6 -13 10 -21 10 -8 0 -14 -4 -14 -10z"/>
    <path d="M1696 903 c11 -65 23 -73 24 -15 0 40 -3 52 -15 52 -13 0 -15 -7 -9 -37z"/>
    <path d="M2100 888 c0 -38 3 -49 10 -38 13 20 13 90 0 90 -5 0 -10 -24 -10 -52z"/>
    <path d="M1730 781 c0 -17 5 -33 10 -36 6 -4 10 8 10 29 0 20 -4 36 -10 36 -5 0 -10 -13 -10 -29z"/>
    <path d="M2070 774 c0 -21 4 -33 10 -29 6 3 10 19 10 36 0 16 -4 29 -10 29 -5 0 -10 -16 -10 -36z"/>
    <path d="M1757 703 c-6 -11 8 -121 16 -129 4 -4 7 25 7 64 0 63 -9 89 -23 65z"/>
  </g>
</svg>