<?xml version="1.0" encoding="UTF-8"?>
<svg xmlns="http://www.w3.org/2000/svg" xmlns:xlink="http://www.w3.org/1999/xlink" width="25px" height="25px" viewBox="0 0 25 25" version="1.1">
<g id="surface1">
<path style=" stroke:none;fill-rule:evenodd;fill-opacity:1;" d="M 17.277344 1.992188 C 16.886719 1.980469 16.480469 2.046875 16.070312 2.179688 C 15.253906 2.445312 14.394531 2.960938 13.515625 3.679688 C 13.167969 3.957031 12.820312 4.277344 12.472656 4.617188 C 12.132812 4.289062 11.789062 3.976562 11.453125 3.703125 C 10.574219 2.984375 9.71875 2.46875 8.902344 2.203125 C 8.085938 1.9375 7.273438 1.929688 6.605469 2.316406 C 5.9375 2.703125 5.539062 3.410156 5.359375 4.25 C 5.183594 5.085938 5.203125 6.085938 5.382812 7.207031 C 5.445312 7.59375 5.535156 8.003906 5.632812 8.417969 C 5.253906 8.535156 4.882812 8.65625 4.539062 8.789062 C 3.503906 9.195312 2.648438 9.679688 2.023438 10.253906 C 1.398438 10.828125 0.996094 11.527344 0.996094 12.296875 C 0.996094 13.066406 1.398438 13.761719 2.023438 14.339844 C 2.648438 14.914062 3.503906 15.398438 4.539062 15.804688 C 4.90625 15.949219 5.304688 16.078125 5.714844 16.199219 C 5.566406 16.75 5.449219 17.285156 5.367188 17.792969 C 5.1875 18.914062 5.167969 19.914062 5.347656 20.753906 C 5.527344 21.59375 5.925781 22.304688 6.59375 22.695312 C 7.265625 23.082031 8.082031 23.070312 8.898438 22.804688 C 9.71875 22.539062 10.574219 22.023438 11.453125 21.308594 C 11.796875 21.03125 12.140625 20.714844 12.488281 20.375 C 12.835938 20.714844 13.183594 21.035156 13.527344 21.3125 C 14.40625 22.027344 15.261719 22.542969 16.078125 22.808594 C 16.894531 23.074219 17.707031 23.082031 18.375 22.695312 C 19.042969 22.3125 19.4375 21.605469 19.617188 20.765625 C 19.796875 19.925781 19.777344 18.925781 19.597656 17.808594 C 19.515625 17.300781 19.394531 16.761719 19.25 16.210938 C 19.671875 16.085938 20.082031 15.953125 20.460938 15.804688 C 21.496094 15.398438 22.351562 14.914062 22.976562 14.339844 C 23.601562 13.761719 24.003906 13.066406 24.003906 12.296875 C 24.003906 11.527344 23.601562 10.828125 22.976562 10.253906 C 22.351562 9.679688 21.496094 9.195312 20.460938 8.789062 C 20.113281 8.652344 19.734375 8.53125 19.347656 8.414062 C 19.449219 7.996094 19.542969 7.585938 19.605469 7.195312 C 19.785156 6.074219 19.804688 5.074219 19.625 4.230469 C 19.445312 3.390625 19.042969 2.679688 18.375 2.292969 C 18.039062 2.097656 17.667969 2.003906 17.277344 1.992188 Z M 17.230469 3.007812 C 17.476562 3.015625 17.683594 3.074219 17.863281 3.179688 C 18.21875 3.382812 18.484375 3.785156 18.625 4.445312 C 18.765625 5.105469 18.761719 5.996094 18.59375 7.03125 C 18.539062 7.386719 18.457031 7.761719 18.359375 8.148438 C 17.339844 7.898438 16.21875 7.71875 15.023438 7.609375 C 14.421875 6.78125 13.808594 6.023438 13.1875 5.351562 C 13.515625 5.03125 13.839844 4.730469 14.160156 4.472656 C 14.972656 3.808594 15.742188 3.359375 16.382812 3.152344 C 16.707031 3.046875 16.988281 3.003906 17.230469 3.007812 Z M 7.742188 3.011719 C 7.988281 3.003906 8.269531 3.050781 8.59375 3.15625 C 9.238281 3.363281 10.007812 3.8125 10.820312 4.476562 C 11.132812 4.730469 11.453125 5.023438 11.773438 5.335938 C 11.148438 6.015625 10.527344 6.777344 9.921875 7.617188 C 8.734375 7.722656 7.617188 7.90625 6.601562 8.15625 C 6.507812 7.773438 6.425781 7.398438 6.367188 7.046875 C 6.203125 6.011719 6.199219 5.121094 6.339844 4.457031 C 6.480469 3.792969 6.746094 3.390625 7.105469 3.183594 C 7.285156 3.078125 7.496094 3.019531 7.742188 3.011719 Z M 12.488281 6.070312 C 12.894531 6.515625 13.304688 7 13.707031 7.523438 C 13.308594 7.503906 12.90625 7.496094 12.5 7.496094 C 12.082031 7.496094 11.675781 7.503906 11.269531 7.523438 C 11.671875 7 12.082031 6.515625 12.488281 6.070312 Z M 12.5 8.503906 C 13.179688 8.503906 13.84375 8.53125 14.488281 8.578125 C 14.929688 9.21875 15.363281 9.894531 15.777344 10.609375 C 16.140625 11.238281 16.46875 11.863281 16.765625 12.484375 C 16.464844 13.113281 16.132812 13.75 15.765625 14.386719 C 15.441406 14.945312 15.101562 15.480469 14.757812 15.992188 C 14.03125 16.054688 13.273438 16.085938 12.5 16.085938 C 11.707031 16.085938 10.933594 16.050781 10.191406 15.988281 C 9.851562 15.480469 9.519531 14.957031 9.203125 14.40625 C 8.835938 13.769531 8.5 13.132812 8.199219 12.507812 C 8.503906 11.878906 8.835938 11.238281 9.207031 10.601562 C 9.617188 9.886719 10.050781 9.214844 10.492188 8.582031 C 11.140625 8.535156 11.8125 8.503906 12.5 8.503906 Z M 15.773438 8.703125 C 16.597656 8.808594 17.371094 8.949219 18.09375 9.121094 C 17.878906 9.824219 17.617188 10.554688 17.296875 11.308594 C 17.089844 10.910156 16.875 10.511719 16.644531 10.109375 C 16.363281 9.621094 16.070312 9.160156 15.773438 8.703125 Z M 9.171875 8.710938 C 8.882812 9.15625 8.597656 9.613281 8.320312 10.089844 C 8.085938 10.496094 7.867188 10.902344 7.660156 11.304688 C 7.34375 10.554688 7.082031 9.828125 6.867188 9.132812 C 7.585938 8.960938 8.351562 8.816406 9.171875 8.710938 Z M 19.082031 9.386719 C 19.4375 9.496094 19.777344 9.605469 20.09375 9.730469 C 21.046875 10.101562 21.804688 10.542969 22.292969 10.996094 C 22.78125 11.449219 22.996094 11.878906 22.996094 12.296875 C 22.996094 12.714844 22.78125 13.144531 22.292969 13.597656 C 21.804688 14.050781 21.046875 14.492188 20.09375 14.863281 C 19.742188 15 19.359375 15.125 18.960938 15.242188 C 18.675781 14.363281 18.316406 13.445312 17.882812 12.507812 C 18.378906 11.433594 18.78125 10.382812 19.082031 9.386719 Z M 5.902344 9.390625 C 6.199219 10.378906 6.59375 11.417969 7.085938 12.480469 C 6.648438 13.421875 6.285156 14.347656 6 15.230469 C 5.617188 15.117188 5.246094 14.996094 4.90625 14.863281 C 3.953125 14.492188 3.195312 14.050781 2.707031 13.597656 C 2.21875 13.144531 2.003906 12.714844 2.003906 12.296875 C 2.003906 11.878906 2.21875 11.449219 2.707031 10.996094 C 3.195312 10.542969 3.953125 10.101562 4.90625 9.730469 C 5.214844 9.609375 5.554688 9.5 5.902344 9.390625 Z M 12.5 10 C 11.125 10 10 11.125 10 12.5 C 10 13.875 11.125 15 12.5 15 C 13.875 15 15 13.875 15 12.5 C 15 11.125 13.875 10 12.5 10 Z M 7.671875 13.683594 C 7.882812 14.089844 8.101562 14.496094 8.335938 14.90625 C 8.519531 15.226562 8.710938 15.535156 8.898438 15.84375 C 8.230469 15.75 7.589844 15.628906 6.992188 15.492188 C 7.183594 14.90625 7.410156 14.300781 7.671875 13.683594 Z M 17.308594 13.683594 C 17.570312 14.304688 17.800781 14.910156 17.992188 15.496094 C 17.390625 15.632812 16.75 15.753906 16.078125 15.84375 C 16.269531 15.535156 16.460938 15.21875 16.648438 14.898438 C 16.882812 14.492188 17.101562 14.085938 17.308594 13.683594 Z M 6.703125 16.460938 C 7.609375 16.675781 8.589844 16.839844 9.628906 16.949219 C 10.324219 17.953125 11.046875 18.855469 11.773438 19.644531 C 11.449219 19.960938 11.125 20.257812 10.8125 20.515625 C 9.996094 21.175781 9.226562 21.625 8.585938 21.835938 C 7.941406 22.042969 7.464844 22.015625 7.105469 21.808594 C 6.75 21.601562 6.488281 21.203125 6.34375 20.539062 C 6.203125 19.878906 6.207031 18.988281 6.375 17.953125 C 6.449219 17.484375 6.5625 16.984375 6.703125 16.460938 Z M 18.28125 16.464844 C 18.421875 16.992188 18.535156 17.496094 18.609375 17.96875 C 18.777344 19.003906 18.78125 19.894531 18.640625 20.554688 C 18.5 21.21875 18.234375 21.625 17.875 21.832031 C 17.515625 22.039062 17.03125 22.066406 16.386719 21.859375 C 15.742188 21.648438 14.972656 21.199219 14.15625 20.539062 C 13.839844 20.28125 13.515625 19.980469 13.1875 19.660156 C 13.917969 18.867188 14.648438 17.960938 15.347656 16.949219 C 16.390625 16.84375 17.371094 16.679688 18.28125 16.464844 Z M 10.933594 17.050781 C 11.445312 17.078125 11.96875 17.097656 12.5 17.097656 C 13.015625 17.097656 13.519531 17.078125 14.015625 17.054688 C 13.507812 17.738281 12.988281 18.363281 12.472656 18.921875 C 11.957031 18.363281 11.441406 17.738281 10.933594 17.050781 Z M 10.933594 17.050781 "/>
</g>
</svg>
