<?xml version="1.0" encoding="UTF-8"?>
<svg xmlns="http://www.w3.org/2000/svg" xmlns:xlink="http://www.w3.org/1999/xlink" width="25px" height="25px" viewBox="0 0 25 25" version="1.1">
<g id="surface1">
<path style=" stroke:none;fill-rule:nonzero;fill-opacity:1;" d="M 7.625 14.707031 C 8.875 14.707031 9.890625 13.691406 9.890625 12.4375 C 9.890625 11.1875 8.875 10.171875 7.625 10.171875 C 6.371094 10.171875 5.355469 11.1875 5.355469 12.4375 C 5.355469 13.691406 6.371094 14.707031 7.625 14.707031 Z M 2.265625 19.238281 C 3.519531 19.238281 4.53125 18.222656 4.53125 16.972656 C 4.53125 15.71875 3.519531 14.707031 2.265625 14.707031 C 1.015625 14.707031 0 15.71875 0 16.972656 C 0 18.222656 1.015625 19.238281 2.265625 19.238281 Z M 22.734375 19.238281 C 23.984375 19.238281 25 18.222656 25 16.972656 C 25 15.71875 23.984375 14.707031 22.734375 14.707031 C 21.480469 14.707031 20.46875 15.71875 20.46875 16.972656 C 20.46875 18.222656 21.480469 19.238281 22.734375 19.238281 Z M 22.734375 19.238281 "/>
<path style=" stroke:none;fill-rule:nonzero;fill-opacity:1;" d="M 15.289062 12.535156 C 15.21875 11.777344 15.179688 11.148438 14.601562 10.703125 C 13.867188 10.144531 13.035156 10.507812 12.007812 10.136719 C 11 9.894531 10.253906 9 10.253906 7.933594 C 10.253906 6.679688 11.285156 5.664062 12.5625 5.664062 C 13.503906 5.664062 14.316406 6.222656 14.671875 7.019531 C 15.222656 8.058594 14.867188 9.117188 15.550781 9.648438 C 16.367188 10.28125 17.464844 9.816406 18.6875 10.414062 C 19.082031 10.597656 19.414062 10.882812 19.648438 11.238281 C 19.882812 11.59375 20.019531 12.015625 20.019531 12.472656 C 20.019531 13.539062 19.273438 14.433594 18.265625 14.675781 C 17.238281 15.046875 16.40625 14.683594 15.671875 15.242188 C 14.847656 15.875 15.289062 16.929688 14.617188 18.042969 C 14.234375 18.777344 13.457031 19.28125 12.5625 19.28125 C 11.285156 19.28125 10.253906 18.265625 10.253906 17.011719 C 10.253906 16.101562 10.800781 15.316406 11.585938 14.953125 C 12.808594 14.355469 13.90625 14.820312 14.722656 14.1875 C 15.191406 13.824219 15.289062 13.261719 15.289062 12.535156 Z M 15.289062 12.535156 "/>
</g>
</svg>
