<?xml version="1.0" encoding="UTF-8"?>
<svg xmlns="http://www.w3.org/2000/svg" xmlns:xlink="http://www.w3.org/1999/xlink" width="25px" height="25px" viewBox="0 0 25 25" version="1.1">
<g id="surface1">
<path style=" stroke:none;fill-rule:nonzero;fill-opacity:1;" d="M 12.5 10.53125 C 13.574219 10.53125 14.445312 11.398438 14.449219 12.472656 C 14.453125 13.546875 13.585938 14.417969 12.515625 14.425781 C 11.441406 14.433594 10.5625 13.574219 10.550781 12.5 C 10.546875 11.417969 11.417969 10.535156 12.5 10.53125 M 7.675781 20.832031 C 8.332031 21.230469 9.761719 20.625 11.425781 19.0625 C 10.871094 18.429688 10.34375 17.769531 9.855469 17.082031 C 9.015625 16.988281 8.179688 16.851562 7.355469 16.667969 C 6.824219 18.894531 7.019531 20.425781 7.675781 20.832031 M 8.417969 14.855469 L 8.113281 14.324219 C 7.996094 14.617188 7.894531 14.914062 7.8125 15.21875 C 8.09375 15.28125 8.40625 15.332031 8.730469 15.386719 L 8.417969 14.855469 M 15.230469 14.0625 L 16.074219 12.5 L 15.230469 10.9375 C 14.917969 10.386719 14.582031 9.894531 14.28125 9.40625 C 13.71875 9.375 13.125 9.375 12.5 9.375 C 11.875 9.375 11.28125 9.375 10.71875 9.375 C 10.417969 9.863281 10.082031 10.355469 9.769531 10.90625 L 8.925781 12.5 L 9.769531 14.0625 C 10.082031 14.613281 10.417969 15.105469 10.71875 15.59375 C 11.28125 15.59375 11.875 15.59375 12.5 15.59375 C 13.125 15.59375 13.71875 15.59375 14.28125 15.59375 C 14.582031 15.105469 14.917969 14.613281 15.230469 14.0625 M 12.5 7.0625 C 12.300781 7.292969 12.09375 7.53125 11.886719 7.8125 L 13.113281 7.8125 C 12.90625 7.53125 12.699219 7.292969 12.5 7.0625 M 12.5 17.9375 C 12.699219 17.707031 12.90625 17.46875 13.113281 17.1875 L 11.886719 17.1875 C 12.09375 17.46875 12.300781 17.707031 12.5 17.9375 M 17.3125 4.167969 C 16.667969 3.769531 15.230469 4.375 13.574219 5.9375 C 14.128906 6.570312 14.65625 7.230469 15.144531 7.917969 C 15.984375 7.996094 16.820312 8.121094 17.644531 8.292969 C 18.175781 6.0625 17.980469 4.53125 17.3125 4.125 M 16.582031 10.105469 L 16.886719 10.636719 C 17.003906 10.34375 17.105469 10.042969 17.1875 9.738281 C 16.90625 9.675781 16.59375 9.625 16.269531 9.574219 L 16.582031 10.105469 M 18.09375 2.8125 C 19.625 3.6875 19.792969 5.988281 19.136719 8.675781 C 21.78125 9.457031 23.6875 10.761719 23.6875 12.511719 C 23.6875 14.261719 21.78125 15.5625 19.136719 16.34375 C 19.78125 19.03125 19.613281 21.332031 18.09375 22.207031 C 16.574219 23.082031 14.5 22.082031 12.5 20.175781 C 10.5 22.082031 8.425781 23.082031 6.894531 22.207031 C 5.363281 21.332031 5.207031 19.082031 5.855469 16.34375 C 3.207031 15.5625 1.300781 14.261719 1.300781 12.511719 C 1.300781 10.761719 3.207031 9.449219 5.855469 8.667969 C 5.207031 5.980469 5.375 3.675781 6.894531 2.800781 C 8.417969 1.925781 10.5 2.925781 12.5 4.832031 C 14.5 2.925781 16.574219 1.925781 18.09375 2.800781 M 17.792969 12.5 C 18.152344 13.265625 18.472656 14.050781 18.75 14.855469 C 20.9375 14.199219 22.167969 13.261719 22.167969 12.5 C 22.167969 11.738281 20.90625 10.800781 18.75 10.144531 C 18.472656 10.949219 18.152344 11.734375 17.792969 12.5 M 7.207031 12.5 C 6.847656 11.734375 6.527344 10.949219 6.25 10.144531 C 4.0625 10.800781 2.832031 11.738281 2.832031 12.5 C 2.832031 13.261719 4.09375 14.199219 6.25 14.855469 C 6.527344 14.050781 6.847656 13.265625 7.207031 12.5 M 16.582031 14.855469 L 16.269531 15.386719 C 16.59375 15.386719 16.90625 15.28125 17.1875 15.21875 C 17.105469 14.914062 17.003906 14.617188 16.886719 14.324219 L 16.582031 14.855469 M 13.542969 19.0625 C 15.199219 20.625 16.667969 21.230469 17.28125 20.832031 C 17.894531 20.4375 18.144531 18.9375 17.613281 16.667969 C 16.789062 16.835938 15.953125 16.960938 15.113281 17.042969 C 14.625 17.742188 14.101562 18.414062 13.542969 19.0625 M 8.417969 10.144531 L 8.730469 9.613281 C 8.40625 9.613281 8.09375 9.71875 7.8125 9.78125 C 7.894531 10.085938 7.996094 10.382812 8.113281 10.675781 L 8.417969 10.144531 M 11.457031 5.9375 C 9.769531 4.375 8.332031 3.769531 7.675781 4.167969 C 7.019531 4.5625 6.824219 6.0625 7.355469 8.332031 C 8.179688 8.164062 9.015625 8.039062 9.855469 7.957031 C 10.355469 7.257812 10.890625 6.582031 11.457031 5.9375 Z M 11.457031 5.9375 "/>
</g>
</svg>
