<?xml version="1.0" encoding="UTF-8"?>
<svg xmlns="http://www.w3.org/2000/svg" xmlns:xlink="http://www.w3.org/1999/xlink" width="25px" height="25px" viewBox="0 0 25 25" version="1.1">
<g id="surface1">
<path style=" stroke:none;fill-rule:nonzero;fill-opacity:1;" d="M 12 1 C 8.414062 1 5.5 5.144531 5.5 10.242188 C 5.5 12.875 6.28125 15.246094 7.53125 16.929688 C 7.433594 17.441406 7.570312 17.96875 7.90625 18.367188 C 8.238281 18.769531 8.730469 19 9.25 19 C 10.214844 19 11 18.214844 11 17.25 C 11 16.285156 10.214844 15.5 9.25 15.5 C 9.15625 15.5 9.058594 15.507812 8.964844 15.523438 C 8.070312 14.195312 7.5 12.304688 7.5 10.242188 C 7.5 6.316406 9.5625 3 12 3 C 14.058594 3 15.84375 5.367188 16.351562 8.46875 C 17.0625 8.671875 17.769531 8.949219 18.464844 9.28125 C 18.125 4.636719 15.355469 1 12 1 Z M 11.25 8.5 C 10.285156 8.5 9.5 9.285156 9.5 10.25 C 9.5 11.214844 10.285156 12 11.25 12 C 11.917969 12 12.527344 11.621094 12.820312 11.019531 C 14.445312 10.917969 16.324219 11.421875 18.054688 12.460938 C 21.488281 14.515625 23.351562 18.113281 22.128906 20.3125 C 21.726562 21.035156 21.003906 21.554688 20.035156 21.8125 C 18.640625 22.1875 16.929688 21.996094 15.246094 21.320312 C 14.710938 21.816406 14.121094 22.28125 13.480469 22.710938 C 15.144531 23.550781 16.90625 24 18.53125 24 C 19.234375 24 19.917969 23.914062 20.550781 23.746094 C 22.054688 23.34375 23.207031 22.492188 23.875 21.28125 C 25.667969 18.058594 23.5625 13.429688 19.085938 10.742188 C 16.953125 9.464844 14.59375 8.875 12.515625 9.046875 C 12.1875 8.699219 11.730469 8.5 11.25 8.5 Z M 4.578125 11.664062 C 1.039062 14.398438 -0.480469 18.398438 1.125 21.28125 C 1.796875 22.492188 2.945312 23.34375 4.449219 23.746094 C 5.085938 23.914062 5.765625 24 6.46875 24 C 8.371094 24 10.453125 23.394531 12.351562 22.257812 C 14.476562 20.984375 16.046875 19.273438 16.9375 17.480469 C 17.8125 17.386719 18.5 16.652344 18.5 15.75 C 18.5 14.785156 17.714844 14 16.75 14 C 15.785156 14 15 14.785156 15 15.75 C 15 16.019531 15.066406 16.273438 15.175781 16.5 C 14.453125 17.988281 13.105469 19.472656 11.324219 20.539062 C 9.175781 21.828125 6.800781 22.304688 4.964844 21.8125 C 3.996094 21.554688 3.273438 21.035156 2.871094 20.3125 C 1.90625 18.570312 2.875 15.960938 5.015625 13.929688 C 4.808594 13.207031 4.660156 12.449219 4.578125 11.664062 Z M 4.578125 11.664062 "/>
</g>
</svg>
