<?xml version="1.0" encoding="UTF-8"?>
<svg xmlns="http://www.w3.org/2000/svg" xmlns:xlink="http://www.w3.org/1999/xlink" width="25px" height="25px" viewBox="0 0 25 25" version="1.1">
<g id="surface1">
<path style=" stroke:none;fill-rule:nonzero;fill-opacity:1;" d="M 21.515625 13.902344 C 20.640625 13.90625 19.882812 14.117188 19.25 14.429688 C 19.019531 13.964844 18.78125 13.558594 18.742188 13.253906 C 18.699219 12.902344 18.644531 12.691406 18.699219 12.269531 C 18.753906 11.847656 19 11.25 18.996094 11.207031 C 18.992188 11.160156 18.941406 10.945312 18.4375 10.941406 C 17.933594 10.941406 17.5 11.039062 17.449219 11.171875 C 17.398438 11.304688 17.300781 11.605469 17.242188 11.917969 C 17.152344 12.375 16.238281 14.003906 15.714844 14.859375 C 15.542969 14.523438 15.398438 14.230469 15.371094 14 C 15.324219 13.644531 15.269531 13.433594 15.324219 13.011719 C 15.382812 12.59375 15.625 11.996094 15.621094 11.949219 C 15.617188 11.90625 15.566406 11.691406 15.0625 11.6875 C 14.558594 11.683594 14.128906 11.785156 14.078125 11.917969 C 14.027344 12.050781 13.972656 12.363281 13.867188 12.664062 C 13.765625 12.964844 12.546875 15.683594 12.226562 16.386719 C 12.0625 16.746094 11.921875 17.035156 11.820312 17.230469 C 11.820312 17.230469 11.816406 17.242188 11.804688 17.265625 C 11.71875 17.433594 11.667969 17.527344 11.667969 17.527344 C 11.667969 17.527344 11.667969 17.527344 11.667969 17.53125 C 11.601562 17.652344 11.527344 17.765625 11.492188 17.765625 C 11.46875 17.765625 11.417969 17.441406 11.503906 16.988281 C 11.683594 16.046875 12.121094 14.574219 12.117188 14.527344 C 12.113281 14.5 12.199219 14.242188 11.832031 14.109375 C 11.476562 13.980469 11.347656 14.195312 11.316406 14.195312 C 11.285156 14.195312 11.261719 14.273438 11.261719 14.273438 C 11.261719 14.273438 11.65625 12.617188 10.503906 12.617188 C 9.785156 12.617188 8.789062 13.40625 8.296875 14.121094 C 7.984375 14.289062 7.320312 14.652344 6.617188 15.039062 C 6.347656 15.1875 6.070312 15.339844 5.808594 15.484375 C 5.789062 15.464844 5.773438 15.445312 5.753906 15.425781 C 4.359375 13.933594 1.777344 12.882812 1.886719 10.878906 C 1.925781 10.148438 2.179688 8.230469 6.847656 5.90625 C 10.671875 4 13.734375 4.523438 14.261719 5.683594 C 15.019531 7.347656 12.625 10.433594 8.65625 10.878906 C 7.140625 11.046875 6.34375 10.460938 6.144531 10.242188 C 5.9375 10.011719 5.90625 10 5.828125 10.046875 C 5.703125 10.117188 5.78125 10.320312 5.828125 10.441406 C 5.945312 10.746094 6.433594 11.296875 7.261719 11.566406 C 7.992188 11.808594 9.769531 11.9375 11.917969 11.109375 C 14.324219 10.175781 16.203125 7.585938 15.652344 5.421875 C 15.089844 3.222656 11.441406 2.496094 7.988281 3.722656 C 5.929688 4.453125 3.707031 5.601562 2.105469 7.097656 C 0.203125 8.878906 -0.101562 10.425781 0.0234375 11.074219 C 0.46875 13.375 3.636719 14.871094 4.90625 15.980469 C 4.84375 16.015625 4.785156 16.046875 4.734375 16.078125 C 4.097656 16.394531 1.679688 17.65625 1.074219 18.992188 C 0.390625 20.507812 1.183594 21.597656 1.710938 21.742188 C 3.339844 22.195312 5.015625 21.378906 5.914062 20.039062 C 6.8125 18.699219 6.703125 16.953125 6.289062 16.15625 C 6.285156 16.148438 6.277344 16.136719 6.273438 16.128906 C 6.4375 16.03125 6.605469 15.929688 6.773438 15.832031 C 7.09375 15.644531 7.414062 15.464844 7.691406 15.316406 C 7.535156 15.738281 7.421875 16.246094 7.363281 16.976562 C 7.292969 17.839844 7.648438 18.949219 8.109375 19.386719 C 8.3125 19.582031 8.554688 19.585938 8.710938 19.585938 C 9.246094 19.585938 9.492188 19.136719 9.761719 18.609375 C 10.09375 17.960938 10.386719 17.207031 10.386719 17.207031 C 10.386719 17.207031 10.019531 19.246094 11.023438 19.246094 C 11.386719 19.246094 11.753906 18.769531 11.917969 18.53125 C 11.921875 18.53125 11.921875 18.535156 11.921875 18.535156 C 11.921875 18.535156 11.929688 18.519531 11.949219 18.484375 C 11.984375 18.429688 12.007812 18.390625 12.007812 18.390625 C 12.007812 18.390625 12.007812 18.386719 12.007812 18.378906 C 12.15625 18.125 12.484375 17.542969 12.972656 16.582031 C 13.601562 15.34375 14.210938 13.789062 14.210938 13.789062 C 14.210938 13.789062 14.265625 14.171875 14.449219 14.796875 C 14.558594 15.167969 14.789062 15.574219 14.972656 15.96875 C 14.824219 16.171875 14.734375 16.289062 14.734375 16.289062 C 14.734375 16.289062 14.734375 16.289062 14.738281 16.292969 C 14.621094 16.449219 14.488281 16.617188 14.351562 16.78125 C 13.851562 17.375 13.257812 18.050781 13.179688 18.25 C 13.085938 18.480469 13.109375 18.648438 13.289062 18.785156 C 13.421875 18.882812 13.65625 18.898438 13.902344 18.882812 C 14.351562 18.851562 14.664062 18.742188 14.820312 18.675781 C 15.0625 18.589844 15.347656 18.453125 15.613281 18.257812 C 16.101562 17.898438 16.394531 17.386719 16.367188 16.703125 C 16.351562 16.328125 16.230469 15.957031 16.082031 15.605469 C 16.125 15.539062 16.167969 15.476562 16.214844 15.410156 C 16.984375 14.285156 17.582031 13.046875 17.582031 13.046875 C 17.582031 13.046875 17.640625 13.425781 17.824219 14.050781 C 17.917969 14.371094 18.101562 14.71875 18.265625 15.058594 C 17.542969 15.644531 17.09375 16.332031 16.9375 16.78125 C 16.648438 17.609375 16.875 17.988281 17.296875 18.070312 C 17.488281 18.109375 17.761719 18.023438 17.964844 17.9375 C 18.21875 17.851562 18.523438 17.710938 18.808594 17.503906 C 19.296875 17.144531 19.769531 16.640625 19.742188 15.957031 C 19.726562 15.648438 19.644531 15.339844 19.53125 15.042969 C 20.144531 14.789062 20.941406 14.644531 21.953125 14.765625 C 24.128906 15.019531 24.554688 16.375 24.472656 16.945312 C 24.390625 17.511719 23.933594 17.824219 23.78125 17.917969 C 23.628906 18.011719 23.585938 18.046875 23.597656 18.117188 C 23.617188 18.21875 23.6875 18.214844 23.816406 18.191406 C 23.996094 18.160156 24.957031 17.730469 25 16.679688 C 25.050781 15.351562 23.773438 13.890625 21.515625 13.902344 Z M 4.757812 19.550781 C 4.035156 20.335938 3.03125 20.632812 2.597656 20.382812 C 2.132812 20.113281 2.316406 18.957031 3.199219 18.121094 C 3.738281 17.613281 4.433594 17.148438 4.894531 16.859375 C 5 16.796875 5.15625 16.703125 5.34375 16.589844 C 5.375 16.574219 5.390625 16.5625 5.390625 16.5625 C 5.425781 16.539062 5.464844 16.515625 5.503906 16.496094 C 5.824219 17.679688 5.511719 18.726562 4.757812 19.550781 Z M 10.003906 15.984375 C 9.75 16.59375 9.226562 18.160156 8.90625 18.074219 C 8.632812 18.003906 8.464844 16.816406 8.851562 15.644531 C 9.046875 15.054688 9.460938 14.351562 9.707031 14.078125 C 10.097656 13.636719 10.53125 13.496094 10.636719 13.671875 C 10.773438 13.898438 10.160156 15.601562 10.003906 15.984375 Z M 14.335938 18.050781 C 14.230469 18.109375 14.132812 18.144531 14.089844 18.117188 C 14.054688 18.097656 14.132812 18.023438 14.132812 18.023438 C 14.132812 18.023438 14.675781 17.441406 14.886719 17.175781 C 15.011719 17.019531 15.15625 16.835938 15.3125 16.632812 C 15.316406 16.652344 15.316406 16.671875 15.316406 16.691406 C 15.3125 17.390625 14.636719 17.863281 14.335938 18.050781 Z M 17.675781 17.289062 C 17.597656 17.234375 17.609375 17.050781 17.871094 16.484375 C 17.972656 16.261719 18.207031 15.886719 18.613281 15.527344 C 18.660156 15.671875 18.691406 15.816406 18.6875 15.945312 C 18.683594 16.828125 18.054688 17.15625 17.675781 17.289062 Z M 17.675781 17.289062 "/>
</g>
</svg>
