<?xml version="1.0" encoding="UTF-8"?>
<svg xmlns="http://www.w3.org/2000/svg" xmlns:xlink="http://www.w3.org/1999/xlink" width="25px" height="25px" viewBox="0 0 25 25" version="1.1">
<g id="surface1">
<path style=" stroke:none;fill-rule:nonzero;fill-opacity:1;" d="M 11.015625 24.984375 C 8.675781 24.816406 6.363281 24.226562 4.945312 23.4375 C 4.136719 22.988281 3.519531 22.4375 3.28125 21.945312 L 3.136719 21.652344 L 3.136719 3.289062 L 3.25 3.058594 C 3.757812 2.027344 5.378906 1.097656 7.644531 0.539062 C 8.414062 0.347656 9.523438 0.160156 10.425781 0.0664062 C 11.351562 -0.03125 13.800781 -0.0195312 14.722656 0.0898438 C 17.171875 0.378906 19.257812 1.023438 20.542969 1.890625 C 21.039062 2.222656 21.546875 2.757812 21.71875 3.128906 L 21.867188 3.441406 L 21.855469 12.597656 L 21.84375 21.75 L 21.722656 21.992188 C 21.660156 22.125 21.460938 22.382812 21.285156 22.570312 C 20.21875 23.703125 17.925781 24.539062 14.917969 24.898438 C 14.304688 24.96875 11.644531 25.03125 11.015625 24.984375 Z M 15.328125 17.117188 C 15.320312 17.09375 14.96875 16.78125 14.550781 16.425781 C 14.132812 16.066406 13.773438 15.757812 13.75 15.738281 C 13.726562 15.714844 13.804688 15.644531 13.921875 15.574219 C 14.039062 15.507812 14.261719 15.316406 14.417969 15.152344 C 14.875 14.671875 15.089844 14.082031 15.089844 13.304688 C 15.089844 12.542969 14.859375 11.925781 14.390625 11.453125 C 13.921875 10.980469 13.382812 10.777344 12.597656 10.777344 C 11.386719 10.777344 10.457031 11.484375 10.160156 12.628906 C 10.058594 13.023438 10.058594 13.820312 10.160156 14.167969 C 10.429688 15.078125 11.15625 15.742188 12.066406 15.894531 C 12.371094 15.949219 12.414062 15.972656 12.625 16.199219 C 12.746094 16.335938 13.003906 16.609375 13.191406 16.804688 L 13.53125 17.160156 L 14.4375 17.160156 C 14.9375 17.160156 15.335938 17.140625 15.328125 17.117188 Z M 12.21875 14.578125 C 12 14.464844 11.917969 14.375 11.792969 14.121094 C 11.699219 13.925781 11.679688 13.816406 11.679688 13.355469 C 11.679688 12.886719 11.695312 12.785156 11.792969 12.578125 C 11.957031 12.246094 12.183594 12.089844 12.535156 12.0625 C 13.023438 12.027344 13.304688 12.265625 13.449219 12.839844 C 13.632812 13.546875 13.433594 14.296875 13 14.542969 C 12.773438 14.675781 12.433594 14.6875 12.21875 14.578125 Z M 8.199219 15.886719 C 9.152344 15.707031 9.691406 15.152344 9.691406 14.359375 C 9.691406 13.65625 9.34375 13.246094 8.378906 12.816406 C 7.828125 12.570312 7.628906 12.414062 7.628906 12.234375 C 7.628906 12.085938 7.816406 11.921875 8.039062 11.878906 C 8.253906 11.839844 8.824219 11.9375 9.160156 12.074219 L 9.445312 12.1875 L 9.445312 10.9375 L 9.136719 10.871094 C 8.949219 10.828125 8.550781 10.800781 8.09375 10.804688 C 7.449219 10.804688 7.324219 10.820312 7.082031 10.914062 C 6.371094 11.195312 6.035156 11.675781 6.042969 12.398438 C 6.046875 13.070312 6.402344 13.492188 7.289062 13.871094 C 7.8125 14.09375 8.019531 14.265625 8.019531 14.464844 C 8.019531 14.894531 7.308594 14.945312 6.554688 14.574219 C 6.347656 14.472656 6.164062 14.382812 6.144531 14.371094 C 6.121094 14.359375 6.105469 14.652344 6.105469 15.019531 C 6.105469 15.6875 6.105469 15.6875 6.226562 15.734375 C 6.679688 15.90625 7.683594 15.984375 8.199219 15.886719 Z M 19.066406 15.269531 L 19.066406 14.703125 L 17.351562 14.703125 L 17.351562 10.824219 L 15.828125 10.824219 L 15.828125 15.832031 L 19.066406 15.832031 Z M 13.765625 5.375 C 15.277344 5.269531 16.410156 5.070312 17.410156 4.738281 C 18.402344 4.40625 18.988281 4.003906 19.121094 3.566406 C 19.171875 3.394531 19.167969 3.332031 19.097656 3.148438 C 18.78125 2.316406 17.007812 1.679688 14.304688 1.421875 C 13.144531 1.308594 11.039062 1.347656 9.9375 1.496094 C 8.25 1.722656 6.882812 2.144531 6.277344 2.625 C 5.046875 3.601562 6.347656 4.671875 9.371094 5.175781 C 10.683594 5.394531 12.378906 5.46875 13.765625 5.375 Z M 13.765625 5.375 "/>
</g>
</svg>
