<?xml version="1.0" encoding="UTF-8"?>
<svg xmlns="http://www.w3.org/2000/svg" xmlns:xlink="http://www.w3.org/1999/xlink" width="25px" height="25px" viewBox="0 0 25 25" version="1.1">
<g id="surface1">
<path style=" stroke:none;fill-rule:nonzero;fill-opacity:1;" d="M 17.019531 0.25 L 16.894531 3.074219 C 16.890625 3.230469 17.074219 3.328125 17.199219 3.230469 L 18.300781 2.398438 L 19.238281 3.125 C 19.359375 3.207031 19.523438 3.125 19.53125 2.976562 L 19.425781 0.105469 L 20.8125 0 C 21.535156 -0.0507812 22.148438 0.523438 22.148438 1.25 L 22.148438 23.75 C 22.148438 24.46875 21.550781 25.035156 20.832031 25 L 4.0625 24.25 C 3.410156 24.222656 2.886719 23.699219 2.863281 23.042969 L 2.082031 2.417969 C 2.042969 1.726562 2.566406 1.132812 3.257812 1.09375 L 17.007812 0.226562 Z M 13.824219 9.6875 C 13.824219 10.175781 17.113281 9.9375 17.5625 9.601562 C 17.5625 6.269531 15.769531 4.507812 12.5 4.507812 C 9.21875 4.507812 7.398438 6.304688 7.398438 8.980469 C 7.398438 13.613281 13.648438 13.695312 13.648438 16.226562 C 13.648438 16.960938 13.3125 17.375 12.554688 17.375 C 11.550781 17.375 11.144531 16.867188 11.199219 15.125 C 11.199219 14.75 7.398438 14.625 7.273438 15.125 C 6.992188 19.324219 9.59375 20.539062 12.582031 20.539062 C 15.492188 20.539062 17.761719 18.992188 17.761719 16.1875 C 17.761719 11.21875 11.40625 11.351562 11.40625 8.894531 C 11.40625 7.886719 12.160156 7.75 12.582031 7.75 C 13.054688 7.75 13.882812 7.824219 13.824219 9.695312 Z M 13.824219 9.6875 "/>
</g>
</svg>
