<?xml version="1.0" encoding="UTF-8"?>
<svg xmlns="http://www.w3.org/2000/svg" xmlns:xlink="http://www.w3.org/1999/xlink" width="25px" height="25px" viewBox="0 0 25 25" version="1.1">
<g id="surface1">
<path style=" stroke:none;fill-rule:nonzero;fill-opacity:1;" d="M 2.5 3.5 C 1.121094 3.5 0 4.621094 0 6 L 0 19 C 0 20.378906 1.121094 21.5 2.5 21.5 L 22.5 21.5 C 23.878906 21.5 25 20.378906 25 19 L 25 6 C 25 4.621094 23.878906 3.5 22.5 3.5 Z M 12.953125 9 C 13 8.992188 13.046875 9 13.09375 9 C 13.46875 9 13.765625 9.292969 13.765625 9.671875 C 13.765625 10.046875 13.46875 10.34375 13.09375 10.34375 C 12.714844 10.34375 12.40625 10.046875 12.40625 9.671875 C 12.40625 9.34375 12.640625 9.0625 12.953125 9 Z M 8.40625 9.59375 L 8.40625 10.75 L 9.234375 10.75 L 9.078125 11.703125 L 8.40625 11.703125 L 8.40625 13.390625 C 8.40625 13.6875 8.527344 13.8125 8.78125 13.8125 C 8.898438 13.8125 9.078125 13.769531 9.15625 13.75 L 9.15625 14.765625 C 9.015625 14.800781 8.800781 14.859375 8.46875 14.859375 C 8.039062 14.859375 7.742188 14.765625 7.53125 14.59375 C 7.277344 14.386719 7.15625 14.0625 7.15625 13.578125 L 7.15625 11.703125 L 6.625 11.703125 L 6.765625 10.8125 L 7.15625 10.75 L 7.3125 9.78125 Z M 5.078125 10.671875 C 5.695312 10.671875 6.140625 10.835938 6.359375 10.9375 L 6.203125 11.90625 C 5.929688 11.773438 5.53125 11.625 5.140625 11.625 C 4.929688 11.625 4.8125 11.699219 4.8125 11.84375 C 4.8125 12.015625 5.027344 12.125 5.40625 12.265625 C 6.117188 12.519531 6.546875 12.8125 6.546875 13.53125 C 6.546875 13.964844 6.398438 14.304688 6.109375 14.53125 C 5.851562 14.738281 5.460938 14.859375 5 14.859375 C 4.421875 14.859375 3.863281 14.671875 3.5625 14.5 L 3.71875 13.53125 C 4.070312 13.738281 4.609375 13.90625 4.9375 13.90625 C 5.203125 13.90625 5.34375 13.8125 5.34375 13.640625 C 5.34375 13.464844 5.203125 13.347656 4.75 13.1875 C 4.050781 12.933594 3.625 12.625 3.625 11.921875 C 3.625 11.53125 3.761719 11.222656 4.03125 11 C 4.289062 10.789062 4.640625 10.671875 5.078125 10.671875 Z M 16.53125 10.671875 C 16.9375 10.671875 17.257812 10.8125 17.484375 11.109375 C 17.742188 11.441406 17.875 11.957031 17.875 12.640625 C 17.875 13.414062 17.691406 13.996094 17.34375 14.375 C 16.980469 14.765625 16.523438 14.859375 16.203125 14.859375 C 16.023438 14.859375 15.820312 14.828125 15.625 14.765625 L 15.625 16.046875 L 14.328125 16.265625 L 14.328125 10.75 L 15.46875 10.75 L 15.53125 11.15625 C 15.835938 10.828125 16.15625 10.671875 16.53125 10.671875 Z M 20.140625 10.671875 C 20.671875 10.671875 21.078125 10.855469 21.359375 11.21875 C 21.632812 11.578125 21.78125 12.078125 21.78125 12.71875 C 21.78125 12.8125 21.773438 13.109375 21.765625 13.171875 L 19.640625 13.171875 C 19.664062 13.4375 19.742188 13.621094 19.875 13.734375 C 20 13.84375 20.171875 13.890625 20.421875 13.890625 C 20.835938 13.890625 21.199219 13.8125 21.515625 13.640625 L 21.65625 14.515625 C 21.335938 14.726562 20.828125 14.859375 20.28125 14.859375 C 19.6875 14.859375 19.226562 14.703125 18.90625 14.390625 C 18.546875 14.046875 18.359375 13.507812 18.359375 12.78125 C 18.359375 11.484375 19.046875 10.671875 20.140625 10.671875 Z M 11.703125 10.6875 C 11.78125 10.6875 11.851562 10.699219 11.9375 10.71875 L 11.9375 11.90625 C 11.851562 11.890625 11.789062 11.890625 11.71875 11.890625 C 11.40625 11.890625 11.175781 11.960938 11.015625 12.15625 L 11.015625 14.78125 L 9.734375 14.78125 L 9.734375 10.75 L 10.859375 10.75 L 10.9375 11.21875 C 11.050781 10.875 11.339844 10.6875 11.703125 10.6875 Z M 12.4375 10.75 L 13.734375 10.75 L 13.734375 14.78125 L 12.4375 14.78125 Z M 20.015625 11.546875 C 19.789062 11.605469 19.65625 11.890625 19.625 12.390625 L 20.578125 12.390625 C 20.558594 11.820312 20.398438 11.546875 20.109375 11.546875 C 20.070312 11.546875 20.046875 11.539062 20.015625 11.546875 Z M 16.109375 11.65625 C 16.039062 11.65625 15.84375 11.679688 15.625 11.90625 L 15.625 13.8125 C 15.726562 13.863281 15.839844 13.890625 15.96875 13.890625 C 16.15625 13.890625 16.320312 13.789062 16.421875 13.59375 C 16.539062 13.386719 16.59375 13.078125 16.59375 12.6875 C 16.59375 12 16.4375 11.65625 16.109375 11.65625 Z M 16.109375 11.65625 "/>
</g>
</svg>
