<?xml version="1.0" encoding="UTF-8"?>
<svg xmlns="http://www.w3.org/2000/svg" xmlns:xlink="http://www.w3.org/1999/xlink" width="25px" height="25px" viewBox="0 0 25 25" version="1.1">
<g id="surface1">
<path style=" stroke:none;fill-rule:nonzero;fill-opacity:1;" d="M 16.890625 7.042969 L 16.8125 7.449219 C 16.691406 8.222656 16.734375 8.445312 17.066406 8.730469 L 17.386719 8.996094 L 17.054688 10.472656 C 16.855469 11.351562 16.613281 12.089844 16.460938 12.335938 C 16.328125 12.542969 16.171875 12.851562 16.140625 13.019531 C 16.085938 13.214844 15.898438 13.414062 15.609375 13.589844 C 15.355469 13.734375 14.859375 14.121094 14.507812 14.429688 C 14.226562 14.683594 14.035156 14.835938 13.929688 14.902344 L 13.585938 15.175781 C 13.472656 15.351562 13.410156 15.496094 13.386719 15.605469 C 13.363281 15.714844 13.378906 15.789062 13.414062 15.84375 C 13.445312 15.894531 13.507812 15.933594 13.585938 15.957031 C 13.683594 15.976562 13.78125 15.984375 13.882812 15.980469 C 14.105469 15.964844 14.324219 15.925781 14.539062 15.863281 C 14.613281 15.84375 14.667969 15.824219 14.71875 15.808594 C 14.796875 15.710938 14.976562 15.535156 15.289062 15.222656 C 16.128906 14.394531 16.449219 13.945312 16.117188 14.066406 C 15.996094 14.109375 16.050781 14 16.261719 13.777344 C 16.703125 13.347656 16.957031 12.699219 17.484375 10.660156 C 17.902344 9.050781 17.902344 9.027344 18.210938 9.027344 C 18.355469 9.027344 18.765625 9.050781 18.765625 9.050781 L 18.765625 7.042969 Z M 20.886719 10.339844 C 20.820312 10.339844 20.710938 10.441406 20.644531 10.550781 C 20.523438 10.75 20.667969 10.871094 22.488281 12.003906 C 23.566406 12.691406 24.4375 13.273438 24.414062 13.316406 C 24.394531 13.351562 23.511719 13.925781 22.453125 14.585938 C 20.535156 15.773438 20.523438 15.785156 20.699219 16.027344 C 20.921875 16.316406 20.699219 16.414062 23.191406 14.859375 L 25 13.703125 L 25 12.832031 L 22.980469 11.585938 C 21.890625 10.902344 20.945312 10.351562 20.886719 10.339844 Z M 4.132812 10.460938 C 4.078125 10.460938 3.128906 11.023438 2.039062 11.695312 L 0 12.941406 L 0 13.8125 L 2.027344 15.082031 C 3.152344 15.773438 4.101562 16.347656 4.144531 16.347656 C 4.1875 16.347656 4.277344 16.25 4.367188 16.128906 C 4.496094 15.917969 4.386719 15.832031 2.523438 14.652344 C 0.75 13.539062 0.5625 13.382812 0.738281 13.261719 C 0.851562 13.183594 1.6875 12.667969 2.589844 12.105469 C 4.652344 10.835938 4.542969 10.925781 4.378906 10.660156 C 4.3125 10.550781 4.199219 10.453125 4.132812 10.460938 Z M 13.179688 10.488281 C 12.875 10.484375 12.222656 10.949219 10.261719 12.546875 C 10.179688 12.746094 10.171875 12.886719 10.210938 12.976562 C 10.234375 13.039062 10.28125 13.082031 10.34375 13.113281 C 10.40625 13.144531 10.488281 13.160156 10.578125 13.167969 C 10.753906 13.183594 10.964844 13.15625 11.136719 13.121094 L 11.25 13.097656 C 11.519531 12.90625 12.027344 12.445312 12.535156 11.949219 C 13.429688 11.042969 13.636719 10.636719 13.273438 10.503906 Z M 15.464844 11.113281 C 15.199219 11.121094 14.714844 11.433594 13.890625 12.089844 C 13.476562 12.429688 13.214844 12.609375 13.074219 12.648438 L 12.527344 13.078125 C 12.320312 13.453125 12.292969 13.683594 12.347656 13.8125 C 12.570312 13.984375 12.652344 14 12.738281 14 C 12.945312 13.996094 13.148438 13.96875 13.34375 13.910156 C 13.445312 13.882812 13.546875 13.851562 13.648438 13.816406 L 13.675781 13.804688 L 13.730469 13.773438 C 13.835938 13.640625 14.074219 13.386719 14.375 13.09375 C 15.324219 12.179688 15.808594 11.53125 15.710938 11.289062 C 15.664062 11.167969 15.585938 11.109375 15.464844 11.113281 Z M 12.941406 12.238281 C 12.863281 12.246094 12.691406 12.382812 12.378906 12.652344 C 11.929688 13.050781 11.441406 13.28125 11.269531 13.179688 C 11.230469 13.1875 11.191406 13.195312 11.152344 13.203125 C 10.976562 13.238281 10.761719 13.265625 10.570312 13.25 C 10.480469 13.246094 10.390625 13.222656 10.308594 13.183594 C 10.09375 12.914062 10.09375 12.796875 10.136719 12.648438 L 9.460938 13.207031 L 7.929688 14.472656 L 7.929688 16.527344 L 12.949219 12.574219 C 13.003906 12.304688 13.003906 12.234375 12.941406 12.242188 Z M 15.101562 12.90625 C 15.027344 12.90625 14.898438 13.011719 14.695312 13.226562 C 14.417969 13.523438 13.984375 13.808594 13.753906 13.867188 L 13.71875 13.886719 C 13.683594 13.902344 13.644531 13.914062 13.605469 13.929688 C 13.542969 13.949219 13.460938 13.976562 13.367188 14 C 13.179688 14.050781 12.945312 14.097656 12.738281 14.09375 C 12.640625 14.09375 12.542969 14.074219 12.453125 14.035156 C 12.199219 13.703125 12.222656 13.5 12.355469 13.210938 L 7.925781 16.699219 L 7.925781 17.957031 L 9.871094 17.957031 L 14 14.714844 C 14.105469 14.597656 14.269531 14.433594 14.488281 14.230469 C 15.070312 13.691406 15.203125 13.503906 15.203125 13.226562 C 15.203125 13.011719 15.179688 12.902344 15.101562 12.902344 Z M 16.085938 14.9375 L 15.730469 15.289062 C 15.535156 15.476562 15.179688 15.707031 14.9375 15.804688 L 14.890625 15.828125 L 14.886719 15.832031 L 14.878906 15.84375 C 14.867188 15.851562 14.863281 15.851562 14.855469 15.855469 C 14.761719 15.890625 14.660156 15.921875 14.5625 15.949219 C 14.339844 16.015625 14.113281 16.054688 13.886719 16.070312 C 13.777344 16.078125 13.667969 16.066406 13.5625 16.042969 C 13.285156 15.816406 13.269531 15.710938 13.300781 15.585938 C 13.320312 15.496094 13.355469 15.40625 13.398438 15.324219 L 10.066406 17.957031 L 14.496094 17.957031 L 15.027344 17.351562 C 15.753906 16.503906 16.085938 15.894531 16.085938 15.378906 Z M 16.085938 14.9375 "/>
</g>
</svg>
