<?xml version="1.0" encoding="UTF-8"?>
<svg xmlns="http://www.w3.org/2000/svg" xmlns:xlink="http://www.w3.org/1999/xlink" width="25px" height="25px" viewBox="0 0 25 25" version="1.1">
<g id="surface1">
<path style=" stroke:none;fill-rule:nonzero;fill-opacity:1;" d="M 12.5 0 C 5.605469 0 0 5.605469 0 12.5 C 0 19.394531 5.605469 25 12.5 25 C 19.394531 25 25 19.394531 25 12.5 C 25 5.605469 19.394531 0 12.5 0 Z M 12.5 1.191406 C 18.746094 1.191406 23.808594 6.253906 23.808594 12.5 C 23.808594 18.746094 18.746094 23.808594 12.5 23.808594 C 6.253906 23.808594 1.191406 18.746094 1.191406 12.5 C 1.191406 6.253906 6.253906 1.191406 12.5 1.191406 Z M 8.71875 6.113281 C 8.574219 6.109375 8.425781 6.113281 8.277344 6.117188 C 7.253906 6.175781 6.640625 6.65625 6.46875 7.648438 C 6.351562 8.347656 6.371094 9.054688 6.324219 9.753906 C 6.308594 10.117188 6.269531 10.476562 6.199219 10.832031 C 6.0625 11.464844 5.789062 11.664062 5.144531 11.699219 C 5.058594 11.707031 4.972656 11.722656 4.890625 11.742188 L 4.890625 13.265625 C 6.0625 13.320312 6.222656 13.738281 6.316406 14.960938 C 6.351562 15.410156 6.304688 15.855469 6.332031 16.304688 C 6.351562 16.726562 6.410156 17.148438 6.492188 17.554688 C 6.761719 18.671875 7.855469 19.046875 9.175781 18.824219 L 9.175781 17.484375 C 8.964844 17.484375 8.777344 17.488281 8.597656 17.484375 C 8.144531 17.472656 7.980469 17.359375 7.9375 16.925781 C 7.875 16.371094 7.894531 15.804688 7.859375 15.242188 C 7.792969 14.195312 7.675781 13.171875 6.65625 12.507812 C 7.183594 12.121094 7.5625 11.660156 7.683594 11.050781 C 7.765625 10.625 7.820312 10.191406 7.851562 9.761719 C 7.886719 9.332031 7.832031 8.886719 7.871094 8.460938 C 7.929688 7.769531 7.976562 7.484375 8.804688 7.511719 C 8.929688 7.511719 9.050781 7.496094 9.191406 7.484375 L 9.191406 6.121094 C 9.023438 6.121094 8.871094 6.117188 8.71875 6.113281 Z M 16.628906 6.125 C 16.34375 6.117188 16.0625 6.136719 15.78125 6.1875 L 15.78125 7.511719 C 16.035156 7.511719 16.234375 7.511719 16.429688 7.515625 C 16.773438 7.519531 17.035156 7.652344 17.066406 8.03125 C 17.097656 8.378906 17.097656 8.726562 17.128906 9.078125 C 17.199219 9.777344 17.238281 10.480469 17.359375 11.167969 C 17.464844 11.734375 17.855469 12.15625 18.339844 12.507812 C 17.488281 13.078125 17.238281 13.894531 17.195312 14.816406 C 17.171875 15.441406 17.15625 16.078125 17.125 16.710938 C 17.09375 17.289062 16.890625 17.476562 16.308594 17.488281 C 16.144531 17.496094 15.988281 17.507812 15.808594 17.519531 L 15.808594 18.878906 C 16.144531 18.878906 16.460938 18.902344 16.773438 18.878906 C 17.742188 18.824219 18.332031 18.351562 18.523438 17.40625 C 18.605469 16.890625 18.652344 16.367188 18.664062 15.839844 C 18.699219 15.359375 18.695312 14.875 18.742188 14.398438 C 18.816406 13.65625 19.160156 13.347656 19.902344 13.296875 C 19.972656 13.289062 20.039062 13.273438 20.109375 13.253906 L 20.109375 11.726562 C 19.984375 11.710938 19.898438 11.699219 19.804688 11.695312 C 19.25 11.671875 18.972656 11.484375 18.828125 10.953125 C 18.742188 10.617188 18.691406 10.269531 18.675781 9.921875 C 18.632812 9.277344 18.636719 8.625 18.597656 7.984375 C 18.511719 6.742188 17.765625 6.15625 16.632812 6.125 Z M 9.453125 11.621094 C 8.332031 11.621094 8.253906 13.269531 9.363281 13.375 L 9.425781 13.375 C 9.898438 13.402344 10.308594 13.042969 10.335938 12.566406 L 10.335938 12.515625 C 10.34375 12.03125 9.957031 11.628906 9.472656 11.621094 Z M 12.484375 11.621094 C 12.019531 11.605469 11.628906 11.972656 11.613281 12.4375 C 11.613281 12.464844 11.613281 12.488281 11.617188 12.515625 C 11.617188 13.042969 11.976562 13.375 12.511719 13.375 C 13.042969 13.375 13.375 13.03125 13.375 12.488281 C 13.371094 11.964844 13.015625 11.617188 12.484375 11.621094 Z M 15.566406 11.621094 C 15.082031 11.613281 14.671875 12 14.65625 12.492188 C 14.65625 12.980469 15.050781 13.375 15.542969 13.375 L 15.550781 13.375 C 15.996094 13.453125 16.4375 13.027344 16.46875 12.511719 C 16.492188 12.039062 16.0625 11.621094 15.566406 11.621094 Z M 15.566406 11.621094 "/>
</g>
</svg>
