<?xml version="1.0" encoding="UTF-8"?>
<svg xmlns="http://www.w3.org/2000/svg" xmlns:xlink="http://www.w3.org/1999/xlink" width="25px" height="25px" viewBox="0 0 25 25" version="1.1">
<g id="surface1">
<path style=" stroke:none;fill-rule:nonzero;fill-opacity:1;" d="M 24.371094 7.375 C 23.863281 7.160156 23.273438 7.375 23.027344 7.867188 C 22.792969 8.335938 22.480469 8.621094 22.074219 8.742188 C 21.4375 8.929688 20.675781 8.6875 20.320312 8.476562 C 19.847656 8.199219 19.304688 7.78125 18.726562 7.339844 C 16.890625 5.925781 14.601562 4.167969 11.457031 4.167969 C 8.945312 4.167969 7.652344 5.457031 5.511719 7.597656 C 5.105469 8.003906 5.101562 8.667969 5.511719 9.074219 C 5.90625 9.472656 6.542969 9.484375 6.949219 9.105469 C 6.960938 9.09375 6.972656 9.085938 6.980469 9.074219 C 7.554688 8.632812 11.179688 9.0625 12.761719 10.320312 C 15.117188 12.191406 16.816406 13.542969 18.75 13.542969 C 21.519531 13.542969 23.832031 11.726562 24.9375 8.691406 C 25.125 8.171875 24.878906 7.59375 24.371094 7.375 Z M 19.160156 14.667969 C 18.652344 14.453125 18.066406 14.664062 17.816406 15.160156 C 17.585938 15.625 17.273438 15.914062 16.867188 16.03125 C 16.226562 16.21875 15.464844 15.976562 15.109375 15.769531 C 14.640625 15.492188 14.097656 15.074219 13.519531 14.632812 C 11.679688 13.214844 9.394531 11.457031 6.25 11.457031 C 3.734375 11.457031 2.445312 12.75 0.304688 14.886719 C -0.101562 15.296875 -0.105469 15.957031 0.300781 16.363281 C 0.699219 16.761719 1.335938 16.777344 1.742188 16.394531 C 1.753906 16.386719 1.761719 16.375 1.773438 16.367188 C 2.347656 15.921875 5.972656 16.355469 7.554688 17.613281 C 9.90625 19.480469 11.605469 20.832031 13.542969 20.832031 C 16.3125 20.832031 18.625 19.019531 19.730469 15.980469 C 19.917969 15.460938 19.667969 14.886719 19.160156 14.667969 Z M 19.160156 14.667969 "/>
</g>
</svg>
