<?xml version="1.0" encoding="UTF-8"?>
<svg xmlns="http://www.w3.org/2000/svg" xmlns:xlink="http://www.w3.org/1999/xlink" width="25px" height="25px" viewBox="0 0 25 25" version="1.1">
<g id="surface1">
<path style=" stroke:none;fill-rule:nonzero;fill-opacity:1;" d="M 4.65625 10.375 L 7.867188 10.375 L 7.867188 11.042969 L 6.640625 11.042969 L 6.640625 14.308594 L 5.882812 14.308594 L 5.882812 11.042969 L 4.65625 11.042969 Z M 4.65625 10.375 "/>
<path style=" stroke:none;fill-rule:nonzero;fill-opacity:1;" d="M 9.804688 13.421875 C 9.980469 13.597656 10.21875 13.6875 10.515625 13.6875 C 10.808594 13.6875 11.042969 13.597656 11.214844 13.421875 C 11.382812 13.246094 11.46875 13 11.46875 12.691406 L 11.46875 10.375 L 12.222656 10.375 L 12.222656 12.691406 C 12.222656 13.03125 12.152344 13.328125 12.015625 13.582031 C 11.878906 13.832031 11.671875 14.035156 11.421875 14.164062 C 11.164062 14.296875 10.863281 14.367188 10.515625 14.367188 C 10.164062 14.367188 9.859375 14.296875 9.59375 14.164062 C 9.339844 14.035156 9.132812 13.832031 8.996094 13.582031 C 8.855469 13.328125 8.785156 13.03125 8.785156 12.691406 L 8.785156 10.375 L 9.539062 10.375 L 9.539062 12.691406 C 9.539062 13.003906 9.628906 13.246094 9.804688 13.421875 Z M 9.804688 13.421875 "/>
<path style=" stroke:none;fill-rule:nonzero;fill-opacity:1;" d="M 15.800781 14.308594 L 15.121094 13.144531 C 15.074219 13.148438 15.027344 13.152344 14.980469 13.152344 L 14.09375 13.152344 L 14.09375 14.308594 L 13.335938 14.308594 L 13.335938 10.375 L 14.980469 10.375 C 15.488281 10.375 15.882812 10.492188 16.160156 10.726562 C 16.4375 10.964844 16.574219 11.296875 16.578125 11.730469 C 16.578125 12.035156 16.507812 12.296875 16.375 12.515625 C 16.238281 12.738281 16.035156 12.910156 15.792969 13.003906 L 16.660156 14.308594 Z M 14.089844 12.488281 L 14.976562 12.488281 C 15.261719 12.488281 15.480469 12.425781 15.628906 12.300781 C 15.78125 12.179688 15.855469 11.996094 15.855469 11.75 C 15.855469 11.511719 15.78125 11.332031 15.628906 11.210938 C 15.480469 11.089844 15.261719 11.03125 14.976562 11.03125 L 14.089844 11.03125 Z M 14.089844 12.488281 "/>
<path style=" stroke:none;fill-rule:nonzero;fill-opacity:1;" d="M 17.628906 10.375 L 20.34375 10.375 L 20.339844 11.03125 L 18.382812 11.03125 L 18.382812 12.09375 L 20.164062 12.09375 L 20.164062 12.753906 L 18.382812 12.753906 L 18.382812 14.308594 L 17.628906 14.308594 Z M 17.628906 10.375 "/>
<path style=" stroke:none;fill-rule:nonzero;fill-opacity:1;" d="M 3.835938 11.441406 L 3.296875 10.902344 L 2.367188 11.832031 L 1.832031 12.371094 L 3.296875 13.835938 L 3.835938 13.300781 L 2.90625 12.371094 Z M 3.835938 11.441406 "/>
<path style=" stroke:none;fill-rule:nonzero;fill-opacity:1;" d="M 21.164062 11.441406 L 21.703125 10.902344 L 22.632812 11.832031 L 23.167969 12.371094 L 21.703125 13.835938 L 21.164062 13.300781 L 22.09375 12.371094 Z M 21.164062 11.441406 "/>
</g>
</svg>
