<?xml version="1.0" encoding="iso-8859-1"?>
<!-- Generator: Adobe Illustrator 24.0.2, SVG Export Plug-In . SVG Version: 6.00 Build 0)  -->
<svg version="1.1" id="&#x421;&#x43B;&#x43E;&#x439;_1"
	 xmlns="http://www.w3.org/2000/svg" xmlns:xlink="http://www.w3.org/1999/xlink" x="0px" y="0px" viewBox="0 0 25 25"
	 style="enable-background:new 0 0 25 25;" xml:space="preserve">
<path d="M22.5,2H2.5C2.223,2,2,2.224,2,3v20c0,0.276,0.223,0.5,0.5,0.5h20c0.276,0,0.5-0.224,0.5-0.5V3C23,2.224,22.776,2,22.5,2z M14.5,13.222h-2.5V21h-2V13.222h-2.5V11.5h7V13.222z M15.0605,20.556v-2.079c0,0,1.1355,0.856,2.498,0.856c1.3625,0,1.31-0.891,1.31-1.013c0-1.293-3.8605-1.293-3.8605-4.1575c0-3.8955,5.625-2.3585,5.625-2.3585l-0.07,1.852c0,0-0.9435-0.629-2.009-0.629s-1.45,0.5065-1.45,1.048c0,1.3975,3.8955,1.258,3.8955,4.0705C21,22.4775,15.0605,20.556,15.0605,20.556z"/>
</svg>