<?xml version="1.0" encoding="utf-8"?>
<svg xmlns="http://www.w3.org/2000/svg" width="25px" height="25px" viewBox="0 0 25 25" version="1.1">
  <path style="stroke: none; fill-rule: nonzero; fill-opacity: 1;" d="M 43.433 7.582 C 40.422 7.582 38.255 9.546 38.255 12.495 C 38.255 15.433 40.687 17.396 43.698 17.396 C 45.517 17.396 47.116 16.672 48.118 15.47 L 46.035 14.264 C 45.48 14.865 44.638 15.217 43.698 15.217 C 42.398 15.217 41.291 14.529 40.881 13.448 L 48.513 13.448 C 48.574 13.133 48.611 12.819 48.611 12.483 C 48.611 9.546 46.444 7.582 43.433 7.582 Z M 40.856 11.53 C 41.192 10.449 42.12 9.761 43.433 9.761 C 44.734 9.761 45.662 10.449 45.998 11.53 L 40.856 11.53 Z M 72.776 7.582 C 69.764 7.582 67.597 9.546 67.597 12.495 C 67.597 15.433 70.042 17.396 73.05 17.396 C 74.868 17.396 76.471 16.672 77.457 15.47 L 75.374 14.264 C 74.834 14.865 73.99 15.217 73.05 15.217 C 71.752 15.217 70.63 14.529 70.22 13.448 L 77.867 13.448 C 77.917 13.133 77.951 12.819 77.951 12.483 C 77.951 9.546 75.784 7.582 72.776 7.582 Z M 70.199 11.53 C 70.547 10.449 71.475 9.761 72.776 9.761 C 74.086 9.761 75.013 10.449 75.349 11.53 L 70.199 11.53 Z M 59.565 12.495 C 59.565 14.12 60.638 15.217 62.287 15.217 C 63.418 15.217 64.25 14.711 64.685 13.879 L 66.778 15.084 C 65.912 16.53 64.287 17.396 62.287 17.396 C 59.279 17.396 57.112 15.433 57.112 12.495 C 57.112 9.546 59.279 7.582 62.287 7.582 C 64.287 7.582 65.912 8.448 66.778 9.894 L 64.685 11.111 C 64.25 10.279 63.418 9.761 62.287 9.761 C 60.638 9.761 59.565 10.859 59.565 12.495 Z M 82.044 4.586 L 82.044 17.119 L 79.587 17.119 L 79.587 4.586 L 82.044 4.586 Z M 15.055 3.224 L 25.134 20.669 L 4.989 20.669 L 15.055 3.224 Z M 40.243 4.586 L 32.682 17.673 L 25.134 4.586 L 27.961 4.586 L 32.682 12.76 L 37.401 4.586 L 40.243 4.586 Z M 56.292 7.86 L 56.292 10.498 C 56.027 10.424 55.737 10.365 55.426 10.365 C 53.836 10.365 52.692 11.46 52.692 13.084 L 52.692 17.119 L 50.248 17.119 L 50.248 7.86 L 52.692 7.86 L 52.692 10.365 C 52.692 8.978 54.304 7.86 56.292 7.86 Z M 56.292 7.86"/>
</svg>