<?xml version="1.0" encoding="UTF-8"?>
<svg xmlns="http://www.w3.org/2000/svg" xmlns:xlink="http://www.w3.org/1999/xlink" width="25px" height="25px" viewBox="0 0 25 25" version="1.1">
<g id="surface1">
<path style=" stroke:none;fill-rule:evenodd;fill-opacity:1;" d="M 19.777344 17.652344 C 19.476562 18.503906 18.277344 19.210938 17.324219 19.414062 C 16.667969 19.554688 15.816406 19.664062 12.945312 18.472656 C 9.71875 17.136719 5.238281 12.375 5.238281 9.207031 C 5.238281 7.59375 6.167969 5.714844 7.792969 5.714844 C 8.578125 5.714844 8.75 5.730469 9.007812 6.347656 C 9.308594 7.078125 10.042969 8.871094 10.128906 9.054688 C 10.492188 9.808594 9.761719 10.25 9.234375 10.90625 C 9.066406 11.101562 8.875 11.316406 9.085938 11.683594 C 9.300781 12.042969 10.035156 13.242188 11.113281 14.203125 C 12.511719 15.445312 13.640625 15.84375 14.046875 16.011719 C 14.347656 16.136719 14.707031 16.109375 14.925781 15.875 C 15.207031 15.570312 15.550781 15.070312 15.90625 14.578125 C 16.152344 14.226562 16.46875 14.183594 16.800781 14.308594 C 17.023438 14.386719 19.867188 15.707031 19.988281 15.917969 C 20.078125 16.070312 20.078125 16.796875 19.777344 17.652344 M 12.503906 0 L 12.496094 0 C 5.605469 0 0 5.605469 0 12.5 C 0 15.234375 0.882812 17.769531 2.378906 19.824219 L 0.824219 24.472656 L 5.625 22.9375 C 7.601562 24.242188 9.960938 25 12.503906 25 C 19.394531 25 25 19.394531 25 12.5 C 25 5.605469 19.394531 0 12.503906 0 "/>
</g>
</svg>
