<?xml version="1.0" encoding="utf-8"?>
<svg width="25" height="25" viewBox="0 0 25 25" xmlns="http://www.w3.org/2000/svg">
  <path d="M 24.566 4.063 L 24.33 4.063 C 23.096 4.061 22.093 5.061 22.093 6.295 L 22.093 11.287 C 22.093 12.285 21.27 13.092 20.289 13.092 C 19.706 13.092 19.125 12.801 18.779 12.306 L 13.68 5.025 C 13.257 4.421 12.568 4.059 11.823 4.059 C 10.661 4.059 9.614 5.048 9.614 6.268 L 9.614 11.288 C 9.614 12.286 8.798 13.093 7.81 13.093 C 7.224 13.093 6.644 12.802 6.299 12.308 L 0.594 4.159 C 0.465 3.973 0.175 4.065 0.175 4.29 L 0.175 8.644 C 0.175 8.864 0.242 9.078 0.368 9.258 L 5.983 17.277 C 6.316 17.751 6.806 18.104 7.369 18.231 C 8.782 18.552 10.082 17.465 10.082 16.079 L 10.082 11.061 C 10.082 10.063 10.89 9.257 11.887 9.257 L 11.89 9.257 C 12.49 9.257 13.055 9.549 13.399 10.042 L 18.499 17.324 C 18.923 17.93 19.575 18.289 20.355 18.289 C 21.543 18.289 22.563 17.301 22.563 16.08 L 22.563 11.06 C 22.563 10.063 23.369 9.256 24.366 9.256 L 24.567 9.256 C 24.69 9.256 24.791 9.154 24.791 9.03 L 24.791 4.289 C 24.791 4.163 24.69 4.063 24.567 4.063 L 24.566 4.063 Z" style=""/>
</svg>